SplineFontDB: 3.0
FontName: Hippopotame
FullName: Hippopotame
FamilyName: Hippopotame
Weight: Regular
Copyright: Copyright (c) 2017, Roi of the Suisse
UComments: "2017-4-25: Created with FontForge (http://fontforge.org)"
Version: 001.000
ItalicAngle: 0
UnderlinePosition: -100
UnderlineWidth: 50
Ascent: 800
Descent: 200
InvalidEm: 0
LayerCount: 2
Layer: 0 0 "Arri+AOgA-re" 1
Layer: 1 0 "Avant" 0
XUID: [1021 485 -1881622352 10871]
StyleMap: 0x0000
FSType: 0
OS2Version: 0
OS2_WeightWidthSlopeOnly: 0
OS2_UseTypoMetrics: 1
CreationTime: 1493120502
ModificationTime: 1493241725
OS2TypoAscent: 0
OS2TypoAOffset: 1
OS2TypoDescent: 0
OS2TypoDOffset: 1
OS2TypoLinegap: 90
OS2WinAscent: 0
OS2WinAOffset: 1
OS2WinDescent: 0
OS2WinDOffset: 1
HheadAscent: 0
HheadAOffset: 1
HheadDescent: 0
HheadDOffset: 1
OS2Vendor: 'PfEd'
MarkAttachClasses: 1
DEI: 91125
Encoding: Custom
UnicodeInterp: none
NameList: AGL For New Fonts
DisplaySize: -48
AntiAlias: 1
FitToEm: 0
WinInfo: 0 24 9
BeginPrivate: 0
EndPrivate
BeginChars: 258 185

StartChar: a
Encoding: 97 97 0
Width: 425
VWidth: 0
Flags: HW
LayerCount: 2
Fore
SplineSet
196 288 m 7
 123.716342261 288 52 216.06919394 52 151 c 7
 52 82.933855699 99.9912109375 55 159 55 c 7
 216.008789062 55 242.380204217 101.108405204 253 160 c 4
 264 221 270 272 271 283 c 5
 253 269 225.313476562 288 196 288 c 7
394 98 m 0
 413.268554688 115.712890625 424.972243623 139 443 139 c 3
 468.452854621 139 457 137.958007812 457 129 c 3
 457 102.980776337 389 0 290 0 c 7
 271.33296571 0 258 16 250 28 c 5
 215 -4 174.684158984 0 152 0 c 7
 54 0 0 51 0 144 c 7
 0 256.286132812 92.1360332674 340 195 340 c 7
 234 340 264 339 275 313 c 5
 283 329 295.834960938 328 308 328 c 7
 326 328 331.677734375 299 325 255 c 4
 316.697265625 200.291992188 303.965459917 130.288287334 300 106 c 4
 294.995521236 75.3477627559 302.925974039 60.2699536162 316.999999386 60.2699536162 c 7
 338.134475956 60.2699536162 371.798940498 77.590946383 394 98 c 0
EndSplineSet
Validated: 33
EndChar

StartChar: b
Encoding: 98 98 1
Width: 350
VWidth: 0
Flags: HW
LayerCount: 2
Fore
SplineSet
171 535 m 3
 119.990234375 535 49 308 51 153 c 1
 96 183 191 344 191 448 c 3
 191 471.021484375 202 535 171 535 c 3
178 600 m 0
 241 601 248 514.012818406 248 475 c 3
 248 266 126 136 71 95 c 1
 90 57 127.977539062 54 150 54 c 3
 170.099609375 54 220 61.9895844634 220 110 c 3
 220 139.017236257 201 145.975015605 201 166 c 3
 201 178.041594579 202.980007994 185 228 185 c 3
 250.203603311 185 274 153 332 136 c 0
 353.650390625 129.654296875 362 123.045361017 362 112 c 3
 362 99.8615141863 358 98 344 98 c 3
 319.916810842 98 293 107 264 127 c 1
 267 120 271 120 271 86 c 3
 271 57.9287109375 224.479657727 0 149 0 c 3
 65 0 0 37 0 177 c 3
 0 333 62.2483989422 598.162672999 178 600 c 0
EndSplineSet
Validated: 33
EndChar

StartChar: c
Encoding: 99 99 2
Width: 350
VWidth: 0
Flags: HW
LayerCount: 2
Fore
SplineSet
202 341 m 3
 85.71484375 341 0 256.330078125 0 148 c 3
 0 24.0439453125 76 0 180 0 c 3
 289 0 380 73.9100808545 380 124 c 3
 380 141.765625 386.033203125 134 371 134 c 3
 348 134 278.019415646 61 175 61 c 3
 110 61 55 76.9931640625 55 151 c 3
 55 213.393554688 107.9765625 280 193 280 c 3
 216.135742188 280 247.259582897 272.683187696 271 262 c 0
 311 244 314 250 314 277 c 3
 314 313.055664062 241.629882812 341 202 341 c 3
EndSplineSet
EndChar

StartChar: d
Encoding: 100 100 3
Width: 504
VWidth: 0
Flags: HW
LayerCount: 2
Fore
SplineSet
318 163 m 3
 318 89 243.008771255 54 186 54 c 3
 113.937527103 54 64 88.9697265625 64 156 c 3
 64 231.006835938 135.962890625 282 190 282 c 3
 294.004807581 282 318 247.02380615 318 163 c 3
195 339 m 3
 68.984375 339 0 248.202148438 0 159 c 3
 0 3.9873046875 109.992537729 -1 177 -1 c 3
 268.00549434 -1 306 34 314 45 c 1
 322 24 333 0 408 0 c 3
 494.209048249 0 538 107.882757231 538 125 c 3
 538 141.125 538.049804688 144 528 144 c 3
 510.536132812 144 470.147945483 59 416 59 c 3
 371.954568909 59 357 61 374 143 c 0
 374 143 394.327572807 267.099890165 415 404 c 0
 439.294479962 564.886621786 453.974436757 599 422 599 c 3
 412 599 386 604 370 481 c 0
 360.384056329 407.077433028 343 304 338 281 c 1
 328 299 296.079176886 339 195 339 c 3
EndSplineSet
Validated: 41
EndChar

StartChar: e
Encoding: 101 101 4
Width: 378
VWidth: 0
Flags: HW
LayerCount: 2
Fore
SplineSet
64 129 m 5
 50 216 146.968261963 286 210 286 c 7
 249.05124838 286 287 274.132096332 287 240 c 7
 287 208.91015625 248.224609375 173.485351562 196 151 c 4
 124 120 84 129 64 129 c 5
201 342 m 7
 109.994140625 342 1 260.003999936 1 135 c 7
 1 39.9947369879 74 0 204 0 c 7
 322 0 403 89.9821485478 403 118 c 7
 403 126.0625 411.110351562 132 393 132 c 7
 381.955078125 132 333.040171367 55 221 55 c 7
 136 55 101 61 78 82 c 5
 132 71 197.13074438 87.7745863352 230 107 c 4
 283 138 348 182.276367188 348 232 c 7
 348 314.005859375 291.022460938 342 201 342 c 7
EndSplineSet
EndChar

StartChar: f
Encoding: 102 102 5
Width: 285
VWidth: 0
Flags: HW
LayerCount: 2
Fore
SplineSet
59 139 m 1
 120 162 210 288.996969725 210 454 c 3
 210 487.241540277 208.14453125 528 177 528 c 3
 130.729492188 528 55 287 59 139 c 1
56 16 m 1
 56 -31 77.9833379604 -140 108 -140 c 3
 121.341664064 -140 145 -132.01666204 145 -102 c 3
 145 -61.950031211 93 -3 56 16 c 1
180 600 m 3
 223.290039062 600 264 575 264 464 c 3
 264 257 169 124 75 84 c 1
 99 62 136.454101562 54 175 54 c 3
 240.0078125 54 285.9375 123 294 123 c 3
 302 123 298 123.038085938 298 110 c 3
 298 104.380805892 288.499023438 76.3525390625 268 52 c 0
 244.571289062 24.166015625 208.001079737 0 176 0 c 3
 148.341796875 0 171 -3 142 5 c 1
 177 -26 201 -65.9903855042 201 -118 c 3
 201 -159 156.104524125 -200 113 -200 c 3
 52.9250468165 -200 0 -117 0 42 c 3
 0 414 90.859375 600 180 600 c 3
EndSplineSet
Validated: 33
EndChar

StartChar: r
Encoding: 114 114 6
Width: 398
VWidth: 0
Flags: HW
LayerCount: 2
Fore
SplineSet
30 340 m 3
 86.142578125 340 98 322 160 322 c 3
 199.8125 322 259.559570312 332 270 332 c 3
 283 332 287 332.104492188 287 313 c 3
 287 245.9921875 247 240.021484375 247 145 c 3
 247 79.9306640625 259.98046875 59 285 59 c 3
 351.026835057 59 397.982763743 150 427 150 c 3
 436.15625 150 439 148.708007812 439 142 c 3
 439 122 356 0 292 0 c 3
 214 0 187 53.5361328125 187 141 c 3
 187 192.640625 200 236 220 273 c 1
 201.180664062 264.796875 185.4765625 262 159 262 c 3
 139.764648438 262 94 266 72 280 c 1
 83 256 83 226.280273438 83 219 c 3
 83 180.947404819 27.017578125 98 -2 98 c 3
 -11.0556640625 98 -10 102 -10 109 c 3
 -10 125.279296875 32 169.963648377 32 225 c 3
 32 292.119140625 0 277.98828125 0 320 c 3
 0 338 2.9814453125 340 30 340 c 3
EndSplineSet
Validated: 1
EndChar

StartChar: o
Encoding: 111 111 7
Width: 425
VWidth: 0
Flags: HW
LayerCount: 2
Fore
SplineSet
288 97 m 5
 258 72 223.036351623 58 168 58 c 7
 117.990234375 58 59 77.5859375 59 137 c 7
 59 188.039200621 109 232 126 243 c 5
 126 243 146.233754713 194.654085767 178 160 c 4
 211 124 260 104 288 97 c 5
242 196 m 4
 213.411132812 216.583984375 197 243 186 268 c 5
 204 279 216.776367188 283 237 283 c 7
 313.10546875 283 343 227 320 152 c 5
 292 160 267 178 242 196 c 4
220 336 m 7
 130.94921875 336 1 237.017578125 1 121 c 7
 1 42.9931640625 71 0 175 0 c 7
 241 0 314 15 359 79 c 5
 408 71 460 103 460 127 c 7
 460 138.705078125 455.055664062 140 446 140 c 7
 436.512695312 140 420 125 376 134 c 5
 391 190 424.039211918 336 220 336 c 7
EndSplineSet
EndChar

StartChar: u
Encoding: 117 117 8
Width: 473
VWidth: 0
Flags: HW
LayerCount: 2
Fore
SplineSet
7 158 m 0
 -24.9626566758 28.6965252662 43 0 162 0 c 3
 231 0 265 34 284 57 c 1
 283 38 300 0 369 0 c 7
 418 0 499 83.984375 499 116 c 7
 499 122.671875 503 133 493 133 c 7
 479.513671875 133 432.339961759 60 378 60 c 7
 330.95703125 60 327 101 359 196 c 0
 376.658315353 248.423123704 386 301 386 301 c 3
 386 318.262695312 387.203125 330 365 330 c 3
 325.987181594 330 316 261 293 201 c 0
 244.328598706 74.0311270584 190.14267539 59 134 59 c 3
 61.9930558904 59 59.7138671875 108.78515625 82 184 c 0
 98 238 116 305 116 325 c 3
 116 332 119.701171875 337 98 337 c 3
 52 337 29 247 7 158 c 0
EndSplineSet
Validated: 41
EndChar

StartChar: t
Encoding: 116 116 9
Width: 239
VWidth: 0
Flags: HW
LayerCount: 2
Fore
SplineSet
111 498 m 7
 143.3203125 498 148 493.341796875 148 480 c 7
 148 454.98046875 120 369 112 335 c 5
 122 332 146.570530671 324.714420399 178 320 c 4
 198 317 234.625571866 314.502287465 229 292 c 4
 224 272 199 261 173 262 c 4
 145.361328125 263.063476562 117 272 95 275 c 5
 82 220 12.9956897353 60 129 60 c 7
 196.007462271 60 244.598632812 127 256 127 c 7
 284.16015625 127 266 126.734375 266 120 c 7
 266 89 179 0 110 0 c 7
 -50 0 7.40588398602 180.326477937 18 228 c 4
 22 246 32.3046875 274.596679688 38 295 c 5
 24 305 15 310.8671875 15 326 c 7
 15 342.03125 39.5888671875 344 53 342 c 5
 58.9658203125 363.276367188 66.6651607765 387.915990008 70 399 c 4
 83.8564453125 445.0546875 97.25464309 498 111 498 c 7
EndSplineSet
Validated: 33
EndChar

StartChar: n
Encoding: 110 110 10
Width: 611
VWidth: 0
Flags: HW
LayerCount: 2
Fore
SplineSet
472 163 m 0
 486 237 505.00390625 332 378 332 c 3
 324.603515625 332 300.19921875 319.1875 271 296 c 1
 247 324 215.128898268 340 153 340 c 3
 83.9710205783 340 44.4873046875 252.837890625 32 216 c 0
 12 157 -9 126.279296875 -9 110 c 3
 -9 103 -10.0556640625 99 -1 99 c 3
 21.0227155455 99 50 141 74 194 c 0
 91.0224609375 231.591796875 115.300745995 278 167 278 c 3
 256 278 207.4140625 174.5078125 196 126 c 0
 176 41 155.989257812 -1 203 -1 c 3
 239.013671875 -1 239 31 258 104 c 0
 277.265625 178.01953125 279 274 381 274 c 3
 445.0078125 274 415.372070312 193.21484375 407 142 c 0
 390 38 371 0 448 0 c 1
 564 0 640 115.720703125 640 132 c 3
 640 138.708007812 642.15625 144 633 144 c 3
 613.895507812 144 575.006023878 60 492 60 c 3
 458.727539062 60 453.520507812 65.32421875 472 163 c 0
EndSplineSet
Validated: 41
EndChar

StartChar: m
Encoding: 109 109 11
Width: 750
VWidth: 0
Flags: HW
LayerCount: 2
Fore
SplineSet
196 -1 m 3
 142.990566877 -1 164.91988724 41.5166106144 187 126 c 0
 199.677734375 174.5078125 245.91015625 278 167 278 c 3
 115.30078125 278 104.473612738 234.828822292 84 199 c 0
 56 150 22.1953125 98 -1 98 c 3
 -10.0556640625 98 -9 102 -9 109 c 3
 -9 125.279296875 18 157 38 217 c 0
 50.3004064973 253.901219492 84.9470753001 338 170 338 c 3
 250.056230239 338 255 319 262 298 c 1
 287 328 323 334 363 334 c 3
 425.008063992 334 437 314 445 296 c 1
 461 321 500.625976562 329 545 329 c 3
 627.005859375 329 635 250 613 163 c 0
 592.010742188 79.9970703125 596.98828125 60 639 60 c 3
 722.005859375 60 755.895507812 144 775 144 c 3
 784.15625 144 782 138.708007812 782 132 c 3
 782 115.720703125 711 0 595 0 c 3
 499 0 523 63 539 125 c 0
 566.45703125 231.396484375 566.115234375 262 527 262 c 3
 486.887695312 262 465 234 434 122 c 0
 419.634743052 70.099716833 407.013511047 -1 370 -1 c 3
 317.990385504 -1 336.470454018 35.6506250307 359 118 c 0
 388 224 431.021736563 273 339 273 c 3
 299 273 275.206696305 219.375283538 252 116 c 0
 241 67 224.017851452 -1 196 -1 c 3
EndSplineSet
Validated: 33
EndChar

StartChar: i
Encoding: 105 105 12
Width: 232
VWidth: 0
Flags: HW
LayerCount: 2
Fore
SplineSet
51 456 m 4
 40.9169921875 420.709960938 63.9775390625 395 86 395 c 7
 116.510742188 395 131.613548018 426.863224084 140 466 c 4
 146 494 134.01953125 508 108 508 c 7
 91.8754845034 508 61.0001279197 490.999963451 51 456 c 4
89 338 m 3
 122.015625 338 109 295 89 234 c 0
 68.6702743927 171.994336898 39.9101577058 60 129 60 c 3
 176.139648438 60 238.598632812 127 250 127 c 3
 278.16015625 127 260 126.734375 260 120 c 3
 260 89 154 0 110 0 c 3
 -50 0 -0.111419972032 158.029123743 30 273 c 0
 41 315 65.978515625 338 89 338 c 3
EndSplineSet
Validated: 41
EndChar

StartChar: v
Encoding: 118 118 13
Width: 639
VWidth: 0
Flags: HW
LayerCount: 2
Fore
SplineSet
556 113 m 3
 658.043945312 113 636 150 659 150 c 3
 668.15625 150 671 148.708007812 671 142 c 3
 671 113.982421875 627 54 563 54 c 3
 489.972607879 54 461 104 435 159 c 1
 405 32 322 0 239 0 c 3
 130 0 143.594710893 63.2919959057 158 124 c 0
 172 183 206.095703125 259 159 259 c 3
 123.943359375 259 103.866210938 233.696289062 84 200 c 0
 54.1001830579 149.285101333 18.017578125 99 -2 99 c 3
 -11.0556640625 99 -10 103 -10 110 c 3
 -10 126.278820596 22.122941589 156.674829905 48 222 c 0
 70.1525804165 277.922936091 102.020507812 311.16796875 160 319 c 0
 243.532483778 330.283800507 239.864722812 225.562486959 220 145 c 0
 202 72 205.470703125 51 252 51 c 3
 335.006023878 51 363 105 377 157 c 0
 383.576866459 181.428361132 387.286132812 269 420 269 c 3
 444 269 452.766601562 253.897460938 481 190 c 0
 500 147 513.420898438 113 556 113 c 3
EndSplineSet
EndChar

StartChar: w
Encoding: 119 119 14
Width: 841
VWidth: 0
Flags: HW
LayerCount: 2
Fore
SplineSet
536 136 m 0
 516.731283152 100.031728551 493.206287918 64 462 64 c 3
 385.993421337 64 408.999611634 116.000115685 423 163 c 0
 442.263671875 227.668945312 443.808779482 226.532923057 457 276 c 0
 465 306 453.840820312 307 436 307 c 3
 390 307 386 243 352 156 c 0
 331.465300463 103.455327656 305.033888573 53 246 53 c 3
 199.470439503 53 202 72 220 145 c 0
 239.864722812 225.562486959 243.698450226 346.095008398 160 322 c 0
 94 303 48.7060546875 247.239257812 31 218 c 0
 5.22825154295 175.441292783 -10 126.278820596 -10 110 c 3
 -10 103 -11.0556640625 99 -2 99 c 3
 25.017578125 99 38.509765625 132.202148438 74 189 c 0
 86.083984375 208.338867188 136.438971655 262 159 262 c 3
 206.095647357 262 172 183 158 124 c 0
 143.594710893 63.2919959057 130 0 239 0 c 3
 291.579920684 0 335 17 356 48 c 1
 356 48 349 0 408 0 c 3
 499.268833673 0 521.111992467 1.6079901488 565 59 c 0
 578 76 606 130 618 174 c 1
 652 118 663.03515625 54 754 54 c 3
 818 54 862 113.982421875 862 142 c 3
 862 148.708007812 859.15625 150 850 150 c 3
 827 150 849.043945312 113 747 113 c 3
 704.420898438 113 694 149 673 190 c 0
 641.154296875 252.17578125 635 269 611 269 c 3
 578.286132812 269 566 192 536 136 c 0
EndSplineSet
EndChar

StartChar: p
Encoding: 112 112 15
Width: 406
VWidth: 0
Flags: HW
LayerCount: 2
Fore
SplineSet
194 287 m 1
 205 295 211 293 229 292 c 1
 339 287 265 48 320 48 c 3
 367 48 405.9375 118 414 118 c 3
 423.15625 118 426 116.708007812 426 110 c 3
 426 92.7373046875 362 0 320 0 c 3
 191 0 281 234 217 234 c 3
 181.672464207 234 180.526367188 132.741210938 164 -16 c 0
 148 -160 152.319335938 -200 136 -200 c 3
 110.463867188 -200 101 -199 101 -190 c 3
 101 -179.950195312 103.639648438 -136.967773438 115 -12 c 0
 126 109 143 216 151 258 c 1
 133 224 107.83203125 188.3046875 81 157 c 0
 51 122 8.1806640625 84 -3 84 c 3
 -15.45703125 84 -14.61328125 89.9873046875 -14.61328125 96 c 3
 -14.61328125 104.260742188 19.5220020898 137.926344584 53 187 c 0
 96.578125 250.87890625 110.755488099 332 162 332 c 3
 189 332 194 312 194 287 c 1
EndSplineSet
Validated: 33
EndChar

StartChar: q
Encoding: 113 113 16
Width: 506
VWidth: 0
Flags: HW
LayerCount: 2
Fore
SplineSet
160 280 m 3
 253.005376189 280 240 264.512695312 240 158 c 3
 240 103 162.177427992 52 117 52 c 3
 60.9638671875 52 54 85.9267578125 54 147 c 3
 54 207 107.961914062 280 160 280 c 3
211 -72 m 0
 197.9609375 -196.803710938 207 -179.950195312 207 -190 c 3
 207 -199 216.463867188 -200 242 -200 c 3
 258.319335938 -200 259.247842005 -162.100407358 267 -58 c 0
 274 36 298.864257812 66 326 66 c 3
 367 66 352 0 423 0 c 3
 467.143554688 0 529 96.9772844545 529 119 c 3
 529 125.708007812 526.15625 127 517 127 c 3
 508.9375 127 470 48 423 48 c 3
 387.9857172 48 386 134 338 134 c 3
 317.776367188 134 297 109 285 101 c 1
 292 201 321.114257812 340 164 340 c 3
 68.9526433824 340 0 240 0 138 c 3
 0 43.7397220458 28 0 113 0 c 3
 175 0 203 24 226 43 c 1
 225 21.943359375 220.195854709 16.0183520025 211 -72 c 0
EndSplineSet
EndChar

StartChar: y
Encoding: 121 121 17
Width: 503
VWidth: 0
Flags: HW
LayerCount: 2
Fore
SplineSet
0 138 m 3
 0 58.8419302913 10 0 83 0 c 3
 166 0 215.444335938 50.689453125 244 83 c 1
 223 54 110 -74.9580078125 110 -121 c 3
 110 -164.336914062 135 -200 217 -200 c 3
 378.012421881 -200 301 11 293 70 c 1
 301 79 307.233398438 83 311 83 c 3
 376 83 318 0 421 0 c 3
 463 0 527 99.7373046875 527 117 c 3
 527 123.708007812 524.15625 125 515 125 c 3
 501 125 452.400636936 48 421 48 c 3
 366 48 409 140 323 141 c 1
 305 142 294.330078125 124.032226562 293 136 c 0
 290 163 286.71875 240.120117188 281 268 c 0
 273 307 276.420898438 332 246 332 c 3
 187.899414062 332 258 217 242 170 c 0
 219.365699439 103.511742103 165.007812023 57 101 57 c 3
 75.504902432 57 52.6612732786 80.9929666477 52 121 c 0
 50 242 112 276.307617188 112 310 c 3
 112 335.318359375 105.021728866 332 82 332 c 3
 46.9853515625 332 0 233 0 138 c 3
252 26 m 1
 261 -36 306.050547444 -145 217 -145 c 3
 194 -145 170 -139 170 -114 c 3
 170 -72 203 -41 252 26 c 1
EndSplineSet
EndChar

StartChar: l
Encoding: 108 108 19
Width: 285
VWidth: 0
Flags: HW
LayerCount: 2
Fore
SplineSet
49 138 m 1
 110 161 210 288.996969725 210 454 c 3
 210 487.241540277 208.14453125 528 177 528 c 3
 130.729492188 528 45 286 49 138 c 1
-29 84 m 3
 -29 94.0498756211 -11.1455078125 112 0 116 c 1
 4.0732421875 340.8984375 92.9295252502 600 180 600 c 3
 223.290039062 600 264 575 264 464 c 3
 264 257 163 139 58 85 c 1
 57 42 112.758459723 44 146 44 c 3
 211.0078125 44 285.9375 123 294 123 c 3
 302 123 298 123.038085938 298 110 c 3
 298 104.380805892 285.660304551 79.2942740955 262 58 c 0
 232 31 179 0 130 0 c 3
 55.9207730798 0 23 12 3 72 c 1
 -6 70.814453125 -29 64 -29 84 c 3
EndSplineSet
Validated: 33
EndChar

StartChar: j
Encoding: 106 106 20
Width: 405
VWidth: 0
Flags: HW
LayerCount: 2
Fore
SplineSet
150 94 m 1
 159 32 189.02734375 -145 116 -145 c 3
 93 -145 92 -128.033203125 92 -113 c 3
 92 -55 120 21 150 94 c 1
210 143 m 3
 274 143 217 0 320 0 c 3
 362 0 426 92.7373046875 426 110 c 3
 426 116.708007812 423.15625 118 414 118 c 3
 405.9375 118 367 48 320 48 c 3
 265 48 313 200 222 201 c 1
 204 202 203 204 192 196 c 1
 196 287 219 332 162 332 c 3
 123.947404819 332 115 263 54 185 c 0
 17.4041477788 138.205303717 -14.61328125 98.2607421875 -14.61328125 90 c 3
 -14.61328125 83.9873046875 -13.45703125 80 -7 80 c 3
 4.1806640625 80 51.0003596695 121.999691715 81 157 c 0
 107.83203125 188.3046875 127 214 145 248 c 1
 140 195 141 181 140 159 c 1
 84 80 41 -38.9444634834 41 -120 c 3
 41 -163.336914062 65.1470597314 -200 116 -200 c 3
 263.003401321 -200 200 71 192 130 c 1
 200 139 206.233398438 143 210 143 c 3
128 456 m 0
 117.916992188 420.709960938 140.977539062 395 163 395 c 3
 193.510742188 395 208.61328125 426.86328125 217 466 c 0
 223 494 211.01953125 508 185 508 c 3
 168.875 508 138 491 128 456 c 0
EndSplineSet
Validated: 41
EndChar

StartChar: h
Encoding: 104 104 21
Width: 417
VWidth: 0
Flags: HW
LayerCount: 2
Fore
SplineSet
58 236 m 1
 93 329 202 331.986111781 202 476 c 3
 202 513.013671875 191.241210938 548 158 548 c 3
 68.94921875 548 74 312 58 236 c 1
220 330 m 1
 282 327 301.211185072 301.367428277 273 163 c 0
 253.140625 65.595703125 259.727539062 60 293 60 c 3
 376.005859375 60 414.895507812 144 434 144 c 3
 443.15625 144 441 138.708007812 441 132 c 3
 441 115.720703125 365 0 249 0 c 1
 172 0 191.731445312 37.8828125 208 142 c 0
 218 206 229.259765625 273 181 273 c 3
 130.959960938 273 66 160 63 102 c 0
 59.1035001563 26.6676696888 72 0 32 0 c 3
 -20 0 -4 52 -1 126 c 0
 2.41440457685 210.221979562 6.1513671875 274.354492188 12 326 c 0
 25.1796875 442.38671875 9.8115234375 600 158 600 c 3
 212.630859375 600 263 565.059570312 263 489 c 3
 263 386.995117188 241 356 220 330 c 1
EndSplineSet
Validated: 33
EndChar

StartChar: s
Encoding: 115 115 22
Width: 391
VWidth: 0
Flags: HW
LayerCount: 2
Fore
SplineSet
253 67 m 1
 271 88 280 95.9063413744 280 144 c 3
 280 246.004901843 155 229 95 292 c 0
 79.6811648751 308.084776881 68.2578125 352 44 352 c 3
 19.1064453125 352 4 327.008789062 4 304 c 3
 4 263.477539062 48.7043532666 276.226683351 32 225 c 0
 17 179 -10 125.279296875 -10 109 c 3
 -10 102 -11.0556640625 98 -2 98 c 3
 27.017578125 98 78 194 80 237 c 1
 145 180 220 196.074953184 220 136 c 3
 220 91.6553602479 162.011903075 51 120 51 c 3
 76 51 74.9091796875 86 55 86 c 3
 44.076171875 86 22 76.64453125 22 64 c 3
 22 19.8978458576 84.9814453125 0 112 0 c 3
 183 0 199 21 218 32 c 1
 236 11 258 0 292 0 c 3
 371.227520471 0 415 101.796875 415 124 c 3
 415 130.708007812 412.15625 132 403 132 c 3
 383.764648438 132 376.024996095 48 296 48 c 3
 285.950195312 48 267 55 253 67 c 1
EndSplineSet
Validated: 41
EndChar

StartChar: g
Encoding: 103 103 23
Width: 501
VWidth: 0
Flags: HW
LayerCount: 2
Fore
SplineSet
173 280 m 3
 102.971679688 280 54 207 54 147 c 3
 54 101.822572008 64.504902432 57 101 57 c 3
 157.007812023 57 193.05859375 107.137695312 219 136 c 0
 242.291433548 161.913955674 240 203.935550866 240 235 c 3
 240 266.064449134 219.043945312 280 173 280 c 3
284 144 m 1
 295 152 305 164 323 163 c 1
 406 162 366 48 421 48 c 3
 458 48 501 123 515 123 c 3
 524.15625 123 527 121.708007812 527 115 c 3
 527 97.7373046875 463 0 421 0 c 3
 318 0 378 103 311 103 c 3
 307.233398438 103 301 99 293 90 c 1
 301 41 378.012421881 -200 217 -200 c 3
 135 -200 110 -164.336914062 110 -121 c 3
 110 -74.9580078125 198 40 232 86 c 1
 189.444335938 38.689453125 153.426369625 0 83 0 c 3
 29 0 0 56 0 138 c 3
 0 240 62.0196097281 340 164 340 c 3
 262.020406039 340 304 310 284 144 c 1
258 49 m 1
 204 -47 170 -65.9583514021 170 -114 c 3
 170 -139 194 -145 217 -145 c 3
 306.050547444 -145 267 -13 258 49 c 1
EndSplineSet
EndChar

StartChar: k
Encoding: 107 107 24
Width: 372
VWidth: 0
Flags: HW
LayerCount: 2
Fore
SplineSet
-1 126 m 0
 -4 52 -20 0 32 0 c 3
 72 0 58 24 61 65 c 0
 63.0485237866 92.9964917498 60 110 63 142 c 1
 81 118 80.6801188374 119.443158378 100 91 c 0
 136 38 164 0 237 0 c 3
 299 0 396 106.720703125 396 123 c 3
 396 129.708007812 398.15625 135 389 135 c 3
 374.895507812 135 290.8125 56 251 56 c 3
 218.937560916 56 211.999742144 49.9997890281 158 116 c 0
 124.58984375 156.834960938 115 173 100 197 c 1
 111.575195312 206.258789062 151.752273307 239.293561089 179 262 c 0
 203 282 243 307 243 326 c 3
 243 338.165039062 229.741210938 339 213 339 c 3
 180.9375 339 165 320 136 299 c 0
 111.366210938 281.162109375 83 262 65 249 c 1
 65.9546936551 306.124077331 69.4326171875 328.056640625 72.630859375 395 c 0
 78.74609375 523.006835938 90.3014333333 600 67 600 c 3
 15.9901970206 600 15.4980574715 585.24677472 11 462 c 0
 6 325 4.73832687315 267.545396204 -1 126 c 0
EndSplineSet
Validated: 41
EndChar

StartChar: x
Encoding: 120 120 25
Width: 478
VWidth: 0
Flags: HW
LayerCount: 2
Fore
SplineSet
369 0 m 0
 437.029405407 0 506 83.984375 506 116 c 3
 506 122.671875 510 133 500 133 c 3
 486.513671875 133 448.0285656 60 378 60 c 3
 331.427475911 60 329 141.922851562 329 148 c 3
 329 178.288085938 342.990385504 251 395 251 c 3
 421.053494449 251 421.059570312 223 438 223 c 0
 457.568359375 221.630859375 468 246.732421875 468 264 c 3
 468 303.061523438 410.980178277 324 377 324 c 3
 304.002886859 324 290 241 280 190 c 1
 277 235 287.071289062 322 175 322 c 3
 125.990234375 322 57.6227770915 285.792886693 38 223 c 0
 18 159 -10 126.278820596 -10 110 c 3
 -10 103 -11.0556640625 99 -2 99 c 3
 27.017578125 99 62 154 83 209 c 0
 95.8660034591 242.696675726 145.839744319 262 174 262 c 3
 244.178344238 262 230.594129019 116.980262661 194 83 c 0
 185.509765625 75.1162109375 161.60117439 60 148 60 c 3
 104 60 143 112 93 112 c 3
 78.4563119907 112 69 97.0665927567 69 67 c 3
 69 41.9800079936 86.5244140625 0 137 0 c 3
 171.579101562 0 252 19 273 111 c 1
 276 80 285 0 369 0 c 0
EndSplineSet
Validated: 41
EndChar

StartChar: z
Encoding: 122 122 26
Width: 479
VWidth: 0
Flags: HW
LayerCount: 2
Fore
SplineSet
506 116 m 3
 506 122.671875 510 133 500 133 c 3
 483.521345063 133 453.01738999 55 338 55 c 3
 291.427734375 55 204 57 164 53 c 1
 205 68 263.749727958 106.949800502 302 135 c 0
 347 168 420 230 448 243 c 0
 467.068771546 251.853358218 473 271.025390625 473 288 c 3
 473 323 435.045191971 322 258 322 c 3
 32.3120338455 322 50 316.047851562 50 274 c 3
 50 234.794921875 107.054370061 261 245 261 c 3
 315.178710938 261 342 259 394 271 c 1
 335 237 269.868320923 186.226693414 214 147 c 0
 167 114 99 69 70 61.8818359375 c 0
 53.0489153823 57.7211255462 50 38.2868250345 50 30 c 3
 50 -0.149626863363 80.9269162025 0 252 0 c 3
 303.883269725 0 364.993164062 1.8203125 410 23 c 0
 444 39 506 86 506 116 c 3
EndSplineSet
EndChar

StartChar: underscore
Encoding: 95 95 27
Width: 460
VWidth: 0
Flags: HW
LayerCount: 2
Fore
SplineSet
175 48 m 7
 56.99609375 48 15 49.3193359375 15 10 c 7
 15 -13.0869140625 120.938476562 -3 194 -3 c 7
 353.002929688 -3 445 -12.416015625 445 7 c 7
 445 49.01171875 427.017578125 48 175 48 c 7
EndSplineSet
Validated: 41
EndChar

StartChar: grave
Encoding: 96 96 28
Width: 265
VWidth: 0
Flags: HW
LayerCount: 2
Fore
SplineSet
215 478 m 7
 215 495 210.772460938 499.591796875 193 522 c 4
 170 551 127 600 87 600 c 7
 75.208984375 600 66 584.2421875 66 574 c 7
 66 532.890625 102.231445312 512.6953125 147 478 c 4
 187 447 215 462.8671875 215 478 c 7
EndSplineSet
Validated: 41
EndChar

StartChar: A
Encoding: 65 65 29
Width: 445
VWidth: 0
Flags: HW
LayerCount: 2
Fore
SplineSet
251 525 m 1
 251 525 198 369 181 314 c 1
 209 319 284 329 316 330 c 1
 295 386 267 464 251 525 c 1
247 600 m 3
 276.017578125 600 293.688476562 600.93359375 311 549 c 0
 336 474 369.482421875 369.595703125 392 296 c 0
 433 162 459 87.5869140625 459 66 c 3
 459 40.98046875 451.943359375 37 427 37 c 3
 391 37 389 62 373 125 c 0
 364.296875 159.267578125 347 218 332 268 c 1
 277 262 193 248 166 247 c 1
 160.729492188 223.29296875 131.55859375 152.049804688 119 103 c 0
 105.997070312 52.216796875 102.254882812 0 76 0 c 3
 60.1953125 0 33 6.353515625 33 26 c 3
 33 76.8037109375 56.716796875 132.98046875 100 274 c 0
 131 375 172 512 186 551 c 0
 196.817382812 581.1328125 197.958984375 600 247 600 c 3
EndSplineSet
EndChar

StartChar: B
Encoding: 66 66 30
Width: 406
VWidth: 0
Flags: HW
LayerCount: 2
Fore
SplineSet
117 268 m 1
 133 273 195 286 243 286 c 3
 287.181640625 286 357 264 357 174 c 3
 357 83.9111328125 265.043945312 60 219 60 c 3
 185.091796875 60 147 69 131 68 c 1
 132.038085938 88.7626953125 130.36203365 114.194239211 126 148 c 0
 118 210 121.961914062 243.953125 117 268 c 1
115 526 m 1
 137 534 149.266601562 544 214 544 c 3
 255 544 291 516 291 474 c 3
 291 389.905273438 213 346 123 340 c 1
 115 360 112.885742188 430.745117188 112 447 c 0
 109.54296875 492.10546875 115 482.107421875 115 526 c 1
46 546 m 3
 46 411.7421875 43.9736328125 394.130859375 50 288 c 0
 56.0751953125 181.005859375 58 116 69 48 c 0
 76.6667277528 0.605682982411 85.8994140625 0.443359375 113 0.443359375 c 3
 162.454101562 0.443359375 184.385742188 0 253 0 c 3
 333 0 425 57.869140625 425 196 c 3
 425 306.072265625 320.884765625 351.971679688 289 344 c 1
 363 376 363 424 363 476 c 3
 363 592.017578125 296 600 193 600 c 3
 162.04296875 600 128.325195312 598.516601562 101 592.284179688 c 0
 69.16015625 585.0234375 46 571.31640625 46 546 c 3
EndSplineSet
Validated: 41
EndChar

StartChar: C
Encoding: 67 67 31
Width: 530
VWidth: 0
Flags: HW
LayerCount: 2
Fore
SplineSet
336 600 m 3
 197.942041157 600 40 486.41796875 40 284 c 3
 40 75.51953125 120 0 314 0 c 3
 490 0 550 100 550 136 c 3
 550 163.228515625 549.268554688 172 514 172 c 3
 453.966675921 172 498.009803686 60 294 60 c 3
 235.965527486 60 102 75.9580078125 102 266 c 3
 102 406.014648438 213.334960938 537 322 537 c 3
 502.024998264 537 441.966675921 430 502 430 c 3
 531.23046875 430 530 455.453125 530 482 c 3
 530 533.1953125 462 600 336 600 c 3
EndSplineSet
Validated: 41
EndChar

StartChar: D
Encoding: 68 68 32
Width: 456
VWidth: 0
Flags: HW
LayerCount: 2
Fore
SplineSet
218 541 m 3
 325.1171875 541 410 389.640625 410 277 c 3
 410 136.99609375 369.015625 60 240 60 c 3
 206.091796875 60 152 70 136 69 c 1
 133 95 123 242 120 307 c 0
 114.549804688 425.08203125 120 481.107421875 120 525 c 1
 142 533 160 541 218 541 c 3
214 600 m 3
 178.1953125 600 139.325195312 598.515625 112 592.284179688 c 0
 80.16015625 585.0234375 57 571.31640625 57 546 c 3
 57 411.7421875 50.9736328125 364.130859375 57 258 c 0
 63.0751953125 151.005859375 59 115.556640625 70 47.556640625 c 0
 77.6669921875 0.162109375 86.8994140625 0 114 0 c 3
 163.454101562 0 206.385742188 -0.443359375 275 -0.443359375 c 3
 472.10546875 -0.443359375 467 169.930664062 467 285 c 3
 467 357.111328125 414.009765625 600 214 600 c 3
EndSplineSet
EndChar

StartChar: E
Encoding: 69 69 33
Width: 376
VWidth: 0
Flags: HW
LayerCount: 2
Fore
SplineSet
295 0 m 7
 240.66796875 0 146.454101562 0.443359375 97 0.443359375 c 7
 69.8994140625 0.443359375 53.6669921875 0.60546875 46 48 c 4
 35 116 37.0751953125 181.005859375 31 288 c 4
 24.9736328125 394.130859375 25 411.7421875 25 546 c 7
 25 571.31640625 53.16015625 585.0234375 85 592.284179688 c 4
 112.325195312 598.515625 165.778320312 606 202 606 c 7
 307.170898438 606 366 605 366 566 c 7
 366 546.249023438 356.637695312 534 336 534 c 7
 316.895507812 534 314 541 198 544 c 5
 133.266601562 544 121 534 99 526 c 5
 99 482.107421875 93.54296875 492.10546875 96 447 c 4
 96.8857421875 430.745117188 102 372 107 340 c 5
 158 348 304.831054688 352 310 352 c 7
 364 352 372 344 372 300 c 7
 372 268.1171875 278.358398438 282 228 282 c 31
 178.633789062 282 117 273 101 268 c 5
 105.961914062 243.953125 102 210 110 148 c 4
 114.362304688 114.194335938 116.038085938 88.7626953125 115 68 c 5
 131 69 174.947265625 70 213 70 c 7
 334.037109375 70 376 69.013671875 376 32 c 7
 376 0 362 0 295 0 c 7
EndSplineSet
Validated: 33
EndChar

StartChar: F
Encoding: 70 70 34
Width: 374
VWidth: 0
Flags: HW
LayerCount: 2
Fore
SplineSet
96 3 m 1
 68.8994140625 3 60.6667682677 0.605432527132 53 48 c 0
 42 116 41.0751953125 181.005859375 35 288 c 0
 28.9736328125 394.130859375 28 411.7421875 28 546 c 3
 28 571.31640625 53.16015625 585.0234375 85 592.284179688 c 0
 112.325195312 598.515625 165.778320312 606 202 606 c 3
 307.170898438 606 366 605 366 566 c 3
 366 546.249023438 356.637695312 534 336 534 c 3
 316.895507812 534 314 541 198 544 c 1
 133.266601562 544 121 534 99 526 c 1
 99 482.107421875 93.54296875 492.10546875 96 447 c 0
 96.8857421875 430.745117188 102 372 107 340 c 1
 158 348 265.831054688 352 271 352 c 3
 325 352 333 344 333 300 c 3
 333 268.1171875 256.358398438 282 206 282 c 27
 156.633789062 282 117 273 101 268 c 1
 105.961914062 243.953125 104.847262683 210.301278463 110 148 c 0
 121 15 136 7 96 3 c 1
EndSplineSet
Validated: 33
EndChar

StartChar: G
Encoding: 71 71 35
Width: 530
VWidth: 0
Flags: HW
LayerCount: 2
Fore
SplineSet
530 144 m 3
 530 88 490 0 314 0 c 3
 120 0 40 75.51953125 40 284 c 3
 40 486.41796875 194.942382812 600 333 600 c 3
 459 600 529 534.1953125 529 483 c 3
 529 456.453125 530.23046875 431 501 431 c 3
 440.966796875 431 499.025390625 536 319 536 c 3
 210.334960938 536 101 406.014648438 101 266 c 3
 101 75.9580078125 235.965527486 60 294 60 c 3
 333.319206503 60 471 74.568359375 471 149 c 3
 471 194.010742188 474.013157325 236 322 236 c 3
 283.987304688 236 263 234.110351562 263 258 c 3
 263 289.716796875 279 304 325 304 c 3
 472.33974345 304 530 262.422970745 530 144 c 3
EndSplineSet
Validated: 33
EndChar

StartChar: H
Encoding: 72 72 36
Width: 394
VWidth: 0
Flags: HW
LayerCount: 2
Fore
SplineSet
206 282 m 0
 165.072158189 278.851704476 117 273 101 268 c 1
 105.961914062 243.953125 104.847262683 210.301278463 110 148 c 0
 121 15 136 7 96 3 c 1
 68.8994140625 3 60.6667682677 0.605432527132 53 48 c 0
 42 116 41.0751953125 181.005859375 35 288 c 0
 28.9736328125 394.130859375 28 411.7421875 28 546 c 3
 28 571.31640625 46.8470197806 592.518264199 75 594 c 0
 94 595 101 588.604492188 101 580 c 3
 101 536.689453125 94 552 96 447 c 0
 96.3100199055 430.72395496 102 372 107 340 c 1
 166 352 322.831054688 352 328 352 c 3
 322 422 l 0
 315 492 309 547.389648438 309 583 c 3
 309 612.465820312 303.846624626 619 346 619 c 3
 386.11234224 619 384.660796583 567.196618337 388 504 c 0
 395.736574088 357.58025289 397.939498068 249.070047998 398 101 c 0
 398.01269304 69.9355534592 404.011903075 29 362 29 c 3
 325.223991588 29 322.193359375 34.0703125 325 83 c 0
 329.42578125 160.146484375 328 208.180664062 328 279 c 1
 328 279 258 286 206 282 c 0
EndSplineSet
EndChar

StartChar: I
Encoding: 73 73 37
Width: 137
VWidth: 0
Flags: HW
LayerCount: 2
Fore
SplineSet
32 720 m 0
 21.9169921875 684.709960938 44.9775390625 659 67 659 c 3
 97.5107421875 659 112.61328125 690.86328125 121 730 c 0
 127 758 115.01953125 772 89 772 c 3
 72.875 772 42 755 32 720 c 0
130 147 m 0
 135.752929688 37.693359375 141 7 101 3 c 1
 73.8994140625 3 60.6667682677 3.60543252713 53 48 c 0
 41.2775301556 115.879184591 40.7197265625 131.188476562 37 238 c 0
 35.2890625 287.1328125 35 420.5859375 35 480 c 3
 35 527.336148591 43.8369140625 592.719726562 76 594 c 0
 98.0048828125 594.875976562 117 586.604492188 117 574 c 3
 117 527.493164062 116 438 116 385 c 0
 116 328.919921875 126 223 130 147 c 0
EndSplineSet
EndChar

StartChar: J
Encoding: 74 74 38
Width: 328
VWidth: 0
Flags: HW
LayerCount: 2
Fore
SplineSet
336 147 m 3
 336 240.021484375 328 328.919921875 328 385 c 0
 328 438 322 519.493164062 322 566 c 3
 322 578.604492188 298.004882812 594.875976562 276 594 c 0
 243.836914062 592.719726562 251 556.026367188 251 480 c 3
 251 340.6875 282.475585938 139.634765625 255 103 c 0
 240 83 195.012818406 60 156 60 c 3
 89.9924246772 60 68 118 74 161 c 0
 79.1800474174 198.123673158 66.021484375 213 43 213 c 3
 24.6259765625 213 11 211.56640625 11 189 c 3
 11 84.9951924188 42 0 152 0 c 3
 199 0 336 -0.0029296875 336 147 c 3
232 720 m 0
 221.916992188 684.709960938 244.977539062 659 267 659 c 3
 297.510742188 659 312.61328125 690.86328125 321 730 c 0
 327 758 315.01953125 772 289 772 c 3
 272.875 772 242 755 232 720 c 0
EndSplineSet
Validated: 41
EndChar

StartChar: L
Encoding: 76 76 39
Width: 376
VWidth: 0
Flags: HW
LayerCount: 2
Fore
SplineSet
85 592.284179688 m 3
 41.9143216373 592.284179688 30 570.621057567 30 546 c 3
 30 411.7421875 24.9736328125 394.130859375 27 288 c 0
 29.0457675141 180.853049687 31 116 42 48 c 0
 49.6669921875 0.60546875 58.8994140625 0.443359375 86 0.443359375 c 3
 135.454101562 0.443359375 240.66796875 0 295 0 c 3
 362 0 376 0 376 32 c 3
 376 69.013671875 334.037109375 70 213 70 c 3
 174.947265625 70 131 69 115 68 c 1
 116.038085938 88.7626953125 112.589520283 114.012546291 110 148 c 0
 102 253 106.001953125 391.909179688 103 447 c 0
 100.541992188 492.10546875 117.989888015 592.284179688 85 592.284179688 c 3
EndSplineSet
Validated: 41
EndChar

StartChar: N
Encoding: 78 78 40
Width: 396
VWidth: 0
Flags: HW
LayerCount: 2
Fore
SplineSet
75 594 m 3
 48.6941071241 594 26 592 26 546 c 3
 26 411.7421875 23.9736328125 394.130859375 30 288 c 0
 36.0751953125 181.005859375 33 116 44 48 c 0
 51.6669921875 0.60546875 70.8994140625 3 101 3 c 1
 141 7 123 52 113 148 c 0
 101.620262046 257.245484357 98.9619140625 457.953125 94 482 c 1
 94 482 142 399 189 255 c 0
 279.858398438 -23.375 306.457223692 29 362 29 c 3
 393.112698372 29 398.01269304 69.9355534592 398 101 c 0
 397.939498068 249.070047998 395.736574088 357.58025289 388 504 c 0
 384.660796583 567.196618337 386.11234224 619 346 619 c 3
 303.846624626 619 304 612.465820312 304 583 c 3
 304 469.642159512 331 374 318 144 c 1
 302 166 268.252929688 269.141601562 257 296 c 0
 228.705078125 363.532226562 217.71875 413.392578125 166 529 c 0
 149 567 140 594 75 594 c 3
EndSplineSet
EndChar

StartChar: O
Encoding: 79 79 41
Width: 470
VWidth: 0
Flags: HW
LayerCount: 2
Fore
SplineSet
276 537 m 3
 439.012695312 537 434 372.640625 434 277 c 3
 434 155.93359375 322 62 236 62 c 3
 117.93359375 62 80 129 88 262 c 0
 91.4906916108 320.032748029 120.888671875 537 276 537 c 3
270 604 m 3
 79.9892578125 604 24 348 24 276 c 0
 24 74 51 0 236 0 c 3
 388 0 493 139.986207553 493 285 c 3
 493 396.364257812 513.032919581 604 270 604 c 3
EndSplineSet
Validated: 41
EndChar

StartChar: P
Encoding: 80 80 42
Width: 406
VWidth: 0
Flags: HW
LayerCount: 2
Fore
SplineSet
113 0.443359375 m 3
 85.8994140625 0.443359375 76.6667277528 0.605682982411 69 48 c 0
 58 116 56.0751953125 181.005859375 50 288 c 0
 43.9736328125 394.130859375 46 411.7421875 46 546 c 3
 46 571.31640625 69.16015625 585.0234375 101 592.284179688 c 0
 128.325195312 598.516601562 162.04296875 600 193 600 c 3
 296 600 363 592.017578125 363 476 c 3
 363 424 334 346 260 306 c 0
 208.187013448 277.992980242 133 273 117 268 c 1
 121.961914062 243.953125 121 210 129 148 c 0
 133.362304688 114.194335938 152.002520015 0.443359375 113 0.443359375 c 3
115 526 m 1
 115 482.107421875 109.54296875 492.10546875 112 447 c 0
 112.885742188 430.745117188 115 360 123 340 c 1
 213 346 291 389.905273438 291 474 c 3
 291 516 255 544 214 544 c 3
 149.266601562 544 137 534 115 526 c 1
EndSplineSet
Validated: 33
EndChar

StartChar: R
Encoding: 82 82 43
Width: 342
VWidth: 0
Flags: HW
LayerCount: 2
Fore
SplineSet
255 311 m 0
 309 348 342 401.9375 342 474 c 3
 342 566.265625 271 598 168 598 c 3
 137.04296875 598 128.325195312 598.516601562 101 592.284179688 c 0
 69.16015625 585.0234375 46 571.31640625 46 546 c 3
 46 411.7421875 43.9736328125 394.130859375 50 288 c 0
 56.0751953125 181.005859375 58 116 69 48 c 0
 76.6667277528 0.605682982411 85.8994140625 0.443359375 113 0.443359375 c 3
 152.002520015 0.443359375 131 72 121 264 c 1
 159 246 205 178 260 105 c 0
 278.741336283 80.1251354793 291.174804688 38 322 38 c 0
 351.919921875 38 362 39.9462890625 362 64 c 3
 362 106.011903075 312.846039774 154.064659639 266 213 c 0
 235 252 219 272 203 286 c 1
 203 286 219.758860669 286.853293422 255 311 c 0
115 526 m 1
 137 534 124.266601562 542 189 542 c 3
 230 542 277 514 277 472 c 3
 277 365.995117188 213 346 117 328 c 1
 109 348 112.885453467 430.745101457 112 447 c 0
 109.54296875 492.10546875 115 482.107421875 115 526 c 1
EndSplineSet
Validated: 41
EndChar

StartChar: U
Encoding: 85 85 44
Width: 424
VWidth: 0
Flags: HW
LayerCount: 2
Fore
SplineSet
444 285 m 3
 444 61.9912109375 372 0 220 0 c 3
 8 0 31 109 31 276 c 3
 31 366.645507812 25.126953125 594 60 594 c 3
 120.215820312 594 116 562.221679688 116 526 c 3
 116 491.82421875 93 262 93 262 c 3
 93 148.783203125 113.958007812 62 220 62 c 3
 342.016601562 62 394.685546875 146.508789062 360 437 c 0
 352 504 319.807617188 585 385 585 c 3
 432.04296875 585 444 480.369140625 444 285 c 3
EndSplineSet
EndChar

StartChar: T
Encoding: 84 84 45
Width: 590
VWidth: 0
Flags: HW
LayerCount: 2
Fore
SplineSet
275 532 m 1
 231 524 181.66796875 524 167 524 c 3
 48.9833984375 524 27 499 23 569 c 0
 21.8359375 589.374023438 32.2685546875 579.732421875 43 591 c 1
 133.90234375 598.420898438 234.431640625 603 333 603 c 3
 552.0234375 603 585 609.3203125 585 553 c 3
 585 509.709960938 551.94140625 518 484 518 c 3
 446.6015625 518 397 526 355 530 c 1
 355 526.954101562 360.442382812 549.959960938 359 524 c 0
 352 398 359 223 363 147 c 0
 368.752929688 37.693359375 375 7 335 3 c 1
 307.899414062 3 295.666992188 3.60546875 288 48 c 0
 276.27734375 115.87890625 277.719726562 131.188476562 274 238 c 0
 272.2890625 287.1328125 275 430 275 532 c 1
EndSplineSet
Validated: 37
EndChar

StartChar: Q
Encoding: 81 81 46
Width: 486
VWidth: 0
Flags: HW
LayerCount: 2
Fore
SplineSet
479 14 m 3
 479 31.029296875 414 106 408 114 c 0
 374.432617188 158.756835938 357.663155075 178.813537057 326 215 c 0
 312 231 295.8046875 229 282 229 c 1
 275 227 270 211.029296875 270 203 c 3
 270 179.318359375 333.053710938 101.30078125 342 90 c 0
 399 18 421.82421875 -12 451 -12 c 3
 464 -12 479 -1.296875 479 14 c 3
276 537 m 3
 439.012695312 537 441 374.640625 441 277 c 3
 441 155.93359375 322 62 236 62 c 3
 143.978263437 62 80 110 88 262 c 0
 91.0556463322 320.057280312 120.888671875 537 276 537 c 3
270 604 m 3
 79.9892578125 604 24 348 24 276 c 0
 24 80 86 0 236 0 c 3
 388 0 498 139.986328125 498 285 c 3
 498 396.364257812 513.032919581 604 270 604 c 3
EndSplineSet
EndChar

StartChar: S
Encoding: 83 83 47
Width: 377
VWidth: 0
Flags: HW
LayerCount: 2
Fore
SplineSet
210 598 m 3
 322.071289062 598 373 543.1953125 373 492 c 3
 373 465.453125 374.23046875 440 345 440 c 3
 321.586914062 440 308 445.102539062 308 468 c 3
 308 514 276.006835938 537 207 537 c 3
 122.946289062 537 101 475.604492188 101 435 c 3
 101 348.010742188 153.486121251 346.601098915 223 319 c 0
 291 292 396 280.014705087 396 144 c 3
 396 63.9937502441 338 0 180 0 c 3
 77 0 28 75.8847855688 28 115 c 3
 28 158.290039062 44.7646484375 161 64 161 c 3
 76.48046875 161 94 164.037109375 94 144 c 3
 94 120.654296875 134.958351402 64 183 64 c 3
 243.133185513 64 337 90 337 149 c 0
 337 228.00632886 251 232 174 264 c 0
 116.036750932 288.088622989 31 317.59581682 31 418 c 3
 31 505.051757812 74.9404296875 598 210 598 c 3
EndSplineSet
EndChar

StartChar: M
Encoding: 77 77 48
Width: 464
VWidth: 0
Flags: HW
LayerCount: 2
Fore
SplineSet
295 527 m 0
 312 575 333.03515625 601 368 601 c 3
 428.008789062 601 444 608 444 583 c 3
 444 470.4609375 462.095703125 267.7421875 470 164 c 0
 478 59 490 47 446 49 c 0
 407.920898438 50.73046875 399 50 396 115 c 0
 389.61328125 241.462890625 378.541018933 380.308219161 370 507 c 1
 355.256797889 468.667509812 341.573259577 428.36201364 329.56422886 392.999997966 c 0
 299 303 290.068359375 298 249 298 c 3
 206.573242188 298 197 297 158 374 c 0
 129.548311504 430.173846518 94 482 94 482 c 1
 98.9619140625 457.953125 101.620262046 257.245484357 113 148 c 0
 123 52 135 7 95 3 c 1
 64.8994140625 3 44.5205078125 0.1181640625 41 48 c 0
 36 116 36.0751953125 181.005859375 30 288 c 0
 23.9736328125 394.130859375 26 403.7421875 26 538 c 3
 26 584 48.6943359375 586 75 586 c 3
 140 586 130 587 160 535 c 0
 194.029296875 476.016601562 228 440 248 404 c 1
 267 447 277.814453125 478.475585938 295 527 c 0
EndSplineSet
Validated: 33
EndChar

StartChar: K
Encoding: 75 75 49
Width: 302
VWidth: 0
Flags: HW
LayerCount: 2
Fore
SplineSet
107 340 m 1
 106 362 102.309570312 429.723632812 102 446 c 0
 100 551 101 536.689453125 101 580 c 3
 101 588.604492188 94.0218033663 594.413517464 75 594 c 0
 29 593 28 571.31640625 28 546 c 3
 28 411.7421875 31.9459644296 394.257937491 35 288 c 0
 38.0751953125 181.005859375 38 117 39 44 c 0
 39.5341796875 4.990234375 47 -4 85 -1 c 1
 131 4 107.496413535 22.6638983666 106 140 c 0
 105.205078125 202.331054688 104 213 101 268 c 1
 137 217 181.716796875 165.767578125 207 127 c 0
 233.983398438 85.625 267.834960938 26 280 26 c 3
 300.922851562 26 332 46.2724609375 332 64 c 3
 332 79.296875 327 79 277 147 c 0
 239.954101562 197.381835938 176.932617188 266.206054688 163 293 c 1
 188 317 219 354 257 400 c 0
 357.884916078 522.123845779 346 516.979175701 346 541 c 3
 346 557.049804688 323.133789062 571 308 571 c 3
 294.3515625 571 258 516 232 485 c 0
 187.137695312 431.509765625 137 367 107 340 c 1
EndSplineSet
Validated: 41
EndChar

StartChar: Z
Encoding: 90 90 50
Width: 402
VWidth: 0
Flags: HW
LayerCount: 2
Fore
SplineSet
36 548 m 3
 36 511.951650607 59.8720703125 514 95 514 c 3
 133.470703125 514 169.293945312 525.983398438 223 525.983398438 c 3
 274.66015625 525.983398438 325.76212417 528.883500369 339 523 c 1
 324.329101562 501.143554688 281.717773438 446.360351562 255 405 c 0
 214.950195312 343 122 204 81 148 c 0
 37.872017949 89.0934879304 23 84.3659801888 23 35 c 3
 23 1.87890625 38 0 52 0 c 27
 210.325195312 0 244.46875 2 386 2 c 3
 416.149414062 2 426 6.9833984375 426 38 c 3
 426 68.0665927567 398.016601562 80 365 80 c 3
 338.874856423 80 229.174464334 67.6455078125 191 67.6455078125 c 3
 153.752929688 67.6455078125 124.032226562 70.4482421875 111 69 c 1
 149 116 188.912901329 187.134905328 238 252 c 0
 294 326 373.061523438 437.583984375 408 485 c 0
 436 523 433 532.12109375 433 555 c 3
 433 597.296875 419.030390472 595.520087474 355 599 c 0
 263 604 216.575918452 594 137 594 c 3
 33 594 36 610.048828125 36 548 c 3
EndSplineSet
Validated: 41
EndChar

StartChar: Y
Encoding: 89 89 51
Width: 590
VWidth: 0
Flags: HW
LayerCount: 2
Fore
SplineSet
273 292 m 1
 245 328 215 394 175 478 c 0
 122.203876242 588.871859893 102.533590966 602 159 602 c 3
 213 602 204.746214702 596.387533119 242 516 c 0
 262.612021095 471.522653197 302.1015625 399.4375 313 382 c 1
 321.599609375 400.918945312 355.72947291 457.567156657 391 514 c 0
 431 578 443.619140625 599.92578125 469 599.92578125 c 3
 541.241210938 599.92578125 532.005805024 596.960150309 453 460 c 0
 408.03301009 382.04768124 379 333 354 293 c 1
 354 191.125976562 354.216796875 161.887695312 355 147 c 0
 360.752929688 37.693359375 375 7 335 3 c 1
 307.899414062 3 281.666992188 3.60546875 278 48 c 0
 272.329101562 116.650390625 276.719466627 85.1884675105 273 192 c 0
 271.2890625 241.1328125 275 126 273 292 c 1
EndSplineSet
Validated: 33
EndChar

StartChar: X
Encoding: 88 88 52
Width: 383
VWidth: 0
Flags: HW
LayerCount: 2
Fore
SplineSet
270 305 m 1
 294 345 309.033203125 374.047851562 355 452 c 0
 435.3125 588.197265625 449.241210938 591.92578125 377 591.92578125 c 3
 351.619140625 591.92578125 339 570 299 506 c 0
 263.729492188 449.567382812 237.599609375 409.918945312 229 391 c 1
 218.1015625 408.4375 189.612304688 471.522460938 164 516 c 0
 119.787109375 592.780273438 135 602 81 602 c 3
 24.533203125 602 41.04296875 587.310546875 97 478 c 0
 140 394 172 342 189 307 c 1
 159 249 118.958007812 181.078125 88 124 c 0
 24 6 20 0 71 0 c 3
 108 0 110 11 146 79 c 0
 180.1171875 143.443359375 217 194 230 224 c 1
 240 198 273.356445312 142.716796875 289 101 c 0
 325 5 335 0 371 0 c 3
 421 0 414 17 359 130 c 0
 322.400390625 205.196289062 302 247 270 305 c 1
EndSplineSet
Validated: 41
EndChar

StartChar: V
Encoding: 86 86 53
Width: 383
VWidth: 0
Flags: HW
LayerCount: 2
Fore
SplineSet
251 76 m 0
 277 140 361.391601562 408.525390625 383 472 c 0
 415 566 449.241210938 591.92578125 377 591.92578125 c 3
 351.619140625 591.92578125 345.029296875 598.07421875 317 528 c 0
 293 468 221 258 202 174 c 1
 181 298 149.999852343 453.999955176 133 510 c 0
 107.263671875 594.779296875 135 602 81 602 c 3
 24.533203125 602 28.7531613212 604.768552828 51 484 c 0
 65 408 120 168 143 74 c 0
 158.395522393 11.0791693492 143 0 191 0 c 3
 245 0 223.239257812 7.6669921875 251 76 c 0
EndSplineSet
Validated: 41
EndChar

StartChar: W
Encoding: 87 87 54
Width: 569
VWidth: 0
Flags: HW
LayerCount: 2
Fore
SplineSet
255 340 m 0
 236 281 221 258 202 174 c 1
 181 298 149.999852343 453.999955176 133 510 c 0
 107.263671875 594.779296875 135 602 81 602 c 3
 24.533203125 602 28.7531613212 604.768552828 51 484 c 0
 65 408 120 168 143 74 c 0
 158.395522393 11.0791693492 143 0 191 0 c 3
 245 0 223.239650729 7.66683256383 251 76 c 0
 277 140 299.391601562 220.525390625 321 284 c 1
 341.211203374 243.577593251 383.943105463 106.328035385 401 58 c 0
 417.571289062 11.0478515625 407 0 457 0 c 3
 496.8125 0 492.059335621 3.19693363611 510 86 c 0
 536 206 570.640625 390.483398438 592 540 c 0
 599 589 597.052734375 601 559 601 c 3
 512.908203125 601 511 586 508 560 c 0
 494.279296875 441.08984375 458.48046875 299.366210938 443 191 c 1
 439 212 394.432426276 309.079407667 389 323 c 0
 373 364 377.008789062 362 322 362 c 3
 271.990001 362 263.588350281 366.669087713 255 340 c 0
EndSplineSet
Validated: 41
EndChar

StartChar: period
Encoding: 46 46 55
Width: 204
VWidth: 0
Flags: HW
LayerCount: 2
Fore
SplineSet
50 19 m 4
 39.9169921875 -16.2900390625 62.9775390625 -42 85 -42 c 7
 115.510742188 -42 130.61328125 -10.13671875 139 29 c 4
 145 57 133.01953125 71 107 71 c 7
 90.875 71 60 54 50 19 c 4
EndSplineSet
Validated: 41
EndChar

StartChar: hyphen
Encoding: 45 45 56
Width: 424
VWidth: 0
Flags: HW
LayerCount: 2
Fore
SplineSet
201 198 m 7
 139.599609375 198 91 212.010742188 91 167 c 7
 91 143.913085938 146.938476562 147 220 147 c 7
 290.064453125 147 328 143.583984375 328 163 c 7
 328 195.0625 316.00390625 198 201 198 c 7
EndSplineSet
Validated: 41
EndChar

StartChar: equal
Encoding: 61 61 57
Width: 576
VWidth: 0
Flags: HW
LayerCount: 2
Fore
SplineSet
232 179 m 3
 113.99609375 179 84 180.319335938 84 141 c 3
 84 118.646484375 139.120117188 128 251 128 c 3
 451.009765625 128 495 118.583984375 495 138 c 3
 495 180.01171875 463 179 232 179 c 3
285 48 m 3
 101 48 84 50.3193359375 84 11 c 3
 84 -6.029296875 177.938476562 -2 251 -2 c 3
 429.025390625 -2 495 -12.0693359375 495 17 c 3
 495 59.01171875 482.022460938 48 285 48 c 3
EndSplineSet
Validated: 41
EndChar

StartChar: exclam
Encoding: 33 33 58
Width: 259
VWidth: 0
Flags: HW
LayerCount: 2
Fore
SplineSet
81 10 m 0
 70.9169921875 -25.2900390625 93.9775390625 -51 116 -51 c 3
 146.510742188 -51 161.61328125 -19.13671875 170 20 c 0
 176 48 164.01953125 62 138 62 c 3
 121.875 62 91 45 81 10 c 0
160 267 m 0
 165.752929688 157.693359375 171 127 131 123 c 1
 103.899414062 123 89.37109375 123.401367188 83 168 c 0
 79 196 84.7197265625 213.188476562 81 320 c 0
 79.2890625 369.1328125 77 412.5859375 77 472 c 3
 77 519.3359375 85.8369140625 584.719726562 118 586 c 0
 140.004882812 586.875976562 159 578.604492188 159 566 c 3
 159 519.493164062 160 486 160 433 c 0
 160 376.919921875 156 343 160 267 c 0
EndSplineSet
Validated: 41
EndChar

StartChar: colon
Encoding: 58 58 59
Width: 228
VWidth: 0
Flags: HW
LayerCount: 2
Fore
SplineSet
63 288 m 0
 52.9169921875 252.709960938 75.9775390625 227 98 227 c 3
 128.510742188 227 143.61328125 258.86328125 152 298 c 0
 158 326 146.01953125 340 120 340 c 3
 103.875 340 73 323 63 288 c 0
58 19 m 0
 47.9169921875 -16.2900390625 70.9775390625 -42 93 -42 c 3
 123.510742188 -42 138.61328125 -10.13671875 147 29 c 0
 153 57 141.01953125 71 115 71 c 3
 98.875 71 68 54 58 19 c 0
EndSplineSet
Validated: 41
EndChar

StartChar: zero
Encoding: 48 48 60
Width: 470
VWidth: 0
Flags: HW
LayerCount: 2
Fore
SplineSet
226 537 m 3
 332.004716876 537 342 384.111328125 342 272 c 3
 342 137.985075458 278 62 186 62 c 3
 127.14453125 62 88 149.128391524 88 262 c 3
 88 320.137636448 111.960533148 537 226 537 c 3
220 604 m 3
 61.949375199 604 24 348 24 276 c 0
 24 74 82 0 186 0 c 3
 344 0 402 107.988372486 402 280 c 3
 402 420.128512445 388.01190434 604 220 604 c 3
EndSplineSet
Validated: 9
EndChar

StartChar: one
Encoding: 49 49 61
Width: 360
VWidth: 0
Flags: HW
LayerCount: 2
Fore
SplineSet
149 352 m 0
 177 400 195.564453125 424 223.564453125 465 c 1
 232.10546875 338.30859375 227.177734375 197.462890625 233.564453125 71 c 0
 236.564453125 6 245.485351562 6.73046875 283.564453125 5 c 0
 327.564453125 3 308.940429688 14.705078125 307.564453125 120 c 0
 305.564453125 273 297.564453125 458.78125 297.564453125 541 c 3
 297.564453125 566 281.573242188 559 221.564453125 559 c 3
 186.599609375 559 182.763528263 550.66512523 156.564453125 507 c 0
 117.564453125 442 97 413 60.435546875 346 c 0
 42.5498046875 313.2265625 33.978515625 288 57 288 c 3
 110.5234375 288 114.721679688 293.23828125 149 352 c 0
EndSplineSet
Validated: 41
EndChar

StartChar: two
Encoding: 50 50 62
Width: 397
VWidth: 0
Flags: HW
LayerCount: 2
Fore
SplineSet
20 422 m 0
 17.972813915 494.978699061 74.9404296875 598 210 598 c 3
 322.071289062 598 373 558 373 465 c 3
 373 297 327 320 100 74 c 1
 122 71 160.517578125 67 191 67 c 3
 224.842773438 67 274.29296875 72 311 72 c 3
 342.064453125 72 373 94.013671875 373 57 c 3
 373 -7.0078125 382.050306507 4 223 4 c 3
 120 4 17 -9.115234375 17 30 c 3
 17 117.005746937 13.356931094 74.5662687934 108 179 c 0
 253 339 307 343.95589189 307 446 c 3
 307 498.886671289 276.006835938 537 207 537 c 3
 125.101400732 537 89.9833984375 478.205078125 84 434 c 0
 79.224609375 398.719726562 95.1162109375 379 61 379 c 3
 10.3640443953 379 21 386 20 422 c 0
EndSplineSet
Validated: 33
EndChar

StartChar: three
Encoding: 51 51 63
Width: 397
VWidth: 0
Flags: HW
LayerCount: 2
Fore
SplineSet
320 446 m 3
 320 498.88671875 276.006835938 537 207 537 c 3
 137.992754004 537 94 504 88 476 c 0
 80.5403464263 441.188283323 99.1162109375 421 65 421 c 3
 14.3642578125 421 28.2908824179 428.242646517 24 464 c 0
 18 514 84.996000064 598 210 598 c 3
 322.071289062 598 378 528.280273438 378 446 c 3
 378 352.865688385 341 310 314 302 c 1
 338 285 380 245.004882812 380 143 c 7
 380 30.982421875 290 0 180 0 c 7
 75.3125 0 26 47.6412867519 26 98 c 7
 26 112.8096958 15.1424774361 156 50 156 c 7
 54.2956574675 156 54 156.19047619 54 152 c 7
 54 152 86 153 86 140 c 31
 86 101 98 58 142 58 c 7
 198.938237186 58 321 55.994186243 321 142 c 7
 321 230.141930998 294.018554688 278 184 278 c 3
 144.884765625 278 124 271.875 124 297 c 3
 124 345.725585938 145.850585938 338 176 338 c 3
 228.009765625 338 320 316 320 446 c 3
EndSplineSet
Validated: 33
EndChar

StartChar: five
Encoding: 53 53 64
Width: 413
VWidth: 0
Flags: HW
LayerCount: 2
Fore
SplineSet
210 598 m 3
 368 598 380 605.190429688 380 563 c 3
 380 540.977539062 382.23046875 530 353 530 c 3
 312.950195312 530 276.115844783 537 207 537 c 3
 84.9631203283 537 101 572.13132392 101 435 c 3
 101 348.010742188 85.9619140625 340 138 340 c 3
 286.054044187 340 382 288.004201606 382 169 c 3
 382 88.994140625 338.113883008 0 180 0 c 3
 40.9101010138 0 22 2.884765625 22 42 c 3
 22 85.2900390625 27.7646484375 77 47 77 c 3
 93 77 84.9795939613 64 183 64 c 3
 260.006493233 64 320 92.9933336296 320 168 c 3
 320 262.132884796 230.052970841 279 79 279 c 3
 19.9430584958 279 31 291.603797525 31 418 c 3
 31 632 -0.0380917833715 598 210 598 c 3
EndSplineSet
Validated: 33
EndChar

StartChar: eight
Encoding: 56 56 65
Width: 460
VWidth: 0
Flags: HW
LayerCount: 2
Fore
SplineSet
243 286 m 3
 273.01666204 286 358 254.091905479 358 167 c 3
 358 76.9111328125 297.006409993 60 219 60 c 3
 177.951248496 60 120 86.9918038293 120 148 c 3
 120 236.022724339 194.958351402 286 243 286 c 3
226 543 m 3
 310.094726562 543 331 492.756678708 331 460 c 3
 331 401.862232585 303.006409993 340 225 340 c 3
 203.458984375 340 120 355.545898438 120 445 c 3
 120 484.012695312 171 543 226 543 c 3
64 448 m 3
 64 377.971679688 89 335 138 306 c 1
 108 272 60 226.101201002 60 147 c 3
 60 27.1538559182 137 0 253 0 c 3
 349.13012015 0 420 58.9287109375 420 171 c 3
 420 242.006835938 385 312 341 319 c 1
 368 342 394 379.993750244 394 460 c 3
 394 542.097503007 338.017092769 600 221 600 c 3
 144.89453125 600 64 518.0285656 64 448 c 3
EndSplineSet
Validated: 9
EndChar

StartChar: six
Encoding: 54 54 66
Width: 460
VWidth: 0
Flags: HW
LayerCount: 2
Fore
SplineSet
239 540 m 3
 182.484515396 540 144.525545379 496.746340551 133 442 c 0
 117 366 129 336 121 276 c 1
 151 318 202.966675921 340 263 340 c 3
 385.065556157 340 420 224.050388457 420 171 c 3
 420 58.9287109375 349.13012015 0 253 0 c 3
 137 0 60 27.1538559182 60 147 c 3
 60 307.943517698 51 318 77 445 c 0
 94.0208266287 528.14019161 157.89453125 597 234 597 c 3
 346.218536793 597 408 536 408 470 c 3
 408 443.524414062 401.0234375 438 372 438 c 3
 371.106445312 438 346 432.826171875 346 476 c 3
 346 500.06640625 312 540 239 540 c 3
243 286 m 3
 194.958351402 286 120 236.022724339 120 148 c 3
 120 86.9918038293 177.951248496 60 219 60 c 3
 297.006409993 60 358 76.9111328125 358 167 c 3
 358 254.091905479 273.01666204 286 243 286 c 3
EndSplineSet
Validated: 33
EndChar

StartChar: nine
Encoding: 57 57 67
Width: 470
VWidth: 0
Flags: HW
LayerCount: 2
Fore
SplineSet
390 180 m 0
 385.88056046 315.941504822 390 338 395 463 c 0
 398.531691302 551.292282542 347.47548784 604 220 604 c 3
 113.379176518 604 28 514.019228992 28 410 c 3
 28 323.97674733 80.8896484375 277 194 277 c 3
 286.021736563 277 328 314 328 314 c 1
 332 246 328 194.381835938 328 147 c 3
 328 100 264 58 174 58 c 3
 130 58 86 101 86 140 c 3
 86 153 54 152 54 152 c 3
 54 156.19047619 54.2956574675 156 50 156 c 3
 15.1424774361 156 26 112.8096958 26 98 c 3
 26 67.9334072433 92 0 180 0 c 3
 274 0 394 48 390 180 c 0
226 540 m 3
 292.030296077 540 334 510.224609375 334 430 c 3
 334 389.950195312 308 342 216 342 c 3
 141.972977907 342 96 345.97674733 96 432 c 3
 96 490.137695312 175.91015625 540 226 540 c 3
EndSplineSet
Validated: 41
EndChar

StartChar: seven
Encoding: 55 55 68
Width: 476
VWidth: 0
Flags: HW
LayerCount: 2
Fore
SplineSet
62 318 m 0
 62 300.22265625 55.875 268 76 268 c 3
 128.086914062 268 169 269 188 266 c 1
 166.191896483 220.202982615 156.749023438 193.961914062 132 148 c 0
 69 31 61 0 106 0 c 3
 173 0 148 0 172 49 c 0
 210.4296875 127.4609375 260 229 273 252 c 1
 291.004882812 252 339.015625 248 357 248 c 3
 397.94921875 248 411.4765625 236.092773438 409 298 c 0
 407.953125 324.1640625 402.567382812 327 377 327 c 3
 370.713867188 327 309.019213369 321.076892816 313 328 c 1
 336 368 357 416 399 485 c 0
 413.191789759 508.315083175 431 532.12109375 431 555 c 0
 431 597.296875 417.030273438 595.520507812 353 599 c 0
 261 604 214.576171875 594 135 594 c 0
 31 594 34 610.048828125 34 548 c 0
 34 511.951171875 57.8720703125 514 93 514 c 0
 131.470703125 514 167.293945312 525.983398438 221 525.983398438 c 0
 272.66015625 525.983398438 323.76171875 528.883789062 337 523 c 1
 337 523 246 360 226 336 c 1
 182.9535135 336 155.5 344 111 344 c 3
 97.1328125 344 62.2763671875 336.829101562 62 318 c 0
EndSplineSet
Validated: 41
EndChar

StartChar: slash
Encoding: 47 47 69
Width: 436
VWidth: 0
Flags: HW
LayerCount: 2
Fore
SplineSet
241 412 m 4
 199 334 122.682617188 209.228515625 90 148 c 4
 11 0 -8.291015625 0 67 0 c 7
 112 0 127.372070312 52.662109375 235 244 c 4
 307 372 340.249023438 436.596679688 369 488 c 4
 435 606 423.055664062 600 387 600 c 7
 332 600 343.4375 602.241210938 241 412 c 4
EndSplineSet
Validated: 41
EndChar

StartChar: question
Encoding: 63 63 70
Width: 397
VWidth: 0
Flags: HW
LayerCount: 2
Fore
SplineSet
139 19 m 0
 128.916992188 -16.2900390625 151.977539062 -42 174 -42 c 3
 204.510742188 -42 219.61328125 -10.13671875 228 29 c 0
 234 57 222.01953125 71 196 71 c 3
 179.875 71 149 54 139 19 c 0
20 422 m 0
 19 474 74.9404296875 598 210 598 c 3
 322.071289062 598 373 558 373 465 c 3
 373 303.99689444 217.063476562 260.023652089 217.063476562 170 c 3
 217.063476562 147.211914062 201.610351562 134 190 134 c 3
 125.96875 134 150 146.884765625 150 186 c 3
 150 296.018180316 307 361.851322054 307 446 c 3
 307 498.886671289 276.006835938 537 207 537 c 3
 125.101400732 537 101 482 84 434 c 0
 72.1143757042 400.440590224 95.1162109375 379 61 379 c 3
 10.3640443953 379 20.6924467055 385.992771315 20 422 c 0
EndSplineSet
Validated: 41
EndChar

StartChar: at
Encoding: 64 64 71
Width: 706
VWidth: 0
Flags: HW
LayerCount: 2
Fore
SplineSet
314 0 m 1
 120 0 40 75.51953125 40 284 c 3
 40 486.41796875 190 602 382 602 c 3
 568.043005781 602 642 528.370779697 642 334 c 3
 642 219.98245749 608.262013725 122 486 122 c 3
 445.207843891 122 436 135 428 147 c 1
 393 115 352.684570312 119 330 119 c 3
 232 119 178 170 178 263 c 3
 178 375.286132812 270.135742188 459 373 459 c 3
 412 459 442 458 453 432 c 1
 461 448 473.834960938 447 486 447 c 3
 504 447 509.677734375 418 503 374 c 0
 494.697265625 319.291992188 481.965820312 249.288085938 478 225 c 0
 472.995010368 194.347673692 476.2734375 173.26953125 495 173.26953125 c 3
 560.08217755 173.26953125 584 259.618908098 584 344 c 3
 584 406 586 538 384 538 c 3
 167.962966138 538 101 406.014648438 101 266 c 3
 101 75.9580078125 220 54 310 54 c 3
 544.008546852 54 581.40625 94 612 94 c 3
 648.221679688 94 640 102.844726562 640 74 c 3
 640 25.7021484375 522 0 314 0 c 1
374 407 m 3
 301.716796875 407 230 335.069335938 230 270 c 3
 230 201.93359375 277.991210938 174 337 174 c 3
 394.008789062 174 420.379882812 220.108398438 431 279 c 0
 442 340 448 391 449 402 c 1
 431 388 403.313476562 407 374 407 c 3
EndSplineSet
Validated: 33
EndChar

StartChar: uni0000
Encoding: 0 0 72
Width: 397
VWidth: 0
Flags: HW
LayerCount: 2
Fore
SplineSet
139 19 m 0
 128.916992188 -16.2900390625 151.977539062 -42 174 -42 c 3
 204.510742188 -42 219.61328125 -10.13671875 228 29 c 0
 234 57 222.01953125 71 196 71 c 3
 179.875 71 149 54 139 19 c 0
20 422 m 0
 19 474 74.9404296875 598 210 598 c 3
 322.071289062 598 373 558 373 465 c 3
 373 303.99689444 217.063476562 260.023652089 217.063476562 170 c 3
 217.063476562 147.211914062 201.610351562 134 190 134 c 3
 125.96875 134 150 146.884765625 150 186 c 3
 150 296.018180316 307 361.851322054 307 446 c 3
 307 498.886671289 276.006835938 537 207 537 c 3
 125.101400732 537 101 482 84 434 c 0
 72.1143757042 400.440590224 95.1162109375 379 61 379 c 3
 10.3640443953 379 20.6924467055 385.992771315 20 422 c 0
EndSplineSet
Validated: 41
EndChar

StartChar: uni0009
Encoding: 9 9 73
Width: 397
VWidth: 0
Flags: HW
LayerCount: 2
Fore
SplineSet
139 19 m 0
 128.916992188 -16.2900390625 151.977539062 -42 174 -42 c 3
 204.510742188 -42 219.61328125 -10.13671875 228 29 c 0
 234 57 222.01953125 71 196 71 c 3
 179.875 71 149 54 139 19 c 0
20 422 m 0
 19 474 74.9404296875 598 210 598 c 3
 322.071289062 598 373 558 373 465 c 3
 373 303.99689444 217.063476562 260.023652089 217.063476562 170 c 3
 217.063476562 147.211914062 201.610351562 134 190 134 c 3
 125.96875 134 150 146.884765625 150 186 c 3
 150 296.018180316 307 361.851322054 307 446 c 3
 307 498.886671289 276.006835938 537 207 537 c 3
 125.101400732 537 101 482 84 434 c 0
 72.1143757042 400.440590224 95.1162109375 379 61 379 c 3
 10.3640443953 379 20.6924467055 385.992771315 20 422 c 0
EndSplineSet
Validated: 41
EndChar

StartChar: uni000A
Encoding: 10 10 74
Width: 397
VWidth: 0
Flags: HW
LayerCount: 2
Fore
SplineSet
139 19 m 0
 128.916992188 -16.2900390625 151.977539062 -42 174 -42 c 3
 204.510742188 -42 219.61328125 -10.13671875 228 29 c 0
 234 57 222.01953125 71 196 71 c 3
 179.875 71 149 54 139 19 c 0
20 422 m 0
 19 474 74.9404296875 598 210 598 c 3
 322.071289062 598 373 558 373 465 c 3
 373 303.99689444 217.063476562 260.023652089 217.063476562 170 c 3
 217.063476562 147.211914062 201.610351562 134 190 134 c 3
 125.96875 134 150 146.884765625 150 186 c 3
 150 296.018180316 307 361.851322054 307 446 c 3
 307 498.886671289 276.006835938 537 207 537 c 3
 125.101400732 537 101 482 84 434 c 0
 72.1143757042 400.440590224 95.1162109375 379 61 379 c 3
 10.3640443953 379 20.6924467055 385.992771315 20 422 c 0
EndSplineSet
Validated: 41
EndChar

StartChar: uni000D
Encoding: 13 13 75
Width: 397
VWidth: 0
Flags: HW
LayerCount: 2
Fore
SplineSet
139 19 m 0
 128.916992188 -16.2900390625 151.977539062 -42 174 -42 c 3
 204.510742188 -42 219.61328125 -10.13671875 228 29 c 0
 234 57 222.01953125 71 196 71 c 3
 179.875 71 149 54 139 19 c 0
20 422 m 0
 19 474 74.9404296875 598 210 598 c 3
 322.071289062 598 373 558 373 465 c 3
 373 303.99689444 217.063476562 260.023652089 217.063476562 170 c 3
 217.063476562 147.211914062 201.610351562 134 190 134 c 3
 125.96875 134 150 146.884765625 150 186 c 3
 150 296.018180316 307 361.851322054 307 446 c 3
 307 498.886671289 276.006835938 537 207 537 c 3
 125.101400732 537 101 482 84 434 c 0
 72.1143757042 400.440590224 95.1162109375 379 61 379 c 3
 10.3640443953 379 20.6924467055 385.992771315 20 422 c 0
EndSplineSet
Validated: 41
EndChar

StartChar: quotedbl
Encoding: 34 34 76
Width: 371
VWidth: 0
Flags: HW
LayerCount: 2
Fore
SplineSet
258 506 m 3
 222.767578125 506 212 569.857421875 212 626 c 3
 212 651.919921875 225.9375 692 258 692 c 3
 306.041992188 692 302 634.525390625 302 600 c 3
 302 552.033203125 292.844726562 506 258 506 c 3
116 498 m 3
 80.7676635098 498 64 611.543001289 64 638 c 3
 64 663.920347882 59.8402551841 704 110 704 c 3
 158.041648598 704 154 624.3046875 154 604 c 3
 154 568.028594382 157.617304093 498 116 498 c 3
EndSplineSet
Validated: 33
EndChar

StartChar: quotesingle
Encoding: 39 39 77
Width: 223
VWidth: 0
Flags: HW
LayerCount: 2
Fore
SplineSet
116 498 m 3
 80.7676635098 498 64 611.543001289 64 638 c 3
 64 663.920347882 59.8402551841 704 110 704 c 3
 158.041648598 704 154 624.3046875 154 604 c 3
 154 568.028594382 157.617304093 498 116 498 c 3
EndSplineSet
Validated: 33
EndChar

StartChar: ampersand
Encoding: 38 38 78
Width: 640
VWidth: 0
Flags: HW
LayerCount: 2
Fore
SplineSet
506 498 m 3
 538.3203125 498 543 493.341796875 543 480 c 3
 543 454.98046875 515 369 507 335 c 1
 517 332 541.5703125 324.71484375 573 320 c 0
 593 317 629.625976562 314.501953125 624 292 c 0
 619 272 594 261 568 262 c 0
 540.361328125 263.063476562 512 272 490 275 c 1
 477 220 407.99609375 60 524 60 c 3
 591.0078125 60 639.598632812 127 651 127 c 3
 679.16015625 127 661 126.734375 661 120 c 3
 661 89 574 0 505 0 c 3
 345 0 402.40625 180.326171875 413 228 c 0
 417 246 427.3046875 274.596679688 433 295 c 1
 419 305 410 310.8671875 410 326 c 3
 410 342.03125 434.588867188 344 448 342 c 1
 453.965820312 363.276367188 461.665039062 387.916015625 465 399 c 0
 478.856445312 445.0546875 492.254882812 498 506 498 c 3
97 129 m 1
 83 216 179.96875 286 243 286 c 3
 282.05078125 286 320 274.131835938 320 240 c 3
 320 208.91015625 281.224609375 173.485351562 229 151 c 0
 157 120 117 129 97 129 c 1
234 342 m 3
 142.994140625 342 34 260.00390625 34 135 c 3
 34 39.9951171875 107 0 237 0 c 3
 355 0 422 73.986328125 422 111 c 3
 422 119.0625 430.110351562 125 412 125 c 3
 393 125 353.004882812 55 254 55 c 3
 169 55 134 61 111 82 c 1
 165 71 230.130859375 87.7744140625 263 107 c 0
 316 138 381 182.276367188 381 232 c 3
 381 314.005859375 324.022460938 342 234 342 c 3
EndSplineSet
Validated: 37
EndChar

StartChar: parenleft
Encoding: 40 40 79
Width: 246
VWidth: 0
Flags: HW
LayerCount: 2
Fore
SplineSet
40 284 m 3
 40 23.8769521938 194 -43.6689453125 194 29 c 3
 194 102.25390625 102 67.9898992475 102 266 c 3
 102 540.065685557 213 502 213 564 c 3
 213 632.1171875 40 556.066168422 40 284 c 3
EndSplineSet
Validated: 41
EndChar

StartChar: parenright
Encoding: 41 41 80
Width: 282
VWidth: 0
Flags: HW
LayerCount: 2
Fore
SplineSet
185 263 m 3
 185 68.9765625 36 87.419921875 36 11 c 3
 36 -31 242 40.9912109375 242 271 c 3
 242 603.01355394 35 621.159744816 35 571 c 3
 35 510.833564174 185 571.006493438 185 263 c 3
EndSplineSet
Validated: 41
EndChar

StartChar: copyright
Encoding: 169 169 81
Width: 670
VWidth: 0
Flags: HW
LayerCount: 2
Fore
SplineSet
346 460 m 3
 229.71484375 460 156 381.330078125 156 273 c 3
 156 149.043945312 232 125 336 125 c 3
 394.077534383 125 488 189.474646997 488 224 c 3
 488 241.765625 494.033203125 234 479 234 c 3
 456 234 434.01953125 186 331 186 c 3
 266 186 211 201.993164062 211 276 c 3
 211 338.393554688 263.9765625 405 349 405 c 3
 372.135742188 405 403.259765625 397.68359375 427 387 c 0
 467 369 470 375 470 402 c 3
 470 438.055664062 385.629882812 460 346 460 c 3
362 537 m 3
 525.012695312 537 580 418.056726178 580 277 c 3
 580 123.94772135 412 62 326 62 c 3
 169.987180014 62 80 129 88 262 c 0
 91.4906916108 320.032748029 115.949192239 537 362 537 c 3
356 604 m 3
 99.9687519071 604 24 348 24 276 c 0
 24 74 126 0 326 0 c 3
 478 0 639 113.926916202 639 285 c 3
 639 428.087385887 599.033203125 604 356 604 c 3
EndSplineSet
Validated: 41
EndChar

StartChar: guillemotleft
Encoding: 171 171 82
Width: 371
VWidth: 0
Flags: HW
LayerCount: 2
Fore
SplineSet
258 506 m 3
 222.767578125 506 212 569.857421875 212 626 c 3
 212 651.919921875 225.9375 692 258 692 c 3
 306.041992188 692 302 634.525390625 302 600 c 3
 302 552.033203125 292.844726562 506 258 506 c 3
116 498 m 3
 80.7676635098 498 64 611.543001289 64 638 c 3
 64 663.920347882 59.8402551841 704 110 704 c 3
 158.041648598 704 154 624.3046875 154 604 c 3
 154 568.028594382 157.617304093 498 116 498 c 3
EndSplineSet
Validated: 33
EndChar

StartChar: guillemotright
Encoding: 187 187 83
Width: 371
VWidth: 0
Flags: HW
LayerCount: 2
Fore
SplineSet
258 506 m 3
 222.767578125 506 212 569.857421875 212 626 c 3
 212 651.919921875 225.9375 692 258 692 c 3
 306.041992188 692 302 634.525390625 302 600 c 3
 302 552.033203125 292.844726562 506 258 506 c 3
116 498 m 3
 80.7676635098 498 64 611.543001289 64 638 c 3
 64 663.920347882 59.8402551841 704 110 704 c 3
 158.041648598 704 154 624.3046875 154 604 c 3
 154 568.028594382 157.617304093 498 116 498 c 3
EndSplineSet
Validated: 33
EndChar

StartChar: brokenbar
Encoding: 166 166 84
Width: 165
VWidth: 0
Flags: HW
LayerCount: 2
Fore
SplineSet
130 147 m 0
 135.752929688 37.693359375 141 7 101 3 c 1
 73.8994140625 3 60.6667682677 3.60543252713 53 48 c 0
 41.2775301556 115.879184591 40.7197265625 131.188476562 37 238 c 0
 35.2890625 287.1328125 35 420.5859375 35 480 c 3
 35 527.336148591 43.8369140625 592.719726562 76 594 c 0
 98.0048828125 594.875976562 117 586.604492188 117 574 c 3
 117 527.493164062 116 438 116 385 c 0
 116 328.919921875 126 223 130 147 c 0
EndSplineSet
Validated: 33
EndChar

StartChar: yen
Encoding: 165 165 85
Width: 590
VWidth: 0
Flags: HW
LayerCount: 2
Fore
SplineSet
303 182 m 3
 441.014491993 182 462 186.0625 462 154 c 3
 462 134.583984375 431.004587059 131 322 131 c 3
 184.996350414 131 157 126.913085938 157 150 c 3
 157 195.010742188 188.98245749 182 303 182 c 3
301 290 m 3
 451 290 463 286.0625 463 254 c 3
 463 234.583984375 449.003875911 239 320 239 c 3
 192.996063053 239 157 236.913085938 157 260 c 3
 157 305.010742188 178.934443843 290 301 290 c 3
273 292 m 1
 245 328 215 394 175 478 c 0
 122.203876242 588.871859893 102.533590966 602 159 602 c 3
 213 602 204.746214702 596.387533119 242 516 c 0
 262.612021095 471.522653197 302.1015625 399.4375 313 382 c 1
 321.599609375 400.918945312 355.72947291 457.567156657 391 514 c 0
 431 578 443.619140625 599.92578125 469 599.92578125 c 3
 541.241210938 599.92578125 532.005805024 596.960150309 453 460 c 0
 408.03301009 382.04768124 379 333 354 293 c 1
 354 191.125976562 354.216796875 161.887695312 355 147 c 0
 360.752929688 37.693359375 375 7 335 3 c 1
 307.899414062 3 281.666992188 3.60546875 278 48 c 0
 272.329101562 116.650390625 276.719466627 85.1884675105 273 192 c 0
 271.2890625 241.1328125 275 126 273 292 c 1
EndSplineSet
EndChar

StartChar: section
Encoding: 167 167 86
Width: 374
VWidth: 0
Flags: HW
LayerCount: 2
Fore
SplineSet
210 598 m 3
 322.071289062 598 373 543.1953125 373 492 c 3
 373 465.453125 374.23046875 440 345 440 c 3
 321.586914062 440 308 445.102539062 308 468 c 3
 308 514 276.006835938 537 207 537 c 3
 122.946289062 537 101 475.604492188 101 435 c 3
 101 348.010742188 153.486121251 346.601098915 223 319 c 0
 291 292 396 280.014705087 396 144 c 3
 396 63.9937502441 338 0 180 0 c 3
 77 0 28 75.8847855688 28 115 c 3
 28 158.290039062 44.7646484375 161 64 161 c 3
 76.48046875 161 94 164.037109375 94 144 c 3
 94 120.654296875 134.958351402 64 183 64 c 3
 243.133185513 64 337 90 337 149 c 0
 337 228.00632886 251 232 174 264 c 0
 116.036750932 288.088622989 31 317.59581682 31 418 c 3
 31 505.051757812 74.9404296875 598 210 598 c 3
EndSplineSet
Validated: 33
EndChar

StartChar: mu
Encoding: 181 181 87
Width: 473
VWidth: 0
Flags: HW
LayerCount: 2
Fore
SplineSet
7 158 m 0
 -24.9626566758 28.6965252662 43 0 162 0 c 3
 231 0 265 34 284 57 c 1
 283 38 300 0 369 0 c 7
 418 0 499 83.984375 499 116 c 7
 499 122.671875 503 133 493 133 c 7
 479.513671875 133 432.339961759 60 378 60 c 7
 330.95703125 60 327 101 359 196 c 0
 376.658315353 248.423123704 386 301 386 301 c 3
 386 318.262695312 387.203125 330 365 330 c 3
 325.987181594 330 316 261 293 201 c 0
 244.328598706 74.0311270584 190.14267539 59 134 59 c 3
 61.9930558904 59 59.7138671875 108.78515625 82 184 c 0
 98 238 116 305 116 325 c 3
 116 332 119.701171875 337 98 337 c 3
 52 337 29 247 7 158 c 0
EndSplineSet
Validated: 41
EndChar

StartChar: registered
Encoding: 174 174 88
Width: 342
VWidth: 0
Flags: HW
LayerCount: 2
Fore
SplineSet
255 311 m 0
 309 348 342 401.9375 342 474 c 3
 342 566.265625 271 598 168 598 c 3
 137.04296875 598 128.325195312 598.516601562 101 592.284179688 c 0
 69.16015625 585.0234375 46 571.31640625 46 546 c 3
 46 411.7421875 43.9736328125 394.130859375 50 288 c 0
 56.0751953125 181.005859375 58 116 69 48 c 0
 76.6667277528 0.605682982411 85.8994140625 0.443359375 113 0.443359375 c 3
 152.002520015 0.443359375 131 72 121 264 c 1
 159 246 205 178 260 105 c 0
 278.741336283 80.1251354793 291.174804688 38 322 38 c 0
 351.919921875 38 362 39.9462890625 362 64 c 3
 362 106.011903075 312.846039774 154.064659639 266 213 c 0
 235 252 219 272 203 286 c 1
 203 286 219.758860669 286.853293422 255 311 c 0
115 526 m 1
 137 534 124.266601562 542 189 542 c 3
 230 542 277 514 277 472 c 3
 277 365.995117188 213 346 117 328 c 1
 109 348 112.885453467 430.745101457 112 447 c 0
 109.54296875 492.10546875 115 482.107421875 115 526 c 1
EndSplineSet
Validated: 41
EndChar

StartChar: uni00AD
Encoding: 173 173 89
Width: 424
VWidth: 0
Flags: HW
LayerCount: 2
Fore
SplineSet
201 198 m 3
 139.599609375 198 91 212.010742188 91 167 c 3
 91 143.913085938 146.938476562 147 220 147 c 3
 290.064453125 147 328 143.583984375 328 163 c 3
 328 195.0625 316.00390625 198 201 198 c 3
EndSplineSet
Validated: 41
EndChar

StartChar: logicalnot
Encoding: 172 172 90
Width: 424
VWidth: 0
Flags: HW
LayerCount: 2
Fore
SplineSet
201 198 m 3
 139.599609375 198 91 212.010742188 91 167 c 3
 91 143.913085938 146.938476562 147 220 147 c 3
 290.064453125 147 328 143.583984375 328 163 c 3
 328 195.0625 316.00390625 198 201 198 c 3
EndSplineSet
Validated: 41
EndChar

StartChar: macron
Encoding: 175 175 91
Width: 424
VWidth: 0
Flags: HW
LayerCount: 2
Fore
SplineSet
201 198 m 7
 139.599609375 198 91 212.010742188 91 167 c 7
 91 143.913085938 146.938476562 147 220 147 c 7
 290.064453125 147 328 143.583984375 328 163 c 7
 328 195.0625 316.00390625 198 201 198 c 7
EndSplineSet
Validated: 41
EndChar

StartChar: degree
Encoding: 176 176 92
Width: 350
VWidth: 0
Flags: HW
LayerCount: 2
Fore
SplineSet
170 676 m 7
 235.192382812 676 251 638.756835938 251 606 c 7
 251 570.489257812 227.077148438 522 169 522 c 7
 147.458984375 522 97 536.9921875 97 600 c 7
 97 639.012695312 128.890625 676 170 676 c 7
41 603 m 7
 41 514.94921875 121 468 173 468 c 7
 241.0078125 468 308 526.994140625 308 615 c 7
 308 689.006835938 249.0234375 733 165 733 c 7
 108.963867188 733 41 659.22265625 41 603 c 7
EndSplineSet
Validated: 9
EndChar

StartChar: uni00B2
Encoding: 178 178 93
Width: 397
VWidth: 0
Flags: HW
LayerCount: 2
Fore
SplineSet
20 422 m 0
 17.972813915 494.978699061 74.9404296875 598 210 598 c 3
 322.071289062 598 373 558 373 465 c 3
 373 297 327 320 100 74 c 1
 122 71 160.517578125 67 191 67 c 3
 224.842773438 67 274.29296875 72 311 72 c 3
 342.064453125 72 373 94.013671875 373 57 c 3
 373 -7.0078125 382.050306507 4 223 4 c 3
 120 4 17 -9.115234375 17 30 c 3
 17 117.005746937 13.356931094 74.5662687934 108 179 c 0
 253 339 307 343.95589189 307 446 c 3
 307 498.886671289 276.006835938 537 207 537 c 3
 125.101400732 537 89.9833984375 478.205078125 84 434 c 0
 79.224609375 398.719726562 95.1162109375 379 61 379 c 3
 10.3640443953 379 21 386 20 422 c 0
EndSplineSet
Validated: 33
EndChar

StartChar: uni00B3
Encoding: 179 179 94
Width: 397
VWidth: 0
Flags: HW
LayerCount: 2
Fore
SplineSet
320 446 m 3
 320 498.88671875 276.006835938 537 207 537 c 3
 137.992754004 537 94 504 88 476 c 0
 80.5403464263 441.188283323 99.1162109375 421 65 421 c 3
 14.3642578125 421 28.2908824179 428.242646517 24 464 c 0
 18 514 84.996000064 598 210 598 c 3
 322.071289062 598 378 528.280273438 378 446 c 3
 378 352.865688385 341 310 314 302 c 1
 338 285 380 245.004882812 380 143 c 7
 380 30.982421875 290 0 180 0 c 7
 75.3125 0 26 47.6412867519 26 98 c 7
 26 112.8096958 15.1424774361 156 50 156 c 7
 54.2956574675 156 54 156.19047619 54 152 c 7
 54 152 86 153 86 140 c 31
 86 101 98 58 142 58 c 7
 198.938237186 58 321 55.994186243 321 142 c 7
 321 230.141930998 294.018554688 278 184 278 c 3
 144.884765625 278 124 271.875 124 297 c 3
 124 345.725585938 145.850585938 338 176 338 c 3
 228.009765625 338 320 316 320 446 c 3
EndSplineSet
Validated: 33
EndChar

StartChar: uni00B9
Encoding: 185 185 95
Width: 360
VWidth: 0
Flags: HW
LayerCount: 2
Fore
SplineSet
149 352 m 0
 177 400 195.564453125 424 223.564453125 465 c 1
 232.10546875 338.30859375 227.177734375 197.462890625 233.564453125 71 c 0
 236.564453125 6 245.485351562 6.73046875 283.564453125 5 c 0
 327.564453125 3 308.940429688 14.705078125 307.564453125 120 c 0
 305.564453125 273 297.564453125 458.78125 297.564453125 541 c 3
 297.564453125 566 281.573242188 559 221.564453125 559 c 3
 186.599609375 559 182.763528263 550.66512523 156.564453125 507 c 0
 117.564453125 442 97 413 60.435546875 346 c 0
 42.5498046875 313.2265625 33.978515625 288 57 288 c 3
 110.5234375 288 114.721679688 293.23828125 149 352 c 0
EndSplineSet
Validated: 41
EndChar

StartChar: ordmasculine
Encoding: 186 186 96
Width: 350
VWidth: 0
Flags: HW
LayerCount: 2
Fore
SplineSet
170 676 m 3
 235.192382812 676 251 638.756835938 251 606 c 3
 251 570.489257812 227.077148438 522 169 522 c 3
 147.458984375 522 97 536.9921875 97 600 c 3
 97 639.012695312 128.890625 676 170 676 c 3
41 603 m 3
 41 514.94921875 121 468 173 468 c 3
 241.0078125 468 308 526.994140625 308 615 c 3
 308 689.006835938 249.0234375 733 165 733 c 3
 108.963867188 733 41 659.22265625 41 603 c 3
EndSplineSet
Validated: 9
EndChar

StartChar: periodcentered
Encoding: 183 183 97
Width: 202
VWidth: 0
Flags: HW
LayerCount: 2
Fore
SplineSet
57 185 m 4
 46.9169921875 149.709960938 69.9775390625 124 92 124 c 7
 122.510742188 124 137.61328125 155.86328125 146 195 c 4
 152 223 140.01953125 237 114 237 c 7
 97.875 237 67 220 57 185 c 4
EndSplineSet
Validated: 41
EndChar

StartChar: questiondown
Encoding: 191 191 98
Width: 397
VWidth: 0
Flags: HW
LayerCount: 2
Fore
SplineSet
139 19 m 0
 128.916992188 -16.2900390625 151.977539062 -42 174 -42 c 3
 204.510742188 -42 219.61328125 -10.13671875 228 29 c 0
 234 57 222.01953125 71 196 71 c 3
 179.875 71 149 54 139 19 c 0
20 422 m 0
 19 474 74.9404296875 598 210 598 c 3
 322.071289062 598 373 558 373 465 c 3
 373 303.99689444 217.063476562 260.023652089 217.063476562 170 c 3
 217.063476562 147.211914062 201.610351562 134 190 134 c 3
 125.96875 134 150 146.884765625 150 186 c 3
 150 296.018180316 307 361.851322054 307 446 c 3
 307 498.886671289 276.006835938 537 207 537 c 3
 125.101400732 537 101 482 84 434 c 0
 72.1143757042 400.440590224 95.1162109375 379 61 379 c 3
 10.3640443953 379 20.6924467055 385.992771315 20 422 c 0
EndSplineSet
Validated: 41
EndChar

StartChar: acute
Encoding: 180 180 99
Width: 232
VWidth: 0
Flags: HW
LayerCount: 2
Fore
SplineSet
77 629 m 4
 59.1123046875 586.267578125 37.982421875 534 66 534 c 7
 87 534 109 555 140 606 c 4
 140 606 177 682 154 683 c 4
 107.034179688 685.041992188 95 672 77 629 c 4
EndSplineSet
Validated: 41
EndChar

StartChar: ordfeminine
Encoding: 170 170 100
Width: 425
VWidth: 0
Flags: HW
LayerCount: 2
Fore
SplineSet
196 288 m 7
 123.716342261 288 52 216.06919394 52 151 c 7
 52 82.933855699 99.9912109375 55 159 55 c 7
 216.008789062 55 242.380204217 101.108405204 253 160 c 4
 264 221 270 272 271 283 c 5
 253 269 225.313476562 288 196 288 c 7
394 98 m 0
 413.268554688 115.712890625 424.972243623 139 443 139 c 3
 468.452854621 139 457 137.958007812 457 129 c 3
 457 102.980776337 389 0 290 0 c 7
 271.33296571 0 258 16 250 28 c 5
 215 -4 174.684158984 0 152 0 c 7
 54 0 0 51 0 144 c 7
 0 256.286132812 92.1360332674 340 195 340 c 7
 234 340 264 339 275 313 c 5
 283 329 295.834960938 328 308 328 c 7
 326 328 331.677734375 299 325 255 c 4
 316.697265625 200.291992188 303.965459917 130.288287334 300 106 c 4
 294.995521236 75.3477627559 302.925974039 60.2699536162 316.999999386 60.2699536162 c 7
 338.134475956 60.2699536162 371.798940498 77.590946383 394 98 c 0
EndSplineSet
Validated: 33
EndChar

StartChar: dieresis
Encoding: 168 168 101
Width: 338
VWidth: 0
Flags: HW
LayerCount: 2
Fore
SplineSet
197 444 m 7
 197 407.297767049 226.977539062 401 249 401 c 7
 267 401 290 414 291 443 c 4
 291.987304688 471.618164062 280.01953125 496 254 496 c 7
 237.875 496 197 480.400549446 197 444 c 7
51 456 m 4
 40.9169921875 420.709960938 63.9775390625 395 86 395 c 7
 116.510742188 395 131.613548018 426.863224084 140 466 c 4
 146 494 134.01953125 508 108 508 c 7
 91.8754845034 508 61.0001279197 490.999963451 51 456 c 4
EndSplineSet
Validated: 41
EndChar

StartChar: comma
Encoding: 44 44 102
Width: 184
VWidth: 0
Flags: HW
LayerCount: 2
Fore
SplineSet
155 -15 m 4
 154.2890625 3.013671875 142.327148438 36 104 36 c 7
 65.6728515625 36 76.3798828125 -4.841796875 76 -21 c 4
 74 -106 30 -96 30 -118 c 7
 30 -133.637695312 34.5 -136 44 -136 c 4
 82 -136 158 -91 155 -15 c 4
EndSplineSet
Validated: 41
EndChar

StartChar: plus
Encoding: 43 43 103
Width: 476
VWidth: 0
Flags: HW
LayerCount: 2
Fore
SplineSet
62 318 m 0
 62 300.22265625 55.875 268 76 268 c 3
 128.086914062 268 169 268 188 265 c 1
 187 211 187 239.201171875 187 206 c 3
 187 147.965820312 176 126 221 126 c 3
 288 126 269 146.702148438 269 172 c 3
 269 223.3671875 267 219 267 257 c 1
 285.004882812 257 336.015625 253 354 253 c 3
 394.94921875 253 408.4765625 241.092773438 406 303 c 0
 404.953125 329.1640625 399.567382812 332 374 332 c 3
 367.713867188 332 265.01953125 330.077148438 269 337 c 1
 267 449 285 482 248 482 c 3
 175.97265625 482 201 456 193 342 c 1
 149.953125 342 155.5 344 111 344 c 3
 97.1328125 344 62.2763671875 336.829101562 62 318 c 0
EndSplineSet
Validated: 41
EndChar

StartChar: plusminus
Encoding: 177 177 104
Width: 476
VWidth: 0
Flags: HW
LayerCount: 2
Fore
SplineSet
219 74 m 3
 119.599609375 74 99 86.0107421875 99 41 c 3
 99 17.9130859375 149.938476562 21 238 21 c 3
 331.064453125 21 358 17.583984375 358 37 c 3
 358 69.0625 358.00390625 74 219 74 c 3
62 315 m 0
 62 297.22265625 58.45703125 286 79 286 c 3
 131.086914062 286 179 286 198 283 c 1
 197 229 196 258.201171875 196 225 c 3
 196 166.965820312 188.750976562 145 221 145 c 3
 271.16015625 145 260 165.702148438 260 191 c 3
 260 242.3671875 259 246 259 284 c 1
 277.004882812 284 339.015625 280 357 280 c 3
 397.94921875 280 408.4765625 276.092773438 406 301 c 0
 403.408203125 327.056640625 399.567382812 335 374 335 c 3
 367.713867188 335 265.01953125 333.077148438 269 340 c 1
 267 452 285 482 248 482 c 3
 194.962277575 482 208 453 200 339 c 1
 156.953125 339 155.5 341 111 341 c 3
 62.1328125 341 62 341.831054688 62 315 c 0
EndSplineSet
Validated: 41
EndChar

StartChar: bar
Encoding: 124 124 105
Width: 165
VWidth: 0
Flags: HW
LayerCount: 2
Fore
SplineSet
130 147 m 4
 135.752929688 37.693359375 141 7 101 3 c 5
 73.8994140625 3 60.6667682677 3.60543252713 53 48 c 4
 41.2775301556 115.879184591 40.7197265625 131.188476562 37 238 c 4
 35.2890625 287.1328125 35 420.5859375 35 480 c 7
 35 527.336148591 43.8369140625 592.719726562 76 594 c 4
 98.0048828125 594.875976562 117 586.604492188 117 574 c 7
 117 527.493164062 116 438 116 385 c 4
 116 328.919921875 126 223 130 147 c 4
EndSplineSet
Validated: 33
EndChar

StartChar: braceleft
Encoding: 123 123 106
Width: 246
VWidth: 0
Flags: HW
LayerCount: 2
Fore
SplineSet
40 284 m 3
 40 23.8769521938 194 -43.6689453125 194 29 c 3
 194 102.25390625 102 67.9898992475 102 266 c 3
 102 540.065685557 213 502 213 564 c 3
 213 632.1171875 40 556.066168422 40 284 c 3
EndSplineSet
Validated: 41
EndChar

StartChar: braceright
Encoding: 125 125 107
Width: 282
VWidth: 0
Flags: HW
LayerCount: 2
Fore
SplineSet
185 263 m 3
 185 68.9765625 36 87.419921875 36 11 c 3
 36 -31 242 40.9912109375 242 271 c 3
 242 603.01355394 35 621.159744816 35 571 c 3
 35 510.833564174 185 571.006493438 185 263 c 3
EndSplineSet
Validated: 41
EndChar

StartChar: bracketright
Encoding: 93 93 108
Width: 266
VWidth: 0
Flags: HW
LayerCount: 2
Fore
SplineSet
176 263 m 3
 176 23.998046875 176 48 112 52 c 0
 41.6815470527 56.3949033092 36 52.9774572247 36 11 c 3
 36 -10.1681317364 74.987898923 0 142 0 c 0
 228 0 233 -42 233 271 c 3
 233 606.095703125 228 592 140 596 c 0
 64.5534863337 599.429386985 35 598.05772276 35 571 c 3
 35 537.475139449 48.228515625 534.090820312 108 532 c 0
 165.185546875 530 176 564.014648438 176 263 c 3
EndSplineSet
Validated: 41
EndChar

StartChar: bracketleft
Encoding: 91 91 109
Width: 244
VWidth: 0
Flags: HW
LayerCount: 2
Fore
SplineSet
40 284 m 3
 40 33.9680020477 25.931640625 17 84 10 c 0
 158.294921875 1.0439453125 194 -13.3450359446 194 29 c 3
 194 64.289193573 178.069335938 67.2421875 146 70 c 0
 99.4814453125 74 102 61.755049022 102 266 c 3
 102 506.532742054 90.5498046875 516 132 516 c 0
 176 516 214 512.75390625 214 552 c 3
 214 586.454101562 196 568 106 572 c 0
 18.9538454543 575.86871798 40 536.19833465 40 284 c 3
EndSplineSet
Validated: 41
EndChar

StartChar: backslash
Encoding: 92 92 110
Width: 436
VWidth: 0
Flags: HW
LayerCount: 2
Fore
SplineSet
241 412 m 0
 199 334 122.682617188 209.228515625 90 148 c 0
 11 0 -8.291015625 0 67 0 c 3
 112 0 127.372070312 52.662109375 235 244 c 0
 307 372 340.249023438 436.596679688 369 488 c 0
 435 606 423.055664062 600 387 600 c 3
 332 600 343.4375 602.241210938 241 412 c 0
EndSplineSet
Validated: 41
EndChar

StartChar: asciitilde
Encoding: 126 126 111
Width: 398
VWidth: 0
Flags: HW
LayerCount: 2
Fore
SplineSet
298 212 m 0
 263.587890625 195.213867188 230.510742188 192.489257812 217 206 c 0
 181.0546875 241.9453125 117.7890625 209.538085938 101 185 c 0
 75 147 87 139 113 153 c 0
 139.932617188 167.501953125 167 183 201 159 c 0
 223.889648438 142.842773438 270.948242188 141.948242188 292 163 c 0
 318 189 339 232 298 212 c 0
EndSplineSet
Validated: 41
EndChar

StartChar: semicolon
Encoding: 59 59 112
Width: 228
VWidth: 0
Flags: HW
LayerCount: 2
Fore
SplineSet
155 -15 m 0
 154.2890625 3.013671875 142.327148438 36 104 36 c 3
 65.6728515625 36 76.3798828125 -4.841796875 76 -21 c 0
 74 -106 30 -96 30 -118 c 3
 30 -133.637695312 34.5 -136 44 -136 c 0
 82 -136 158 -91 155 -15 c 0
63 288 m 0
 52.9169921875 252.709960938 75.9775390625 227 98 227 c 3
 128.510742188 227 143.61328125 258.86328125 152 298 c 0
 158 326 146.01953125 340 120 340 c 3
 103.875 340 73 323 63 288 c 0
EndSplineSet
Validated: 41
EndChar

StartChar: multiply
Encoding: 215 215 113
Width: 413
VWidth: 0
Flags: HW
LayerCount: 2
Fore
SplineSet
255 175 m 1
 279 215 276.0078125 199.7734375 318 272 c 0
 343 315 391.241210938 351.92578125 329 351.92578125 c 3
 295.619140625 351.92578125 290 346 268 308 c 0
 234.657226562 250.407226562 222.599609375 244.918945312 214 226 c 1
 203.1015625 243.4375 195.16015625 252.08984375 167 295 c 0
 146 327 137.012695312 342 99 342 c 3
 42.533203125 342 84 311 114 265 c 0
 165.548828125 185.958007812 157 212 174 177 c 1
 145 135 134.547851562 122.958984375 87 57 c 0
 63.7119140625 24.6943359375 38 -5 89 -5 c 3
 126 -5 127 11 141 29 c 0
 185.766601562 86.5576171875 197 100 215 130 c 1
 235 101 235.096679688 98.4052734375 265 54 c 0
 289.25390625 17.984375 301 6 332 6 c 3
 376 6 365.540039062 32.9443359375 337 69 c 0
 300.55078125 115.047851562 291 131 255 175 c 1
EndSplineSet
Validated: 41
EndChar

StartChar: Agrave
Encoding: 192 192 114
Width: 444
VWidth: 0
Flags: HW
LayerCount: 2
Fore
SplineSet
301 664 m 7
 301 681 296.772460938 685.591796875 279 708 c 4
 256 737 213 786 173 786 c 7
 161.208984375 786 152 770.2421875 152 760 c 7
 152 718.890625 188.231445312 698.6953125 233 664 c 4
 273 633 301 648.8671875 301 664 c 7
251 525 m 1
 251 525 198 369 181 314 c 1
 209 319 284 329 316 330 c 1
 295 386 267 464 251 525 c 1
247 600 m 3
 276.017578125 600 293.688476562 600.93359375 311 549 c 0
 336 474 369.482421875 369.595703125 392 296 c 0
 433 162 459 87.5869140625 459 66 c 3
 459 40.98046875 451.943359375 37 427 37 c 3
 391 37 389 62 373 125 c 0
 364.296875 159.267578125 347 218 332 268 c 1
 277 262 193 248 166 247 c 1
 160.729492188 223.29296875 131.55859375 152.049804688 119 103 c 0
 105.997070312 52.216796875 102.254882812 0 76 0 c 3
 60.1953125 0 33 6.353515625 33 26 c 3
 33 76.8037109375 56.716796875 132.98046875 100 274 c 0
 131 375 172 512 186 551 c 0
 196.817382812 581.1328125 197.958984375 600 247 600 c 3
EndSplineSet
Validated: 41
EndChar

StartChar: Aacute
Encoding: 193 193 115
Width: 444
VWidth: 0
Flags: HW
LayerCount: 2
Fore
SplineSet
200 729 m 4
 182.112304688 686.267578125 160.982421875 634 189 634 c 7
 210 634 232 655 263 706 c 4
 263 706 300 782 277 783 c 4
 230.034179688 785.041992188 218 772 200 729 c 4
251 525 m 1
 251 525 198 369 181 314 c 1
 209 319 284 329 316 330 c 1
 295 386 267 464 251 525 c 1
247 600 m 3
 276.017578125 600 293.688476562 600.93359375 311 549 c 0
 336 474 369.482421875 369.595703125 392 296 c 0
 433 162 459 87.5869140625 459 66 c 3
 459 40.98046875 451.943359375 37 427 37 c 3
 391 37 389 62 373 125 c 0
 364.296875 159.267578125 347 218 332 268 c 1
 277 262 193 248 166 247 c 1
 160.729492188 223.29296875 131.55859375 152.049804688 119 103 c 0
 105.997070312 52.216796875 102.254882812 0 76 0 c 3
 60.1953125 0 33 6.353515625 33 26 c 3
 33 76.8037109375 56.716796875 132.98046875 100 274 c 0
 131 375 172 512 186 551 c 0
 196.817382812 581.1328125 197.958984375 600 247 600 c 3
EndSplineSet
Validated: 41
EndChar

StartChar: Acircumflex
Encoding: 194 194 116
Width: 444
VWidth: 0
Flags: HW
LayerCount: 2
Fore
SplineSet
340 678 m 0
 370.525390625 636.069335938 354.137695312 617.604492188 331 630 c 0
 303 645 277 668 239 696 c 1
 209 664 176 648 151 628 c 0
 141.046875 620.037109375 91 606 131 662 c 0
 221.44140625 788.618164062 249 803 340 678 c 0
251 525 m 1
 251 525 198 369 181 314 c 1
 209 319 284 329 316 330 c 1
 295 386 267 464 251 525 c 1
247 600 m 3
 276.017578125 600 293.688476562 600.93359375 311 549 c 0
 336 474 369.482421875 369.595703125 392 296 c 0
 433 162 459 87.5869140625 459 66 c 3
 459 40.98046875 451.943359375 37 427 37 c 3
 391 37 389 62 373 125 c 0
 364.296875 159.267578125 347 218 332 268 c 1
 277 262 193 248 166 247 c 1
 160.729492188 223.29296875 131.55859375 152.049804688 119 103 c 0
 105.997070312 52.216796875 102.254882812 0 76 0 c 3
 60.1953125 0 33 6.353515625 33 26 c 3
 33 76.8037109375 56.716796875 132.98046875 100 274 c 0
 131 375 172 512 186 551 c 0
 196.817382812 581.1328125 197.958984375 600 247 600 c 3
EndSplineSet
EndChar

StartChar: Atilde
Encoding: 195 195 117
Width: 444
VWidth: 0
Flags: HW
LayerCount: 2
Fore
SplineSet
316 731 m 0
 281.587890625 714.213867188 248.510742188 711.489257812 235 725 c 0
 199.0546875 760.9453125 135.7890625 728.538085938 119 704 c 0
 93 666 105 658 131 672 c 0
 157.932617188 686.501953125 185 702 219 678 c 0
 241.889648438 661.842773438 288.948242188 660.948242188 310 682 c 0
 336 708 357 751 316 731 c 0
251 525 m 1
 251 525 198 369 181 314 c 1
 209 319 284 329 316 330 c 1
 295 386 267 464 251 525 c 1
247 600 m 3
 276.017578125 600 293.688476562 600.93359375 311 549 c 0
 336 474 369.482421875 369.595703125 392 296 c 0
 433 162 459 87.5869140625 459 66 c 3
 459 40.98046875 451.943359375 37 427 37 c 3
 391 37 389 62 373 125 c 0
 364.296875 159.267578125 347 218 332 268 c 1
 277 262 193 248 166 247 c 1
 160.729492188 223.29296875 131.55859375 152.049804688 119 103 c 0
 105.997070312 52.216796875 102.254882812 0 76 0 c 3
 60.1953125 0 33 6.353515625 33 26 c 3
 33 76.8037109375 56.716796875 132.98046875 100 274 c 0
 131 375 172 512 186 551 c 0
 196.817382812 581.1328125 197.958984375 600 247 600 c 3
EndSplineSet
EndChar

StartChar: Adieresis
Encoding: 196 196 118
Width: 444
VWidth: 0
Flags: HW
LayerCount: 2
Fore
SplineSet
261 701 m 3
 261 664.297851562 290.977539062 658 313 658 c 3
 331 658 354 671 355 700 c 0
 355.987304688 728.618164062 344.01953125 753 318 753 c 3
 301.875 753 261 737.400390625 261 701 c 3
115 713 m 0
 104.916992188 677.709960938 127.977539062 652 150 652 c 3
 180.510742188 652 195.61328125 683.86328125 204 723 c 0
 210 751 198.01953125 765 172 765 c 3
 155.875 765 125 748 115 713 c 0
251 525 m 1
 251 525 198 369 181 314 c 1
 209 319 284 329 316 330 c 1
 295 386 267 464 251 525 c 1
247 600 m 3
 276.017578125 600 293.688476562 600.93359375 311 549 c 0
 336 474 369.482421875 369.595703125 392 296 c 0
 433 162 459 87.5869140625 459 66 c 3
 459 40.98046875 451.943359375 37 427 37 c 3
 391 37 389 62 373 125 c 0
 364.296875 159.267578125 347 218 332 268 c 1
 277 262 193 248 166 247 c 1
 160.729492188 223.29296875 131.55859375 152.049804688 119 103 c 0
 105.997070312 52.216796875 102.254882812 0 76 0 c 3
 60.1953125 0 33 6.353515625 33 26 c 3
 33 76.8037109375 56.716796875 132.98046875 100 274 c 0
 131 375 172 512 186 551 c 0
 196.817382812 581.1328125 197.958984375 600 247 600 c 3
EndSplineSet
EndChar

StartChar: Aring
Encoding: 197 197 119
Width: 444
VWidth: 0
Flags: HW
LayerCount: 2
Fore
SplineSet
198 719 m 4
 187.916992188 683.709960938 210.977539062 658 233 658 c 7
 263.510742188 658 278.61328125 689.86328125 287 729 c 4
 293 757 281.01953125 771 255 771 c 7
 238.875 771 208 754 198 719 c 4
251 525 m 1
 251 525 198 369 181 314 c 1
 209 319 284 329 316 330 c 1
 295 386 267 464 251 525 c 1
247 600 m 3
 276.017578125 600 293.688476562 600.93359375 311 549 c 0
 336 474 369.482421875 369.595703125 392 296 c 0
 433 162 459 87.5869140625 459 66 c 3
 459 40.98046875 451.943359375 37 427 37 c 3
 391 37 389 62 373 125 c 0
 364.296875 159.267578125 347 218 332 268 c 1
 277 262 193 248 166 247 c 1
 160.729492188 223.29296875 131.55859375 152.049804688 119 103 c 0
 105.997070312 52.216796875 102.254882812 0 76 0 c 3
 60.1953125 0 33 6.353515625 33 26 c 3
 33 76.8037109375 56.716796875 132.98046875 100 274 c 0
 131 375 172 512 186 551 c 0
 196.817382812 581.1328125 197.958984375 600 247 600 c 3
EndSplineSet
EndChar

StartChar: AE
Encoding: 198 198 120
Width: 700
VWidth: 0
Flags: HW
LayerCount: 2
Fore
SplineSet
641 3.7158203125 m 3
 586.66796875 3.7158203125 492.454101562 4.1591796875 443 4.1591796875 c 3
 415.899414062 4.1591796875 399.666992188 4.3212890625 392 51.7158203125 c 0
 381 119.715820312 383.075195312 184.721679688 377 291.715820312 c 0
 370.973632812 397.846679688 371 415.458007812 371 549.715820312 c 3
 371 575.032226562 399.16015625 588.739257812 431 596 c 0
 458.325195312 602.231445312 511.778320312 609.715820312 548 609.715820312 c 3
 653.170898438 609.715820312 712 608.715820312 712 569.715820312 c 3
 712 549.96484375 702.637695312 537.715820312 682 537.715820312 c 3
 662.895507812 537.715820312 660 544.715820312 544 547.715820312 c 1
 479.266601562 547.715820312 467 537.715820312 445 529.715820312 c 1
 445 485.823242188 439.54296875 495.821289062 442 450.715820312 c 0
 442.885742188 434.4609375 448 375.715820312 453 343.715820312 c 1
 504 351.715820312 650.831054688 355.715820312 656 355.715820312 c 3
 710 355.715820312 718 347.715820312 718 303.715820312 c 3
 718 271.833007812 624.358398438 285.715820312 574 285.715820312 c 27
 524.633789062 285.715820312 463 276.715820312 447 271.715820312 c 1
 451.961914062 247.668945312 448 213.715820312 456 151.715820312 c 0
 460.362304688 117.91015625 462.038085938 92.478515625 461 71.7158203125 c 1
 477 72.7158203125 520.947265625 73.7158203125 559 73.7158203125 c 3
 680.037109375 73.7158203125 722 72.7294921875 722 35.7158203125 c 3
 722 3.7158203125 708 3.7158203125 641 3.7158203125 c 3
251 525 m 1
 251 525 198 369 181 314 c 1
 209 319 284 329 316 330 c 1
 295 386 267 464 251 525 c 1
247 600 m 3
 276.017578125 600 293.688476562 600.93359375 311 549 c 0
 336 474 369.482421875 369.595703125 392 296 c 0
 433 162 459 87.5869140625 459 66 c 3
 459 40.98046875 451.943359375 37 427 37 c 3
 391 37 389 62 373 125 c 0
 364.296875 159.267578125 347 218 332 268 c 1
 277 262 193 248 166 247 c 1
 160.729492188 223.29296875 131.55859375 152.049804688 119 103 c 0
 105.997070312 52.216796875 102.254882812 0 76 0 c 3
 60.1953125 0 33 6.353515625 33 26 c 3
 33 76.8037109375 56.716796875 132.98046875 100 274 c 0
 131 375 172 512 186 551 c 0
 196.817382812 581.1328125 197.958984375 600 247 600 c 3
EndSplineSet
Validated: 37
EndChar

StartChar: Ccedilla
Encoding: 199 199 121
Width: 530
VWidth: 0
Flags: HW
LayerCount: 2
Fore
SplineSet
315 -26 m 4
 314.2890625 -7.986328125 302.327148438 25 264 25 c 7
 225.672851562 25 236.379882812 -15.841796875 236 -32 c 4
 234 -117 190 -107 190 -129 c 7
 190 -144.637695312 194.5 -147 204 -147 c 4
 242 -147 318 -102 315 -26 c 4
336 600 m 3
 197.942041157 600 40 486.41796875 40 284 c 3
 40 75.51953125 120 0 314 0 c 3
 490 0 550 100 550 136 c 3
 550 163.228515625 549.268554688 172 514 172 c 3
 453.966675921 172 498.009803686 60 294 60 c 3
 235.965527486 60 102 75.9580078125 102 266 c 3
 102 406.014648438 213.334960938 537 322 537 c 3
 502.024998264 537 441.966675921 430 502 430 c 3
 531.23046875 430 530 455.453125 530 482 c 3
 530 533.1953125 462 600 336 600 c 3
EndSplineSet
Validated: 37
EndChar

StartChar: Egrave
Encoding: 200 200 122
Width: 376
VWidth: 0
Flags: HW
LayerCount: 2
Fore
SplineSet
256 663 m 7
 256 680 251.772460938 684.591796875 234 707 c 4
 211 736 168 785 128 785 c 7
 116.208984375 785 107 769.2421875 107 759 c 7
 107 717.890625 143.231445312 697.6953125 188 663 c 4
 228 632 256 647.8671875 256 663 c 7
295 0 m 3
 240.66796875 0 146.454101562 0.443359375 97 0.443359375 c 3
 69.8994140625 0.443359375 53.6669921875 0.60546875 46 48 c 0
 35 116 37.0751953125 181.005859375 31 288 c 0
 24.9736328125 394.130859375 25 411.7421875 25 546 c 3
 25 571.31640625 53.16015625 585.0234375 85 592.284179688 c 0
 112.325195312 598.515625 165.778320312 606 202 606 c 3
 307.170898438 606 366 605 366 566 c 3
 366 546.249023438 356.637695312 534 336 534 c 3
 316.895507812 534 314 541 198 544 c 1
 133.266601562 544 121 534 99 526 c 1
 99 482.107421875 93.54296875 492.10546875 96 447 c 0
 96.8857421875 430.745117188 102 372 107 340 c 1
 158 348 304.831054688 352 310 352 c 3
 364 352 372 344 372 300 c 3
 372 268.1171875 278.358398438 282 228 282 c 27
 178.633789062 282 117 273 101 268 c 1
 105.961914062 243.953125 102 210 110 148 c 0
 114.362304688 114.194335938 116.038085938 88.7626953125 115 68 c 1
 131 69 174.947265625 70 213 70 c 3
 334.037109375 70 376 69.013671875 376 32 c 3
 376 0 362 0 295 0 c 3
EndSplineSet
Validated: 41
EndChar

StartChar: Eacute
Encoding: 201 201 123
Width: 376
VWidth: 0
Flags: HW
LayerCount: 2
Fore
SplineSet
149 728 m 4
 131.112304688 685.267578125 109.982421875 633 138 633 c 7
 159 633 181 654 212 705 c 4
 212 705 249 781 226 782 c 4
 179.034179688 784.041992188 167 771 149 728 c 4
295 0 m 3
 240.66796875 0 146.454101562 0.443359375 97 0.443359375 c 3
 69.8994140625 0.443359375 53.6669921875 0.60546875 46 48 c 0
 35 116 37.0751953125 181.005859375 31 288 c 0
 24.9736328125 394.130859375 25 411.7421875 25 546 c 3
 25 571.31640625 53.16015625 585.0234375 85 592.284179688 c 0
 112.325195312 598.515625 165.778320312 606 202 606 c 3
 307.170898438 606 366 605 366 566 c 3
 366 546.249023438 356.637695312 534 336 534 c 3
 316.895507812 534 314 541 198 544 c 1
 133.266601562 544 121 534 99 526 c 1
 99 482.107421875 93.54296875 492.10546875 96 447 c 0
 96.8857421875 430.745117188 102 372 107 340 c 1
 158 348 304.831054688 352 310 352 c 3
 364 352 372 344 372 300 c 3
 372 268.1171875 278.358398438 282 228 282 c 27
 178.633789062 282 117 273 101 268 c 1
 105.961914062 243.953125 102 210 110 148 c 0
 114.362304688 114.194335938 116.038085938 88.7626953125 115 68 c 1
 131 69 174.947265625 70 213 70 c 3
 334.037109375 70 376 69.013671875 376 32 c 3
 376 0 362 0 295 0 c 3
EndSplineSet
Validated: 41
EndChar

StartChar: Ecircumflex
Encoding: 202 202 124
Width: 376
VWidth: 0
Flags: HW
LayerCount: 2
Fore
SplineSet
293 681 m 0
 323.525390625 639.069335938 307.137695312 620.604492188 284 633 c 0
 256 648 230 671 192 699 c 1
 162 667 129 651 104 631 c 0
 94.046875 623.037109375 44 609 84 665 c 0
 174.44140625 791.618164062 202 806 293 681 c 0
295 0 m 3
 240.66796875 0 146.454101562 0.443359375 97 0.443359375 c 3
 69.8994140625 0.443359375 53.6669921875 0.60546875 46 48 c 0
 35 116 37.0751953125 181.005859375 31 288 c 0
 24.9736328125 394.130859375 25 411.7421875 25 546 c 3
 25 571.31640625 53.16015625 585.0234375 85 592.284179688 c 0
 112.325195312 598.515625 165.778320312 606 202 606 c 3
 307.170898438 606 366 605 366 566 c 3
 366 546.249023438 356.637695312 534 336 534 c 3
 316.895507812 534 314 541 198 544 c 1
 133.266601562 544 121 534 99 526 c 1
 99 482.107421875 93.54296875 492.10546875 96 447 c 0
 96.8857421875 430.745117188 102 372 107 340 c 1
 158 348 304.831054688 352 310 352 c 3
 364 352 372 344 372 300 c 3
 372 268.1171875 278.358398438 282 228 282 c 27
 178.633789062 282 117 273 101 268 c 1
 105.961914062 243.953125 102 210 110 148 c 0
 114.362304688 114.194335938 116.038085938 88.7626953125 115 68 c 1
 131 69 174.947265625 70 213 70 c 3
 334.037109375 70 376 69.013671875 376 32 c 3
 376 0 362 0 295 0 c 3
EndSplineSet
EndChar

StartChar: Edieresis
Encoding: 203 203 125
Width: 376
VWidth: 0
Flags: HW
LayerCount: 2
Fore
SplineSet
222 692 m 7
 222 655.297851562 251.977539062 649 274 649 c 7
 292 649 315 662 316 691 c 4
 316.987304688 719.618164062 305.01953125 744 279 744 c 7
 262.875 744 222 728.400390625 222 692 c 7
76 704 m 4
 65.9169921875 668.709960938 88.9775390625 643 111 643 c 7
 141.510742188 643 156.61328125 674.86328125 165 714 c 4
 171 742 159.01953125 756 133 756 c 7
 116.875 756 86 739 76 704 c 4
295 0 m 3
 240.66796875 0 146.454101562 0.443359375 97 0.443359375 c 3
 69.8994140625 0.443359375 53.6669921875 0.60546875 46 48 c 0
 35 116 37.0751953125 181.005859375 31 288 c 0
 24.9736328125 394.130859375 25 411.7421875 25 546 c 3
 25 571.31640625 53.16015625 585.0234375 85 592.284179688 c 0
 112.325195312 598.515625 165.778320312 606 202 606 c 3
 307.170898438 606 366 605 366 566 c 3
 366 546.249023438 356.637695312 534 336 534 c 3
 316.895507812 534 314 541 198 544 c 1
 133.266601562 544 121 534 99 526 c 1
 99 482.107421875 93.54296875 492.10546875 96 447 c 0
 96.8857421875 430.745117188 102 372 107 340 c 1
 158 348 304.831054688 352 310 352 c 3
 364 352 372 344 372 300 c 3
 372 268.1171875 278.358398438 282 228 282 c 27
 178.633789062 282 117 273 101 268 c 1
 105.961914062 243.953125 102 210 110 148 c 0
 114.362304688 114.194335938 116.038085938 88.7626953125 115 68 c 1
 131 69 174.947265625 70 213 70 c 3
 334.037109375 70 376 69.013671875 376 32 c 3
 376 0 362 0 295 0 c 3
EndSplineSet
Validated: 41
EndChar

StartChar: Igrave
Encoding: 204 204 126
Width: 135
VWidth: 0
Flags: HW
LayerCount: 2
Fore
SplineSet
151 653 m 3
 151 670 146.772460938 674.591796875 129 697 c 0
 106 726 63 775 23 775 c 3
 11.208984375 775 2 759.2421875 2 749 c 3
 2 707.890625 38.2314453125 687.6953125 83 653 c 0
 123 622 151 637.8671875 151 653 c 3
130 147 m 0
 135.752929688 37.693359375 141 7 101 3 c 1
 73.8994140625 3 60.6667682677 3.60543252713 53 48 c 0
 41.2775301556 115.879184591 40.7197265625 131.188476562 37 238 c 0
 35.2890625 287.1328125 35 420.5859375 35 480 c 3
 35 527.336148591 43.8369140625 592.719726562 76 594 c 0
 98.0048828125 594.875976562 117 586.604492188 117 574 c 3
 117 527.493164062 116 438 116 385 c 0
 116 328.919921875 126 223 130 147 c 0
EndSplineSet
EndChar

StartChar: Iacute
Encoding: 205 205 127
Width: 137
VWidth: 0
Flags: HW
LayerCount: 2
Fore
SplineSet
42 726 m 0
 24.1123046875 683.267578125 2.982421875 631 31 631 c 3
 52 631 74 652 105 703 c 0
 105 703 142 779 119 780 c 0
 72.0341796875 782.041992188 60 769 42 726 c 0
130 147 m 0
 135.752929688 37.693359375 141 7 101 3 c 1
 73.8994140625 3 60.6667682677 3.60543252713 53 48 c 0
 41.2775301556 115.879184591 40.7197265625 131.188476562 37 238 c 0
 35.2890625 287.1328125 35 420.5859375 35 480 c 3
 35 527.336148591 43.8369140625 592.719726562 76 594 c 0
 98.0048828125 594.875976562 117 586.604492188 117 574 c 3
 117 527.493164062 116 438 116 385 c 0
 116 328.919921875 126 223 130 147 c 0
EndSplineSet
EndChar

StartChar: Icircumflex
Encoding: 206 206 128
Width: 134
VWidth: 0
Flags: HW
LayerCount: 2
Fore
SplineSet
176 673 m 0
 206.525390625 631.069335938 190.137695312 612.604492188 167 625 c 0
 139 640 113 663 75 691 c 1
 45 659 12 643 -13 623 c 0
 -22.953125 615.037109375 -73 601 -33 657 c 0
 57.44140625 783.618164062 85 798 176 673 c 0
130 147 m 0
 135.752929688 37.693359375 141 7 101 3 c 1
 73.8994140625 3 60.6667682677 3.60543252713 53 48 c 0
 41.2775301556 115.879184591 40.7197265625 131.188476562 37 238 c 0
 35.2890625 287.1328125 35 420.5859375 35 480 c 3
 35 527.336148591 43.8369140625 592.719726562 76 594 c 0
 98.0048828125 594.875976562 117 586.604492188 117 574 c 3
 117 527.493164062 116 438 116 385 c 0
 116 328.919921875 126 223 130 147 c 0
EndSplineSet
EndChar

StartChar: Idieresis
Encoding: 207 207 129
Width: 131
VWidth: 0
Flags: HW
LayerCount: 2
Fore
SplineSet
107 686 m 3
 107 649.297851562 136.977539062 643 159 643 c 3
 177 643 200 656 201 685 c 0
 201.987304688 713.618164062 190.01953125 738 164 738 c 3
 147.875 738 107 722.400390625 107 686 c 3
-39 698 m 0
 -49.0830078125 662.709960938 -26.0224609375 637 -4 637 c 3
 26.5107421875 637 41.61328125 668.86328125 50 708 c 0
 56 736 44.01953125 750 18 750 c 3
 1.875 750 -29 733 -39 698 c 0
130 147 m 0
 135.752929688 37.693359375 141 7 101 3 c 1
 73.8994140625 3 60.6667682677 3.60543252713 53 48 c 0
 41.2775301556 115.879184591 40.7197265625 131.188476562 37 238 c 0
 35.2890625 287.1328125 35 420.5859375 35 480 c 3
 35 527.336148591 43.8369140625 592.719726562 76 594 c 0
 98.0048828125 594.875976562 117 586.604492188 117 574 c 3
 117 527.493164062 116 438 116 385 c 0
 116 328.919921875 126 223 130 147 c 0
EndSplineSet
EndChar

StartChar: Ntilde
Encoding: 209 209 130
Width: 384
VWidth: 0
Flags: HW
LayerCount: 2
Fore
SplineSet
284 730 m 4
 249.587890625 713.213867188 216.510742188 710.489257812 203 724 c 4
 167.0546875 759.9453125 103.7890625 727.538085938 87 703 c 4
 61 665 73 657 99 671 c 4
 125.932617188 685.501953125 153 701 187 677 c 4
 209.889648438 660.842773438 256.948242188 659.948242188 278 681 c 4
 304 707 325 750 284 730 c 4
75 594 m 3
 48.6941071241 594 26 592 26 546 c 3
 26 411.7421875 23.9736328125 394.130859375 30 288 c 0
 36.0751953125 181.005859375 33 116 44 48 c 0
 51.6669921875 0.60546875 70.8994140625 3 101 3 c 1
 141 7 123 52 113 148 c 0
 101.620262046 257.245484357 98.9619140625 457.953125 94 482 c 1
 94 482 142 399 189 255 c 0
 279.858398438 -23.375 306.457223692 29 362 29 c 3
 393.112698372 29 398.01269304 69.9355534592 398 101 c 0
 397.939498068 249.070047998 395.736574088 357.58025289 388 504 c 0
 384.660796583 567.196618337 386.11234224 619 346 619 c 3
 303.846624626 619 304 612.465820312 304 583 c 3
 304 469.642159512 331 374 318 144 c 1
 302 166 268.252929688 269.141601562 257 296 c 0
 228.705078125 363.532226562 217.71875 413.392578125 166 529 c 0
 149 567 140 594 75 594 c 3
EndSplineSet
Validated: 41
EndChar

StartChar: Ograve
Encoding: 210 210 131
Width: 470
VWidth: 0
Flags: HW
LayerCount: 2
Fore
SplineSet
334 662 m 7
 334 679 329.772460938 683.591796875 312 706 c 4
 289 735 246 784 206 784 c 7
 194.208984375 784 185 768.2421875 185 758 c 7
 185 716.890625 221.231445312 696.6953125 266 662 c 4
 306 631 334 646.8671875 334 662 c 7
276 537 m 3
 439.012695312 537 434 372.640625 434 277 c 3
 434 155.93359375 322 62 236 62 c 3
 117.93359375 62 80 129 88 262 c 0
 91.4906916108 320.032748029 120.888671875 537 276 537 c 3
270 604 m 3
 79.9892578125 604 24 348 24 276 c 0
 24 74 51 0 236 0 c 3
 388 0 493 139.986207553 493 285 c 3
 493 396.364257812 513.032919581 604 270 604 c 3
EndSplineSet
Validated: 41
EndChar

StartChar: Oacute
Encoding: 211 211 132
Width: 470
VWidth: 0
Flags: HW
LayerCount: 2
Fore
SplineSet
231 727 m 4
 213.112304688 684.267578125 191.982421875 632 220 632 c 7
 241 632 263 653 294 704 c 4
 294 704 331 780 308 781 c 4
 261.034179688 783.041992188 249 770 231 727 c 4
276 537 m 3
 439.012695312 537 434 372.640625 434 277 c 3
 434 155.93359375 322 62 236 62 c 3
 117.93359375 62 80 129 88 262 c 0
 91.4906916108 320.032748029 120.888671875 537 276 537 c 3
270 604 m 3
 79.9892578125 604 24 348 24 276 c 0
 24 74 51 0 236 0 c 3
 388 0 493 139.986207553 493 285 c 3
 493 396.364257812 513.032919581 604 270 604 c 3
EndSplineSet
Validated: 41
EndChar

StartChar: Ocircumflex
Encoding: 212 212 133
Width: 470
VWidth: 0
Flags: HW
LayerCount: 2
Fore
SplineSet
365 682 m 4
 395.525390625 640.069335938 379.137695312 621.604492188 356 634 c 4
 328 649 302 672 264 700 c 5
 234 668 201 652 176 632 c 4
 166.046875 624.037109375 116 610 156 666 c 4
 246.44140625 792.618164062 274 807 365 682 c 4
276 537 m 3
 439.012695312 537 434 372.640625 434 277 c 3
 434 155.93359375 322 62 236 62 c 3
 117.93359375 62 80 129 88 262 c 0
 91.4906916108 320.032748029 120.888671875 537 276 537 c 3
270 604 m 3
 79.9892578125 604 24 348 24 276 c 0
 24 74 51 0 236 0 c 3
 388 0 493 139.986207553 493 285 c 3
 493 396.364257812 513.032919581 604 270 604 c 3
EndSplineSet
EndChar

StartChar: Otilde
Encoding: 213 213 134
Width: 470
VWidth: 0
Flags: HW
LayerCount: 2
Fore
SplineSet
284 694 m 7
 284 657.297851562 313.977539062 651 336 651 c 7
 354 651 377 664 378 693 c 4
 378.987304688 721.618164062 367.01953125 746 341 746 c 7
 324.875 746 284 730.400390625 284 694 c 7
138 706 m 4
 127.916992188 670.709960938 150.977539062 645 173 645 c 7
 203.510742188 645 218.61328125 676.86328125 227 716 c 4
 233 744 221.01953125 758 195 758 c 7
 178.875 758 148 741 138 706 c 4
276 537 m 3
 439.012695312 537 434 372.640625 434 277 c 3
 434 155.93359375 322 62 236 62 c 3
 117.93359375 62 80 129 88 262 c 0
 91.4906916108 320.032748029 120.888671875 537 276 537 c 3
270 604 m 3
 79.9892578125 604 24 348 24 276 c 0
 24 74 51 0 236 0 c 3
 388 0 493 139.986207553 493 285 c 3
 493 396.364257812 513.032919581 604 270 604 c 3
EndSplineSet
EndChar

StartChar: Odieresis
Encoding: 214 214 135
Width: 470
VWidth: 0
Flags: HW
LayerCount: 2
Fore
SplineSet
302 689 m 7
 302 652.297851562 331.977539062 646 354 646 c 7
 372 646 395 659 396 688 c 4
 396.987304688 716.618164062 385.01953125 741 359 741 c 7
 342.875 741 302 725.400390625 302 689 c 7
156 701 m 4
 145.916992188 665.709960938 168.977539062 640 191 640 c 7
 221.510742188 640 236.61328125 671.86328125 245 711 c 4
 251 739 239.01953125 753 213 753 c 7
 196.875 753 166 736 156 701 c 4
276 537 m 3
 439.012695312 537 434 372.640625 434 277 c 3
 434 155.93359375 322 62 236 62 c 3
 117.93359375 62 80 129 88 262 c 0
 91.4906916108 320.032748029 120.888671875 537 276 537 c 3
270 604 m 3
 79.9892578125 604 24 348 24 276 c 0
 24 74 51 0 236 0 c 3
 388 0 493 139.986207553 493 285 c 3
 493 396.364257812 513.032919581 604 270 604 c 3
EndSplineSet
Validated: 41
EndChar

StartChar: Oslash
Encoding: 216 216 136
Width: 470
VWidth: 0
Flags: HW
LayerCount: 2
Fore
SplineSet
267 413 m 0
 225 335 148.682617188 210.228515625 116 149 c 0
 37 1 17.708984375 1 93 1 c 3
 138 1 153.372070312 53.662109375 261 245 c 0
 333 373 366.249023438 437.596679688 395 489 c 0
 461 607 449.055664062 601 413 601 c 3
 358 601 369.4375 603.241210938 267 413 c 0
276 537 m 3
 439.012695312 537 434 372.640625 434 277 c 3
 434 155.93359375 322 62 236 62 c 3
 117.93359375 62 80 129 88 262 c 0
 91.4906916108 320.032748029 120.888671875 537 276 537 c 3
270 604 m 3
 79.9892578125 604 24 348 24 276 c 0
 24 74 51 0 236 0 c 3
 388 0 493 139.986207553 493 285 c 3
 493 396.364257812 513.032919581 604 270 604 c 3
EndSplineSet
Validated: 37
EndChar

StartChar: Ugrave
Encoding: 217 217 137
Width: 428
VWidth: 0
Flags: HW
LayerCount: 2
Fore
SplineSet
278 643 m 3
 278 660 273.772460938 664.591796875 256 687 c 0
 233 716 190 765 150 765 c 3
 138.208984375 765 129 749.2421875 129 739 c 3
 129 697.890625 165.231445312 677.6953125 210 643 c 0
 250 612 278 627.8671875 278 643 c 3
444 285 m 3
 444 61.9912109375 372 0 220 0 c 3
 8 0 31 109 31 276 c 3
 31 366.645507812 25.126953125 594 60 594 c 3
 120.215820312 594 116 562.221679688 116 526 c 3
 116 491.82421875 93 262 93 262 c 3
 93 148.783203125 113.958007812 62 220 62 c 3
 342.016601562 62 394.685546875 146.508789062 360 437 c 0
 352 504 319.807617188 585 385 585 c 3
 432.04296875 585 444 480.369140625 444 285 c 3
EndSplineSet
EndChar

StartChar: Uacute
Encoding: 218 218 138
Width: 432
VWidth: 0
Flags: HW
LayerCount: 2
Fore
SplineSet
199 722 m 0
 181.112304688 679.267578125 159.982421875 627 188 627 c 3
 209 627 231 648 262 699 c 0
 262 699 299 775 276 776 c 0
 229.034179688 778.041992188 217 765 199 722 c 0
444 285 m 3
 444 61.9912109375 372 0 220 0 c 3
 8 0 31 109 31 276 c 3
 31 366.645507812 25.126953125 594 60 594 c 3
 120.215820312 594 116 562.221679688 116 526 c 3
 116 491.82421875 93 262 93 262 c 3
 93 148.783203125 113.958007812 62 220 62 c 3
 342.016601562 62 394.685546875 146.508789062 360 437 c 0
 352 504 319.807617188 585 385 585 c 3
 432.04296875 585 444 480.369140625 444 285 c 3
EndSplineSet
EndChar

StartChar: Ucircumflex
Encoding: 219 219 139
Width: 430
VWidth: 0
Flags: HW
LayerCount: 2
Fore
SplineSet
337 681 m 0
 367.525390625 639.069335938 351.137695312 620.604492188 328 633 c 0
 300 648 274 671 236 699 c 1
 206 667 173 651 148 631 c 0
 138.046875 623.037109375 88 609 128 665 c 0
 218.44140625 791.618164062 246 806 337 681 c 0
444 285 m 3
 444 61.9912109375 372 0 220 0 c 3
 8 0 31 109 31 276 c 3
 31 366.645507812 25.126953125 594 60 594 c 3
 120.215820312 594 116 562.221679688 116 526 c 3
 116 491.82421875 93 262 93 262 c 3
 93 148.783203125 113.958007812 62 220 62 c 3
 342.016601562 62 394.685546875 146.508789062 360 437 c 0
 352 504 319.807617188 585 385 585 c 3
 432.04296875 585 444 480.369140625 444 285 c 3
EndSplineSet
EndChar

StartChar: Udieresis
Encoding: 220 220 140
Width: 426
VWidth: 0
Flags: HW
LayerCount: 2
Fore
SplineSet
258 690 m 3
 258 653.297851562 287.977539062 647 310 647 c 3
 328 647 351 660 352 689 c 0
 352.987304688 717.618164062 341.01953125 742 315 742 c 3
 298.875 742 258 726.400390625 258 690 c 3
112 702 m 0
 101.916992188 666.709960938 124.977539062 641 147 641 c 3
 177.510742188 641 192.61328125 672.86328125 201 712 c 0
 207 740 195.01953125 754 169 754 c 3
 152.875 754 122 737 112 702 c 0
444 285 m 3
 444 61.9912109375 372 0 220 0 c 3
 8 0 31 109 31 276 c 3
 31 366.645507812 25.126953125 594 60 594 c 3
 120.215820312 594 116 562.221679688 116 526 c 3
 116 491.82421875 93 262 93 262 c 3
 93 148.783203125 113.958007812 62 220 62 c 3
 342.016601562 62 394.685546875 146.508789062 360 437 c 0
 352 504 319.807617188 585 385 585 c 3
 432.04296875 585 444 480.369140625 444 285 c 3
EndSplineSet
EndChar

StartChar: Yacute
Encoding: 221 221 141
Width: 590
VWidth: 0
Flags: HW
LayerCount: 2
Fore
SplineSet
292 717 m 4
 274.112304688 674.267578125 252.982421875 622 281 622 c 7
 302 622 324 643 355 694 c 4
 355 694 392 770 369 771 c 4
 322.034179688 773.041992188 310 760 292 717 c 4
273 292 m 1
 245 328 215 394 175 478 c 0
 122.203876242 588.871859893 102.533590966 602 159 602 c 3
 213 602 204.746214702 596.387533119 242 516 c 0
 262.612021095 471.522653197 302.1015625 399.4375 313 382 c 1
 321.599609375 400.918945312 355.72947291 457.567156657 391 514 c 0
 431 578 443.619140625 599.92578125 469 599.92578125 c 3
 541.241210938 599.92578125 532.005805024 596.960150309 453 460 c 0
 408.03301009 382.04768124 379 333 354 293 c 1
 354 191.125976562 354.216796875 161.887695312 355 147 c 0
 360.752929688 37.693359375 375 7 335 3 c 1
 307.899414062 3 281.666992188 3.60546875 278 48 c 0
 272.329101562 116.650390625 276.719466627 85.1884675105 273 192 c 0
 271.2890625 241.1328125 275 126 273 292 c 1
EndSplineSet
Validated: 41
EndChar

StartChar: germandbls
Encoding: 223 223 142
Width: 793
VWidth: 0
Flags: HW
LayerCount: 2
Fore
SplineSet
650 67 m 1
 668 88 677 95.90625 677 144 c 3
 677 246.004882812 552 229 492 292 c 0
 476.681640625 308.084960938 465.2578125 352 441 352 c 3
 416.106445312 352 401 327.008789062 401 304 c 3
 401 263.477539062 445.704101562 276.2265625 429 225 c 0
 414 179 387 125.279296875 387 109 c 3
 387 102 385.944335938 98 395 98 c 3
 424.017578125 98 475 194 477 237 c 1
 542 180 617 196.075195312 617 136 c 3
 617 91.6552734375 559.01171875 51 517 51 c 3
 473 51 471.909179688 86 452 86 c 3
 441.076171875 86 419 76.64453125 419 64 c 3
 419 19.8974609375 481.981445312 0 509 0 c 3
 580 0 596 21 615 32 c 1
 633 11 655 0 689 0 c 3
 768.227539062 0 812 101.796875 812 124 c 3
 812 130.708007812 809.15625 132 800 132 c 3
 780.764648438 132 773.025390625 48 693 48 c 3
 682.950195312 48 664 55 650 67 c 1
253 67 m 1
 271 88 280 95.9063413744 280 144 c 3
 280 246.004901843 155 229 95 292 c 0
 79.6811648751 308.084776881 68.2578125 352 44 352 c 3
 19.1064453125 352 4 327.008789062 4 304 c 3
 4 263.477539062 48.7043532666 276.226683351 32 225 c 0
 17 179 -10 125.279296875 -10 109 c 3
 -10 102 -11.0556640625 98 -2 98 c 3
 27.017578125 98 78 194 80 237 c 1
 145 180 220 196.074953184 220 136 c 3
 220 91.6553602479 162.011903075 51 120 51 c 3
 76 51 74.9091796875 86 55 86 c 3
 44.076171875 86 22 76.64453125 22 64 c 3
 22 19.8978458576 84.9814453125 0 112 0 c 3
 183 0 199 21 218 32 c 1
 236 11 258 0 292 0 c 3
 371.227520471 0 415 101.796875 415 124 c 3
 415 130.708007812 412.15625 132 403 132 c 3
 383.764648438 132 376.024996095 48 296 48 c 3
 285.950195312 48 267 55 253 67 c 1
EndSplineSet
Validated: 37
EndChar

StartChar: agrave
Encoding: 224 224 143
Width: 425
VWidth: 0
Flags: HW
LayerCount: 2
Fore
SplineSet
269 430 m 7
 269 447 264.772460938 451.591796875 247 474 c 4
 224 503 181 552 141 552 c 7
 129.208984375 552 120 536.2421875 120 526 c 7
 120 484.890625 156.231445312 464.6953125 201 430 c 4
 241 399 269 414.8671875 269 430 c 7
196 288 m 3
 123.716342261 288 52 216.06919394 52 151 c 3
 52 82.933855699 99.9912109375 55 159 55 c 3
 216.008789062 55 242.380204217 101.108405204 253 160 c 0
 264 221 270 272 271 283 c 1
 253 269 225.313476562 288 196 288 c 3
394 98 m 0
 413.268554688 115.712890625 424.972243623 139 443 139 c 3
 468.452854621 139 457 137.958007812 457 129 c 3
 457 102.980776337 389 0 290 0 c 3
 271.33296571 0 258 16 250 28 c 1
 215 -4 174.684158984 0 152 0 c 3
 54 0 0 51 0 144 c 3
 0 256.286132812 92.1360332674 340 195 340 c 3
 234 340 264 339 275 313 c 1
 283 329 295.834960938 328 308 328 c 3
 326 328 331.677734375 299 325 255 c 0
 316.697265625 200.291992188 303.965459917 130.288287334 300 106 c 0
 294.995521236 75.3477627559 302.925974039 60.2699536162 316.999999386 60.2699536162 c 3
 338.134475956 60.2699536162 371.798940498 77.590946383 394 98 c 0
EndSplineSet
Validated: 41
EndChar

StartChar: aacute
Encoding: 225 225 144
Width: 425
VWidth: 0
Flags: HW
LayerCount: 2
Fore
SplineSet
186 519 m 4
 168.112304688 476.267578125 146.982421875 424 175 424 c 7
 196 424 218 445 249 496 c 4
 249 496 286 572 263 573 c 4
 216.034179688 575.041992188 204 562 186 519 c 4
196 288 m 3
 123.716342261 288 52 216.06919394 52 151 c 3
 52 82.933855699 99.9912109375 55 159 55 c 3
 216.008789062 55 242.380204217 101.108405204 253 160 c 0
 264 221 270 272 271 283 c 1
 253 269 225.313476562 288 196 288 c 3
394 98 m 0
 413.268554688 115.712890625 424.972243623 139 443 139 c 3
 468.452854621 139 457 137.958007812 457 129 c 3
 457 102.980776337 389 0 290 0 c 3
 271.33296571 0 258 16 250 28 c 1
 215 -4 174.684158984 0 152 0 c 3
 54 0 0 51 0 144 c 3
 0 256.286132812 92.1360332674 340 195 340 c 3
 234 340 264 339 275 313 c 1
 283 329 295.834960938 328 308 328 c 3
 326 328 331.677734375 299 325 255 c 0
 316.697265625 200.291992188 303.965459917 130.288287334 300 106 c 0
 294.995521236 75.3477627559 302.925974039 60.2699536162 316.999999386 60.2699536162 c 3
 338.134475956 60.2699536162 371.798940498 77.590946383 394 98 c 0
EndSplineSet
Validated: 41
EndChar

StartChar: acircumflex
Encoding: 226 226 145
Width: 425
VWidth: 0
Flags: HW
LayerCount: 2
Fore
SplineSet
294 426 m 4
 324.525390625 384.069335938 308.137695312 365.604492188 285 378 c 4
 257 393 231 416 193 444 c 5
 163 412 130 396 105 376 c 4
 95.046875 368.037109375 45 354 85 410 c 4
 175.44140625 536.618164062 203 551 294 426 c 4
196 288 m 3
 123.716342261 288 52 216.06919394 52 151 c 3
 52 82.933855699 99.9912109375 55 159 55 c 3
 216.008789062 55 242.380204217 101.108405204 253 160 c 0
 264 221 270 272 271 283 c 1
 253 269 225.313476562 288 196 288 c 3
394 98 m 0
 413.268554688 115.712890625 424.972243623 139 443 139 c 3
 468.452854621 139 457 137.958007812 457 129 c 3
 457 102.980776337 389 0 290 0 c 3
 271.33296571 0 258 16 250 28 c 1
 215 -4 174.684158984 0 152 0 c 3
 54 0 0 51 0 144 c 3
 0 256.286132812 92.1360332674 340 195 340 c 3
 234 340 264 339 275 313 c 1
 283 329 295.834960938 328 308 328 c 3
 326 328 331.677734375 299 325 255 c 0
 316.697265625 200.291992188 303.965459917 130.288287334 300 106 c 0
 294.995521236 75.3477627559 302.925974039 60.2699536162 316.999999386 60.2699536162 c 3
 338.134475956 60.2699536162 371.798940498 77.590946383 394 98 c 0
EndSplineSet
Validated: 33
EndChar

StartChar: atilde
Encoding: 227 227 146
Width: 425
VWidth: 0
Flags: HW
LayerCount: 2
Fore
SplineSet
298 485 m 4
 263.587890625 468.213867188 230.510742188 465.489257812 217 479 c 4
 181.0546875 514.9453125 117.7890625 482.538085938 101 458 c 4
 75 420 87 412 113 426 c 4
 139.932617188 440.501953125 167 456 201 432 c 4
 223.889648438 415.842773438 270.948242188 414.948242188 292 436 c 4
 318 462 339 505 298 485 c 4
196 288 m 3
 123.716342261 288 52 216.06919394 52 151 c 3
 52 82.933855699 99.9912109375 55 159 55 c 3
 216.008789062 55 242.380204217 101.108405204 253 160 c 0
 264 221 270 272 271 283 c 1
 253 269 225.313476562 288 196 288 c 3
394 98 m 0
 413.268554688 115.712890625 424.972243623 139 443 139 c 3
 468.452854621 139 457 137.958007812 457 129 c 3
 457 102.980776337 389 0 290 0 c 3
 271.33296571 0 258 16 250 28 c 1
 215 -4 174.684158984 0 152 0 c 3
 54 0 0 51 0 144 c 3
 0 256.286132812 92.1360332674 340 195 340 c 3
 234 340 264 339 275 313 c 1
 283 329 295.834960938 328 308 328 c 3
 326 328 331.677734375 299 325 255 c 0
 316.697265625 200.291992188 303.965459917 130.288287334 300 106 c 0
 294.995521236 75.3477627559 302.925974039 60.2699536162 316.999999386 60.2699536162 c 3
 338.134475956 60.2699536162 371.798940498 77.590946383 394 98 c 0
EndSplineSet
Validated: 41
EndChar

StartChar: adieresis
Encoding: 228 228 147
Width: 425
VWidth: 0
Flags: HW
LayerCount: 2
Fore
SplineSet
219 443 m 7
 219 406.297851562 248.977539062 400 271 400 c 7
 289 400 312 413 313 442 c 4
 313.987304688 470.618164062 302.01953125 495 276 495 c 7
 259.875 495 219 479.400390625 219 443 c 7
73 455 m 4
 62.9169921875 419.709960938 85.9775390625 394 108 394 c 7
 138.510742188 394 153.61328125 425.86328125 162 465 c 4
 168 493 156.01953125 507 130 507 c 7
 113.875 507 83 490 73 455 c 4
196 288 m 3
 123.716342261 288 52 216.06919394 52 151 c 3
 52 82.933855699 99.9912109375 55 159 55 c 3
 216.008789062 55 242.380204217 101.108405204 253 160 c 0
 264 221 270 272 271 283 c 1
 253 269 225.313476562 288 196 288 c 3
394 98 m 0
 413.268554688 115.712890625 424.972243623 139 443 139 c 3
 468.452854621 139 457 137.958007812 457 129 c 3
 457 102.980776337 389 0 290 0 c 3
 271.33296571 0 258 16 250 28 c 1
 215 -4 174.684158984 0 152 0 c 3
 54 0 0 51 0 144 c 3
 0 256.286132812 92.1360332674 340 195 340 c 3
 234 340 264 339 275 313 c 1
 283 329 295.834960938 328 308 328 c 3
 326 328 331.677734375 299 325 255 c 0
 316.697265625 200.291992188 303.965459917 130.288287334 300 106 c 0
 294.995521236 75.3477627559 302.925974039 60.2699536162 316.999999386 60.2699536162 c 3
 338.134475956 60.2699536162 371.798940498 77.590946383 394 98 c 0
EndSplineSet
Validated: 41
EndChar

StartChar: aring
Encoding: 229 229 148
Width: 425
VWidth: 0
Flags: HW
LayerCount: 2
Fore
SplineSet
154 482 m 0
 143.916992188 446.709960938 166.977539062 421 189 421 c 3
 219.510742188 421 234.61328125 452.86328125 243 492 c 0
 249 520 237.01953125 534 211 534 c 3
 194.875 534 164 517 154 482 c 0
196 288 m 3
 123.716342261 288 52 216.06919394 52 151 c 3
 52 82.933855699 99.9912109375 55 159 55 c 3
 216.008789062 55 242.380204217 101.108405204 253 160 c 0
 264 221 270 272 271 283 c 1
 253 269 225.313476562 288 196 288 c 3
394 98 m 0
 413.268554688 115.712890625 424.972243623 139 443 139 c 3
 468.452854621 139 457 137.958007812 457 129 c 3
 457 102.980776337 389 0 290 0 c 3
 271.33296571 0 258 16 250 28 c 1
 215 -4 174.684158984 0 152 0 c 3
 54 0 0 51 0 144 c 3
 0 256.286132812 92.1360332674 340 195 340 c 3
 234 340 264 339 275 313 c 1
 283 329 295.834960938 328 308 328 c 3
 326 328 331.677734375 299 325 255 c 0
 316.697265625 200.291992188 303.965459917 130.288287334 300 106 c 0
 294.995521236 75.3477627559 302.925974039 60.2699536162 316.999999386 60.2699536162 c 3
 338.134475956 60.2699536162 371.798940498 77.590946383 394 98 c 0
EndSplineSet
EndChar

StartChar: ae
Encoding: 230 230 149
Width: 425
VWidth: 0
Flags: HW
LayerCount: 2
Fore
SplineSet
317 129 m 1
 303 216 399.96875 286 463 286 c 3
 502.05078125 286 540 274.131835938 540 240 c 3
 540 208.91015625 501.224609375 173.485351562 449 151 c 0
 377 120 337 129 317 129 c 1
454 342 m 3
 362.994140625 342 254 260.00390625 254 135 c 3
 254 39.9951171875 327 0 457 0 c 3
 575 0 642 73.986328125 642 111 c 3
 642 119.0625 650.110351562 125 632 125 c 3
 613 125 573.004882812 55 474 55 c 3
 389 55 354 61 331 82 c 1
 385 71 450.130859375 87.7744140625 483 107 c 0
 536 138 601 182.276367188 601 232 c 3
 601 314.005859375 544.022460938 342 454 342 c 3
196 288 m 3
 225.313476562 288 253 269 271 283 c 1
 270 272 264 221 253 160 c 0
 242.380204217 101.108405204 216.008789062 55 159 55 c 3
 99.9912109375 55 52 82.933855699 52 151 c 3
 52 216.06919394 123.716342261 288 196 288 c 3
250 28 m 1
 275.233891674 -5.11948282255 303.0625 -9.564453125 308 15 c 0
 312.454101562 37.162109375 294.871507927 85.9134060461 300 106 c 0
 306.088069871 129.844940327 316.697265625 200.291992188 325 255 c 0
 331.677734375 299 326 328 308 328 c 3
 295.834960938 328 283 329 275 313 c 1
 264 339 234 340 195 340 c 3
 92.1360332674 340 0 256.286132812 0 144 c 3
 0 51 54 0 152 0 c 3
 174.684158984 0 215 -4 250 28 c 1
EndSplineSet
Validated: 37
EndChar

StartChar: ccedilla
Encoding: 231 231 150
Width: 349
VWidth: 0
Flags: HW
LayerCount: 2
Fore
SplineSet
176 -19 m 0
 175.2890625 -0.986328125 163.327148438 32 125 32 c 3
 86.6728515625 32 97.3798828125 -8.841796875 97 -25 c 0
 95 -110 51 -100 51 -122 c 3
 51 -137.637695312 55.5 -140 65 -140 c 0
 103 -140 179 -95 176 -19 c 0
202 341 m 3
 85.71484375 341 0 256.330078125 0 148 c 3
 0 24.0439453125 76 0 180 0 c 3
 289 0 380 73.9100808545 380 124 c 3
 380 141.765625 386.033203125 134 371 134 c 3
 348 134 278.019415646 61 175 61 c 3
 110 61 55 76.9931640625 55 151 c 3
 55 213.393554688 107.9765625 280 193 280 c 3
 216.135742188 280 247.259582897 272.683187696 271 262 c 0
 311 244 314 250 314 277 c 3
 314 313.055664062 241.629882812 341 202 341 c 3
EndSplineSet
Validated: 37
EndChar

StartChar: egrave
Encoding: 232 232 151
Width: 374
VWidth: 0
Flags: HW
LayerCount: 2
Fore
SplineSet
64 129 m 1
 50 216 146.968261963 286 210 286 c 3
 249.05124838 286 287 274.132096332 287 240 c 3
 287 208.91015625 248.224609375 173.485351562 196 151 c 0
 124 120 84 129 64 129 c 1
201 342 m 3
 109.994140625 342 1 260.003999936 1 135 c 3
 1 39.9947369879 74 0 204 0 c 3
 322 0 403 89.9821485478 403 118 c 3
 403 126.0625 411.110351562 132 393 132 c 3
 381.955078125 132 333.040171367 55 221 55 c 3
 136 55 101 61 78 82 c 1
 132 71 197.13074438 87.7745863352 230 107 c 0
 283 138 348 182.276367188 348 232 c 3
 348 314.005859375 291.022460938 342 201 342 c 3
269 430 m 3
 269 447 264.772460938 451.591796875 247 474 c 0
 224 503 181 552 141 552 c 3
 129.208984375 552 120 536.2421875 120 526 c 3
 120 484.890625 156.231445312 464.6953125 201 430 c 0
 241 399 269 414.8671875 269 430 c 3
EndSplineSet
EndChar

StartChar: eacute
Encoding: 233 233 152
Width: 376
VWidth: 0
Flags: HW
LayerCount: 2
Fore
SplineSet
64 129 m 1
 50 216 146.968261963 286 210 286 c 3
 249.05124838 286 287 274.132096332 287 240 c 3
 287 208.91015625 248.224609375 173.485351562 196 151 c 0
 124 120 84 129 64 129 c 1
201 342 m 3
 109.994140625 342 1 260.003999936 1 135 c 3
 1 39.9947369879 74 0 204 0 c 3
 322 0 403 89.9821485478 403 118 c 3
 403 126.0625 411.110351562 132 393 132 c 3
 381.955078125 132 333.040171367 55 221 55 c 3
 136 55 101 61 78 82 c 1
 132 71 197.13074438 87.7745863352 230 107 c 0
 283 138 348 182.276367188 348 232 c 3
 348 314.005859375 291.022460938 342 201 342 c 3
106 487 m 0
 88.1123046875 444.267578125 66.982421875 392 95 392 c 3
 116 392 138 413 169 464 c 0
 169 464 206 540 183 541 c 0
 136.034179688 543.041992188 124 530 106 487 c 0
EndSplineSet
EndChar

StartChar: ecircumflex
Encoding: 234 234 153
Width: 380
VWidth: 0
Flags: HW
LayerCount: 2
Fore
SplineSet
64 129 m 1
 50 216 146.968261963 286 210 286 c 3
 249.05124838 286 287 274.132096332 287 240 c 3
 287 208.91015625 248.224609375 173.485351562 196 151 c 0
 124 120 84 129 64 129 c 1
201 342 m 3
 109.994140625 342 1 260.003999936 1 135 c 3
 1 39.9947369879 74 0 204 0 c 3
 322 0 403 89.9821485478 403 118 c 3
 403 126.0625 411.110351562 132 393 132 c 3
 381.955078125 132 333.040171367 55 221 55 c 3
 136 55 101 61 78 82 c 1
 132 71 197.13074438 87.7745863352 230 107 c 0
 283 138 348 182.276367188 348 232 c 3
 348 314.005859375 291.022460938 342 201 342 c 3
285 431 m 0
 315.525390625 389.069335938 299.137695312 370.604492188 276 383 c 0
 248 398 222 421 184 449 c 1
 154 417 121 401 96 381 c 0
 86.046875 373.037109375 36 359 76 415 c 0
 166.44140625 541.618164062 194 556 285 431 c 0
EndSplineSet
EndChar

StartChar: edieresis
Encoding: 235 235 154
Width: 376
VWidth: 0
Flags: HW
LayerCount: 2
Fore
SplineSet
64 129 m 1
 50 216 146.968261963 286 210 286 c 3
 249.05124838 286 287 274.132096332 287 240 c 3
 287 208.91015625 248.224609375 173.485351562 196 151 c 0
 124 120 84 129 64 129 c 1
201 342 m 3
 109.994140625 342 1 260.003999936 1 135 c 3
 1 39.9947369879 74 0 204 0 c 3
 322 0 403 89.9821485478 403 118 c 3
 403 126.0625 411.110351562 132 393 132 c 3
 381.955078125 132 333.040171367 55 221 55 c 3
 136 55 101 61 78 82 c 1
 132 71 197.13074438 87.7745863352 230 107 c 0
 283 138 348 182.276367188 348 232 c 3
 348 314.005859375 291.022460938 342 201 342 c 3
197 444 m 3
 197 407.297767049 226.977539062 401 249 401 c 3
 267 401 290 414 291 443 c 0
 291.987304688 471.618164062 280.01953125 496 254 496 c 3
 237.875 496 197 480.400549446 197 444 c 3
51 456 m 0
 40.9169921875 420.709960938 63.9775390625 395 86 395 c 3
 116.510742188 395 131.613548018 426.863224084 140 466 c 0
 146 494 134.01953125 508 108 508 c 3
 91.8754845034 508 61.0001279197 490.999963451 51 456 c 0
EndSplineSet
EndChar

StartChar: igrave
Encoding: 236 236 155
Width: 232
VWidth: 0
Flags: HW
LayerCount: 2
Fore
SplineSet
169 411 m 3
 169 428 164.772460938 432.591796875 147 455 c 0
 124 484 81 533 41 533 c 3
 29.208984375 533 20 517.2421875 20 507 c 3
 20 465.890625 56.2314453125 445.6953125 101 411 c 0
 141 380 169 395.8671875 169 411 c 3
89 338 m 3
 122.015625 338 109 295 89 234 c 0
 68.6702743927 171.994336898 39.9101577058 60 129 60 c 3
 176.139648438 60 238.598632812 127 250 127 c 3
 278.16015625 127 260 126.734375 260 120 c 3
 260 89 154 0 110 0 c 3
 -50 0 -0.111419972032 158.029123743 30 273 c 0
 41 315 65.978515625 338 89 338 c 3
EndSplineSet
Validated: 41
EndChar

StartChar: iacute
Encoding: 237 237 156
Width: 232
VWidth: 0
Flags: HW
LayerCount: 2
Fore
SplineSet
76 491 m 4
 58.11207765 448.267741053 36.9821485478 396 65 396 c 7
 86 396 108 417 139 468 c 4
 139 468 176 544 153 545 c 4
 106.033733503 547.042011587 94 534 76 491 c 4
89 338 m 3
 122.015625 338 109 295 89 234 c 0
 68.6702743927 171.994336898 39.9101577058 60 129 60 c 3
 176.139648438 60 238.598632812 127 250 127 c 3
 278.16015625 127 260 126.734375 260 120 c 3
 260 89 154 0 110 0 c 3
 -50 0 -0.111419972032 158.029123743 30 273 c 0
 41 315 65.978515625 338 89 338 c 3
EndSplineSet
Validated: 41
EndChar

StartChar: icircumflex
Encoding: 238 238 157
Width: 232
VWidth: 0
Flags: HW
LayerCount: 2
Fore
SplineSet
196 415 m 4
 226.525390625 373.069335938 210.137695312 354.604492188 187 367 c 4
 159 382 133 405 95 433 c 5
 65 401 32 385 7 365 c 4
 -2.953125 357.037109375 -53 343 -13 399 c 4
 77.44140625 525.618164062 105 540 196 415 c 4
89 338 m 3
 122.015625 338 109 295 89 234 c 0
 68.6702743927 171.994336898 39.9101577058 60 129 60 c 3
 176.139648438 60 238.598632812 127 250 127 c 3
 278.16015625 127 260 126.734375 260 120 c 3
 260 89 154 0 110 0 c 3
 -50 0 -0.111419972032 158.029123743 30 273 c 0
 41 315 65.978515625 338 89 338 c 3
EndSplineSet
Validated: 33
EndChar

StartChar: idieresis
Encoding: 239 239 158
Width: 232
VWidth: 0
Flags: HW
LayerCount: 2
Fore
SplineSet
138 438 m 7
 138 401.297851562 167.977539062 395 190 395 c 7
 208 395 231 408 232 437 c 4
 232.987304688 465.618164062 221.01953125 490 195 490 c 7
 178.875 490 138 474.400390625 138 438 c 7
-8 450 m 4
 -18.0830078125 414.709960938 4.9775390625 389 27 389 c 7
 57.5107421875 389 72.61328125 420.86328125 81 460 c 4
 87 488 75.01953125 502 49 502 c 7
 32.875 502 2 485 -8 450 c 4
89 338 m 3
 122.015625 338 109 295 89 234 c 0
 68.6702743927 171.994336898 39.9101577058 60 129 60 c 3
 176.139648438 60 238.598632812 127 250 127 c 3
 278.16015625 127 260 126.734375 260 120 c 3
 260 89 154 0 110 0 c 3
 -50 0 -0.111419972032 158.029123743 30 273 c 0
 41 315 65.978515625 338 89 338 c 3
EndSplineSet
Validated: 41
EndChar

StartChar: eth
Encoding: 240 240 159
Width: 425
VWidth: 0
Flags: HW
LayerCount: 2
Fore
SplineSet
288 97 m 5
 258 72 223.036351623 58 168 58 c 7
 117.990234375 58 59 77.5859375 59 137 c 7
 59 188.039200621 109 232 126 243 c 5
 126 243 146.233754713 194.654085767 178 160 c 4
 211 124 260 104 288 97 c 5
242 196 m 4
 213.411132812 216.583984375 197 243 186 268 c 5
 204 279 216.776367188 283 237 283 c 7
 313.10546875 283 343 227 320 152 c 5
 292 160 267 178 242 196 c 4
220 336 m 7
 130.94921875 336 1 237.017578125 1 121 c 7
 1 42.9931640625 71 0 175 0 c 7
 241 0 314 15 359 79 c 5
 408 71 460 103 460 127 c 7
 460 138.705078125 455.055664062 140 446 140 c 7
 436.512695312 140 420 125 376 134 c 5
 391 190 424.039211918 336 220 336 c 7
EndSplineSet
EndChar

StartChar: ograve
Encoding: 242 242 160
Width: 423
VWidth: 0
Flags: HW
LayerCount: 2
Fore
SplineSet
288 97 m 1
 258 72 223.036351623 58 168 58 c 3
 117.990234375 58 59 77.5859375 59 137 c 3
 59 188.039200621 109 232 126 243 c 1
 126 243 146.233754713 194.654085767 178 160 c 0
 211 124 260 104 288 97 c 1
242 196 m 0
 213.411132812 216.583984375 197 243 186 268 c 1
 204 279 216.776367188 283 237 283 c 3
 313.10546875 283 343 227 320 152 c 1
 292 160 267 178 242 196 c 0
220 336 m 3
 130.94921875 336 1 237.017578125 1 121 c 3
 1 42.9931640625 71 0 175 0 c 3
 241 0 314 15 359 79 c 1
 408 71 460 103 460 127 c 3
 460 138.705078125 455.055664062 140 446 140 c 3
 436.512695312 140 420 125 376 134 c 1
 391 190 424.039211918 336 220 336 c 3
269 430 m 3
 269 447 264.772460938 451.591796875 247 474 c 0
 224 503 181 552 141 552 c 3
 129.208984375 552 120 536.2421875 120 526 c 3
 120 484.890625 156.231445312 464.6953125 201 430 c 0
 241 399 269 414.8671875 269 430 c 3
EndSplineSet
EndChar

StartChar: oacute
Encoding: 243 243 161
Width: 424
VWidth: 0
Flags: HW
LayerCount: 2
Fore
SplineSet
288 97 m 1
 258 72 223.036351623 58 168 58 c 3
 117.990234375 58 59 77.5859375 59 137 c 3
 59 188.039200621 109 232 126 243 c 1
 126 243 146.233754713 194.654085767 178 160 c 0
 211 124 260 104 288 97 c 1
242 196 m 0
 213.411132812 216.583984375 197 243 186 268 c 1
 204 279 216.776367188 283 237 283 c 3
 313.10546875 283 343 227 320 152 c 1
 292 160 267 178 242 196 c 0
220 336 m 3
 130.94921875 336 1 237.017578125 1 121 c 3
 1 42.9931640625 71 0 175 0 c 3
 241 0 314 15 359 79 c 1
 408 71 460 103 460 127 c 3
 460 138.705078125 455.055664062 140 446 140 c 3
 436.512695312 140 420 125 376 134 c 1
 391 190 424.039211918 336 220 336 c 3
177 499 m 0
 159.112304688 456.267578125 137.982421875 404 166 404 c 3
 187 404 209 425 240 476 c 0
 240 476 277 552 254 553 c 0
 207.034179688 555.041992188 195 542 177 499 c 0
EndSplineSet
EndChar

StartChar: ocircumflex
Encoding: 244 244 162
Width: 428
VWidth: 0
Flags: HW
LayerCount: 2
Fore
SplineSet
288 97 m 1
 258 72 223.036351623 58 168 58 c 3
 117.990234375 58 59 77.5859375 59 137 c 3
 59 188.039200621 109 232 126 243 c 1
 126 243 146.233754713 194.654085767 178 160 c 0
 211 124 260 104 288 97 c 1
242 196 m 0
 213.411132812 216.583984375 197 243 186 268 c 1
 204 279 216.776367188 283 237 283 c 3
 313.10546875 283 343 227 320 152 c 1
 292 160 267 178 242 196 c 0
220 336 m 3
 130.94921875 336 1 237.017578125 1 121 c 3
 1 42.9931640625 71 0 175 0 c 3
 241 0 314 15 359 79 c 1
 408 71 460 103 460 127 c 3
 460 138.705078125 455.055664062 140 446 140 c 3
 436.512695312 140 420 125 376 134 c 1
 391 190 424.039211918 336 220 336 c 3
305 438 m 0
 335.525390625 396.069335938 319.137695312 377.604492188 296 390 c 0
 268 405 242 428 204 456 c 1
 174 424 141 408 116 388 c 0
 106.046875 380.037109375 56 366 96 422 c 0
 186.44140625 548.618164062 214 563 305 438 c 0
EndSplineSet
EndChar

StartChar: otilde
Encoding: 245 245 163
Width: 428
VWidth: 0
Flags: HW
LayerCount: 2
Fore
SplineSet
288 97 m 1
 258 72 223.036351623 58 168 58 c 3
 117.990234375 58 59 77.5859375 59 137 c 3
 59 188.039200621 109 232 126 243 c 1
 126 243 146.233754713 194.654085767 178 160 c 0
 211 124 260 104 288 97 c 1
242 196 m 0
 213.411132812 216.583984375 197 243 186 268 c 1
 204 279 216.776367188 283 237 283 c 3
 313.10546875 283 343 227 320 152 c 1
 292 160 267 178 242 196 c 0
220 336 m 3
 130.94921875 336 1 237.017578125 1 121 c 3
 1 42.9931640625 71 0 175 0 c 3
 241 0 314 15 359 79 c 1
 408 71 460 103 460 127 c 3
 460 138.705078125 455.055664062 140 446 140 c 3
 436.512695312 140 420 125 376 134 c 1
 391 190 424.039211918 336 220 336 c 3
314 471 m 0
 279.587890625 454.213867188 246.510742188 451.489257812 233 465 c 0
 197.0546875 500.9453125 133.7890625 468.538085938 117 444 c 0
 91 406 103 398 129 412 c 0
 155.932617188 426.501953125 183 442 217 418 c 0
 239.889648438 401.842773438 286.948242188 400.948242188 308 422 c 0
 334 448 355 491 314 471 c 0
EndSplineSet
EndChar

StartChar: odieresis
Encoding: 246 246 164
Width: 432
VWidth: 0
Flags: HW
LayerCount: 2
Fore
SplineSet
288 97 m 1
 258 72 223.036351623 58 168 58 c 3
 117.990234375 58 59 77.5859375 59 137 c 3
 59 188.039200621 109 232 126 243 c 1
 126 243 146.233754713 194.654085767 178 160 c 0
 211 124 260 104 288 97 c 1
242 196 m 0
 213.411132812 216.583984375 197 243 186 268 c 1
 204 279 216.776367188 283 237 283 c 3
 313.10546875 283 343 227 320 152 c 1
 292 160 267 178 242 196 c 0
220 336 m 3
 130.94921875 336 1 237.017578125 1 121 c 3
 1 42.9931640625 71 0 175 0 c 3
 241 0 314 15 359 79 c 1
 408 71 460 103 460 127 c 3
 460 138.705078125 455.055664062 140 446 140 c 3
 436.512695312 140 420 125 376 134 c 1
 391 190 424.039211918 336 220 336 c 3
250 450 m 3
 250 413.297851562 279.977539062 407 302 407 c 3
 320 407 343 420 344 449 c 0
 344.987304688 477.618164062 333.01953125 502 307 502 c 3
 290.875 502 250 486.400390625 250 450 c 3
104 462 m 0
 93.9169921875 426.709960938 116.977539062 401 139 401 c 3
 169.510742188 401 184.61328125 432.86328125 193 472 c 0
 199 500 187.01953125 514 161 514 c 3
 144.875 514 114 497 104 462 c 0
EndSplineSet
EndChar

StartChar: ntilde
Encoding: 241 241 165
Width: 611
VWidth: 0
Flags: HW
LayerCount: 2
Fore
SplineSet
370 497 m 4
 335.587890625 480.213867188 302.510742188 477.489257812 289 491 c 4
 253.0546875 526.9453125 189.7890625 494.538085938 173 470 c 4
 147 432 159 424 185 438 c 4
 211.932617188 452.501953125 239 468 273 444 c 4
 295.889648438 427.842773438 342.948242188 426.948242188 364 448 c 4
 390 474 411 517 370 497 c 4
472 163 m 0
 486 237 505.00390625 332 378 332 c 3
 324.603515625 332 300.19921875 319.1875 271 296 c 1
 247 324 215.128898268 340 153 340 c 3
 83.9710205783 340 44.4873046875 252.837890625 32 216 c 0
 12 157 -9 126.279296875 -9 110 c 3
 -9 103 -10.0556640625 99 -1 99 c 3
 21.0227155455 99 50 141 74 194 c 0
 91.0224609375 231.591796875 115.300745995 278 167 278 c 3
 256 278 207.4140625 174.5078125 196 126 c 0
 176 41 155.989257812 -1 203 -1 c 3
 239.013671875 -1 239 31 258 104 c 0
 277.265625 178.01953125 279 274 381 274 c 3
 445.0078125 274 415.372070312 193.21484375 407 142 c 0
 390 38 371 0 448 0 c 1
 564 0 640 115.720703125 640 132 c 3
 640 138.708007812 642.15625 144 633 144 c 3
 613.895507812 144 575.006023878 60 492 60 c 3
 458.727539062 60 453.520507812 65.32421875 472 163 c 0
EndSplineSet
Validated: 41
EndChar

StartChar: divide
Encoding: 247 247 166
Width: 424
VWidth: 0
Flags: HW
LayerCount: 2
Fore
SplineSet
188 277 m 0
 190 252 207.658203125 240 221 240 c 3
 257 240 267 265 266 280 c 0
 264.060546875 309.08984375 254.01953125 321 228 321 c 3
 211.875 321 185.278320312 311.0234375 188 277 c 0
154 63 m 0
 152 36 164.977539062 26 187 26 c 3
 217.510742188 26 232.236447219 42.9703934896 235 66 c 0
 238 91 221 108 203 108 c 3
 182 108 156.521484375 97.0390625 154 63 c 0
201 198 m 3
 103.747750669 198 78 212.010742188 78 167 c 3
 78 143.913085938 113.995283124 147 220 147 c 3
 318.005101908 147 342 143.583984375 342 163 c 3
 342 208.099889135 336.133267555 198 201 198 c 3
EndSplineSet
Validated: 41
EndChar

StartChar: oslash
Encoding: 248 248 167
Width: 324
VWidth: 0
Flags: HW
LayerCount: 2
Fore
SplineSet
155 207 m 3
 220.192382812 207 236 169.756835938 236 137 c 3
 236 101.489257812 212.077148438 53 154 53 c 3
 132.458984375 53 82 67.9921875 82 131 c 3
 82 170.012695312 113.890625 207 155 207 c 3
26 134 m 3
 26 45.94921875 106 -1 158 -1 c 3
 226.0078125 -1 293 57.994140625 293 146 c 3
 293 220.006835938 234.0234375 264 150 264 c 3
 93.9638671875 264 26 190.22265625 26 134 c 3
EndSplineSet
Validated: 9
EndChar

StartChar: ugrave
Encoding: 249 249 168
Width: 473
VWidth: 0
Flags: HW
LayerCount: 2
Fore
SplineSet
288 430 m 3
 288 447 283.772460938 451.591796875 266 474 c 0
 243 503 200 552 160 552 c 3
 148.208984375 552 139 536.2421875 139 526 c 3
 139 484.890625 175.231445312 464.6953125 220 430 c 0
 260 399 288 414.8671875 288 430 c 3
7 158 m 0
 -24.9626566758 28.6965252662 43 0 162 0 c 3
 231 0 265 34 284 57 c 1
 283 38 300 0 369 0 c 3
 418 0 499 83.984375 499 116 c 3
 499 122.671875 503 133 493 133 c 3
 479.513671875 133 432.339961759 60 378 60 c 3
 330.95703125 60 327 101 359 196 c 0
 376.658315353 248.423123704 386 301 386 301 c 3
 386 318.262695312 387.203125 330 365 330 c 3
 325.987181594 330 316 261 293 201 c 0
 244.328598706 74.0311270584 190.14267539 59 134 59 c 3
 61.9930558904 59 59.7138671875 108.78515625 82 184 c 0
 98 238 116 305 116 325 c 3
 116 332 119.701171875 337 98 337 c 3
 52 337 29 247 7 158 c 0
EndSplineSet
Validated: 41
EndChar

StartChar: uacute
Encoding: 250 250 169
Width: 473
VWidth: 0
Flags: HW
LayerCount: 2
Fore
SplineSet
207 495 m 0
 189.112304688 452.267578125 167.982421875 400 196 400 c 3
 217 400 239 421 270 472 c 0
 270 472 307 548 284 549 c 0
 237.034179688 551.041992188 225 538 207 495 c 0
7 158 m 0
 -24.9626566758 28.6965252662 43 0 162 0 c 3
 231 0 265 34 284 57 c 1
 283 38 300 0 369 0 c 3
 418 0 499 83.984375 499 116 c 3
 499 122.671875 503 133 493 133 c 3
 479.513671875 133 432.339961759 60 378 60 c 3
 330.95703125 60 327 101 359 196 c 0
 376.658315353 248.423123704 386 301 386 301 c 3
 386 318.262695312 387.203125 330 365 330 c 3
 325.987181594 330 316 261 293 201 c 0
 244.328598706 74.0311270584 190.14267539 59 134 59 c 3
 61.9930558904 59 59.7138671875 108.78515625 82 184 c 0
 98 238 116 305 116 325 c 3
 116 332 119.701171875 337 98 337 c 3
 52 337 29 247 7 158 c 0
EndSplineSet
Validated: 41
EndChar

StartChar: ucircumflex
Encoding: 251 251 170
Width: 473
VWidth: 0
Flags: HW
LayerCount: 2
Fore
SplineSet
321 449 m 0
 351.525390625 407.069335938 335.137695312 388.604492188 312 401 c 0
 284 416 258 439 220 467 c 1
 190 435 157 419 132 399 c 0
 122.046875 391.037109375 72 377 112 433 c 0
 202.44140625 559.618164062 230 574 321 449 c 0
7 158 m 0
 -24.9626566758 28.6965252662 43 0 162 0 c 3
 231 0 265 34 284 57 c 1
 283 38 300 0 369 0 c 3
 418 0 499 83.984375 499 116 c 3
 499 122.671875 503 133 493 133 c 3
 479.513671875 133 432.339961759 60 378 60 c 3
 330.95703125 60 327 101 359 196 c 0
 376.658315353 248.423123704 386 301 386 301 c 3
 386 318.262695312 387.203125 330 365 330 c 3
 325.987181594 330 316 261 293 201 c 0
 244.328598706 74.0311270584 190.14267539 59 134 59 c 3
 61.9930558904 59 59.7138671875 108.78515625 82 184 c 0
 98 238 116 305 116 325 c 3
 116 332 119.701171875 337 98 337 c 3
 52 337 29 247 7 158 c 0
EndSplineSet
Validated: 41
EndChar

StartChar: udieresis
Encoding: 252 252 171
Width: 473
VWidth: 0
Flags: HW
LayerCount: 2
Fore
SplineSet
254 447 m 7
 254 410.297851562 283.977539062 404 306 404 c 7
 324 404 347 417 348 446 c 4
 348.987304688 474.618164062 337.01953125 499 311 499 c 7
 294.875 499 254 483.400390625 254 447 c 7
108 459 m 4
 97.9169921875 423.709960938 120.977539062 398 143 398 c 7
 173.510742188 398 188.61328125 429.86328125 197 469 c 4
 203 497 191.01953125 511 165 511 c 7
 148.875 511 118 494 108 459 c 4
7 158 m 0
 -24.9626566758 28.6965252662 43 0 162 0 c 3
 231 0 265 34 284 57 c 1
 283 38 300 0 369 0 c 3
 418 0 499 83.984375 499 116 c 3
 499 122.671875 503 133 493 133 c 3
 479.513671875 133 432.339961759 60 378 60 c 3
 330.95703125 60 327 101 359 196 c 0
 376.658315353 248.423123704 386 301 386 301 c 3
 386 318.262695312 387.203125 330 365 330 c 3
 325.987181594 330 316 261 293 201 c 0
 244.328598706 74.0311270584 190.14267539 59 134 59 c 3
 61.9930558904 59 59.7138671875 108.78515625 82 184 c 0
 98 238 116 305 116 325 c 3
 116 332 119.701171875 337 98 337 c 3
 52 337 29 247 7 158 c 0
EndSplineSet
Validated: 41
EndChar

StartChar: yacute
Encoding: 253 253 172
Width: 503
VWidth: 0
Flags: HW
LayerCount: 2
Fore
SplineSet
167 504 m 0
 149.112304688 461.267578125 127.982421875 409 156 409 c 3
 177 409 199 430 230 481 c 0
 230 481 267 557 244 558 c 0
 197.034179688 560.041992188 185 547 167 504 c 0
0 138 m 3
 0 58.8419302913 10 0 83 0 c 3
 120.426369625 0 151.444335938 14.689453125 180 36 c 1
 159 7 110 -74.9580078125 110 -121 c 3
 110 -164.336914062 135 -200 217 -200 c 3
 378.012421881 -200 301 71 293 130 c 1
 301 139 307.233398438 143 311 143 c 3
 375 143 318 0 421 0 c 3
 463 0 527 99.7373046875 527 117 c 3
 527 123.708007812 524.15625 125 515 125 c 3
 501 125 452.400636936 48 421 48 c 3
 366 48 414 200 323 201 c 1
 305 202 294.329771666 184.032055009 293 196 c 0
 290 223 286.71875 240.120117188 281 268 c 0
 273 307 276.420898438 332 246 332 c 3
 187.899414062 332 239 241 242 170 c 1
 218 136 165.007812023 57 101 57 c 3
 75.504902432 57 52.6612732786 80.9929666477 52 121 c 0
 50 242 112 276.307617188 112 310 c 3
 112 335.318359375 105.021728866 332 82 332 c 3
 46.9853515625 332 0 233 0 138 c 3
251 94 m 1
 260 32 306.050547444 -145 217 -145 c 3
 194 -145 170 -139 170 -114 c 3
 170 -56 212 0 251 94 c 1
EndSplineSet
Validated: 41
EndChar

StartChar: ydieresis
Encoding: 255 255 173
Width: 503
VWidth: 0
Flags: HW
LayerCount: 2
Fore
SplineSet
214 446 m 7
 214 409.297851562 243.977539062 403 266 403 c 7
 284 403 307 416 308 445 c 4
 308.987304688 473.618164062 297.01953125 498 271 498 c 7
 254.875 498 214 482.400390625 214 446 c 7
68 458 m 4
 57.9169921875 422.709960938 80.9775390625 397 103 397 c 7
 133.510742188 397 148.61328125 428.86328125 157 468 c 4
 163 496 151.01953125 510 125 510 c 7
 108.875 510 78 493 68 458 c 4
0 138 m 3
 0 58.8419302913 10 0 83 0 c 3
 120.426369625 0 151.444335938 14.689453125 180 36 c 1
 159 7 110 -74.9580078125 110 -121 c 3
 110 -164.336914062 135 -200 217 -200 c 3
 378.012421881 -200 301 71 293 130 c 1
 301 139 307.233398438 143 311 143 c 3
 375 143 318 0 421 0 c 3
 463 0 527 99.7373046875 527 117 c 3
 527 123.708007812 524.15625 125 515 125 c 3
 501 125 452.400636936 48 421 48 c 3
 366 48 414 200 323 201 c 1
 305 202 294.329771666 184.032055009 293 196 c 0
 290 223 286.71875 240.120117188 281 268 c 0
 273 307 276.420898438 332 246 332 c 3
 187.899414062 332 239 241 242 170 c 1
 218 136 165.007812023 57 101 57 c 3
 75.504902432 57 52.6612732786 80.9929666477 52 121 c 0
 50 242 112 276.307617188 112 310 c 3
 112 335.318359375 105.021728866 332 82 332 c 3
 46.9853515625 332 0 233 0 138 c 3
251 94 m 1
 260 32 306.050547444 -145 217 -145 c 3
 194 -145 170 -139 170 -114 c 3
 170 -56 212 0 251 94 c 1
EndSplineSet
Validated: 41
EndChar

StartChar: asciicircum
Encoding: 94 94 174
Width: 360
VWidth: 0
Flags: HW
LayerCount: 2
Fore
SplineSet
285 431 m 4
 315.525390625 389.069335938 299.137695312 370.604492188 276 383 c 4
 248 398 222 421 184 449 c 5
 154 417 121 401 96 381 c 4
 86.046875 373.037109375 36 359 76 415 c 4
 166.44140625 541.618164062 194 556 285 431 c 4
EndSplineSet
Validated: 33
EndChar

StartChar: dollar
Encoding: 36 36 175
Width: 374
VWidth: 0
Flags: HW
LayerCount: 2
Fore
SplineSet
247 147 m 0
 256 -24 262 -43 223 -47 c 1
 187.899414062 -47 186.662484936 -47.8455839683 180 48 c 0
 175.215193037 116.833569143 171.719726562 131.188476562 168 238 c 0
 166.2890625 287.1328125 160 420.5859375 160 480 c 3
 160 634.012695312 158 647 192 648 c 0
 219.223632812 648.80078125 234 645 234 606 c 0
 234 559.493164063 235 438 235 385 c 0
 235 328.919921875 242.999982968 223.000323603 247 147 c 0
210 598 m 3
 322.071289062 598 373 543.1953125 373 492 c 3
 373 465.453125 374.23046875 440 345 440 c 3
 321.586914062 440 308 445.102539062 308 468 c 3
 308 514 276.006835938 537 207 537 c 3
 122.946289062 537 101 475.604492188 101 435 c 3
 101 348.010742188 153.486121251 346.601098915 223 319 c 0
 291 292 396 280.014705087 396 144 c 3
 396 63.9937502441 338 0 180 0 c 3
 77 0 28 75.8847855688 28 115 c 3
 28 158.290039062 44.7646484375 161 64 161 c 3
 76.48046875 161 94 164.037109375 94 144 c 3
 94 120.654296875 134.958351402 64 183 64 c 3
 243.133185513 64 337 90 337 149 c 0
 337 228.00632886 251 232 174 264 c 0
 116.036750932 288.088622989 31 317.59581682 31 418 c 3
 31 505.051757812 74.9404296875 598 210 598 c 3
EndSplineSet
EndChar

StartChar: percent
Encoding: 37 37 176
Width: 628
VWidth: 0
Flags: HW
LayerCount: 2
Fore
SplineSet
155 552 m 3
 220.192382812 552 236 514.756835938 236 482 c 3
 236 446.489257812 212.077148438 398 154 398 c 3
 132.458984375 398 82 412.9921875 82 476 c 3
 82 515.012695312 113.890625 552 155 552 c 3
26 479 m 3
 26 390.94921875 106 344 158 344 c 3
 226.0078125 344 293 402.994140625 293 491 c 3
 293 565.006835938 234.0234375 609 150 609 c 3
 93.9638671875 609 26 535.22265625 26 479 c 3
460 208 m 3
 525.192382812 208 541 170.756835938 541 138 c 3
 541 102.489257812 517.077148438 54 459 54 c 3
 437.458984375 54 387 68.9921875 387 132 c 3
 387 171.012695312 418.890625 208 460 208 c 3
331 135 m 3
 331 46.94921875 411 0 463 0 c 3
 531.0078125 0 598 58.994140625 598 147 c 3
 598 221.006835938 539.0234375 265 455 265 c 3
 398.963867188 265 331 191.22265625 331 135 c 3
327 412 m 0
 285 334 209.636475605 208.709736458 176 148 c 0
 94 0 77.708984375 0 153 0 c 3
 198 0 209.372070312 52.662109375 317 244 c 0
 389 372 426.249023438 436.596679688 455 488 c 0
 521 606 509.055664062 600 473 600 c 3
 418 600 429.4375 602.241210938 327 412 c 0
EndSplineSet
Validated: 41
EndChar

StartChar: cedilla
Encoding: 184 184 177
Width: 184
VWidth: 0
Flags: HW
LayerCount: 2
Fore
SplineSet
155 -15 m 4
 154.2890625 3.013671875 142.327148438 36 104 36 c 7
 65.6728515625 36 76.3798828125 -4.841796875 76 -21 c 4
 74 -106 30 -96 30 -118 c 7
 30 -133.637695312 34.5 -136 44 -136 c 4
 82 -136 158 -91 155 -15 c 4
EndSplineSet
Validated: 41
EndChar

StartChar: four
Encoding: 52 52 178
Width: 460
VWidth: 0
Flags: HW
LayerCount: 2
Fore
SplineSet
328 348 m 3
 328 301.352539062 330 245 330 245 c 1
 330 245 375 247 406 247 c 3
 428.090820312 247 427 235.318359375 427 210 c 3
 427 184 429 175 409 175 c 3
 371 175 325 176 325 176 c 1
 327 134 326 99.8642578125 326 76 c 3
 326 21.9169921875 338 1 294 1 c 3
 263.241210938 1 252 -12 254 38 c 0
 255.798828125 82.9755859375 255 134.260742188 255 176 c 1
 252.3359375 175.088867188 252.064453125 174 128 174 c 3
 51.927734375 174 26 167.185546875 26 205 c 3
 26 255.040039062 28.746061591 245.546426364 127 408 c 0
 228.356412119 575.583219832 233.9375 600 266 600 c 3
 344.51751397 600 306 585 264 510 c 0
 203.016505498 401.100902675 135 296 97 237 c 1
 140 241 219.194335938 242 257 242 c 1
 256.049804688 272.395507812 257 299.139648438 257 346 c 3
 257 358.939453125 273.432617188 359.06640625 289 359.06640625 c 3
 307.22265625 359.06640625 328 362.984375 328 348 c 3
EndSplineSet
EndChar

StartChar: asterisk
Encoding: 42 42 179
Width: 414
VWidth: 0
Flags: HW
LayerCount: 2
Fore
SplineSet
200 631 m 1
 168 671 154.384765625 693 109 693 c 0
 94.830078125 693 75.703125 659.59375 82 647 c 0
 98 615 101 621 138 589 c 9
 109 589 l 0
 83.8984375 589 35.0849609375 572.684570312 41 543 c 0
 45.9287109375 518.267578125 74 507 145 518 c 1
 126 483 109 479.549804688 109 439 c 0
 109 419.694335938 126.282226562 403 145 403 c 0
 181.231445312 403 202 466 212 483 c 1
 227 470 244.47265625 427 280 427 c 0
 304.146484375 427 316 453.852539062 316 475 c 0
 316 494.512695312 266.56640625 526 269 526 c 0
 274.735351562 526 312.6171875 524.47265625 320 526 c 0
 349 532 368 546.903320312 368 573 c 0
 368 607.15625 328 604 299 597 c 0
 224.762695312 579.081054688 311.323242188 597.120117188 311 652 c 0
 310.877929688 672.780273438 300.272460938 695 281 695 c 0
 251.684570312 695 217.591796875 649.094726562 200 631 c 1
EndSplineSet
Validated: 41
EndChar

StartChar: numbersign
Encoding: 35 35 180
Width: 714
VWidth: 0
Flags: HW
LayerCount: 2
Fore
SplineSet
240 415 m 3
 121.99609375 415 80 416.319335938 80 377 c 3
 80 353.913085938 185.938476562 364 259 364 c 3
 678.01953125 364 703 364.583984375 703 384 c 3
 703 429.771484375 736.009072498 415 240 415 c 3
153 231 m 3
 34.99609375 231 -7 232.319335938 -7 193 c 3
 -7 169.913085938 98.9384765625 180 172 180 c 3
 591.01953125 180 609 180.583984375 609 200 c 3
 609 242.01171875 621.009765625 231 153 231 c 3
523 412 m 0
 481 334 404.682617188 209.228515625 372 148 c 0
 293 0 273.708984375 0 349 0 c 3
 394 0 400.372070312 36.662109375 508 228 c 0
 580 356 622.248998222 436.596693791 651 488 c 0
 717 606 705.055664062 600 669 600 c 3
 614 600 625.4375 602.241210938 523 412 c 0
241 412 m 0
 199 334 122.682617188 209.228515625 90 148 c 0
 11 0 -8.291015625 0 67 0 c 3
 112 0 118.372070312 36.662109375 226 228 c 0
 298 356 340.248998222 436.596693791 369 488 c 0
 435 606 423.055664062 600 387 600 c 3
 332 600 343.4375 602.241210938 241 412 c 0
EndSplineSet
Validated: 37
EndChar

StartChar: greater
Encoding: 62 62 181
Width: 544
VWidth: 0
Flags: HW
LayerCount: 2
Fore
SplineSet
283 284 m 0
 497 236 500 243.154296875 500 214 c 3
 500 172.98828125 498 179 277 99.013671875 c 0
 25.9453125 8.1494140625 38 12.451171875 38 53 c 3
 38 94.109375 43.296875 74.5615234375 255 144 c 0
 380 185 408 195 430 204 c 1
 409 210 376.020507812 215.444335938 270 237 c 0
 29 286 30 274 30 303 c 1
 32 367 22.853515625 342.350585938 283 284 c 0
EndSplineSet
Validated: 33
EndChar

StartChar: less
Encoding: 60 60 182
Width: 544
VWidth: 0
Flags: HW
LayerCount: 2
Fore
SplineSet
247 284 m 0
 33 236 30 243.154296875 30 214 c 3
 30 172.98828125 32 179 253 99.013671875 c 0
 504.0546875 8.1494140625 492 12.451171875 492 53 c 3
 492 94.109375 486.703125 74.5615234375 275 144 c 0
 150 185 122 195 100 204 c 1
 121 210 153.979492188 215.444335938 260 237 c 0
 501 286 500 274 500 303 c 1
 498 367 507.146484375 342.350585938 247 284 c 0
EndSplineSet
Validated: 41
EndChar

StartChar: OE
Encoding: 256 338 183
Width: 758
VWidth: 0
Flags: HW
LayerCount: 2
Fore
SplineSet
702 0 m 3
 769 0 783 0 783 32 c 3
 783 69.013671875 741.037109375 70 620 70 c 3
 581.947265625 70 538 69 522 68 c 1
 523.038085938 88.7626953125 521.362304688 114.194335938 517 148 c 0
 509 210 512.961914062 243.953125 508 268 c 1
 524 273 585.633789062 282 635 282 c 27
 685.358398438 282 779 268.1171875 779 300 c 3
 779 344 771 352 717 352 c 3
 711.831054688 352 565 348 514 340 c 1
 509 372 503.885742188 430.745117188 503 447 c 0
 500.54296875 492.10546875 506 482.107421875 506 526 c 1
 528 534 540.266601562 544 605 544 c 1
 721 541 723.895507812 534 743 534 c 3
 763.637695312 534 773 546.249023438 773 566 c 3
 773 605 714.170898438 606 609 606 c 3
 572.778320312 606 519.325195312 598.515625 492 592.284179688 c 0
 460.16015625 585.0234375 432 571.31640625 432 546 c 3
 432 411.7421875 431.973632812 394.130859375 438 288 c 0
 444.075195312 181.005859375 442 116 453 48 c 0
 460.666992188 0.60546875 476.899414062 0.443359375 504 0.443359375 c 3
 553.454101562 0.443359375 647.66796875 0 702 0 c 3
276 537 m 3
 439.012695312 537 434 372.640625 434 277 c 3
 434 155.93359375 322 62 236 62 c 3
 117.93359375 62 80 129 88 262 c 0
 91.4906916108 320.032748029 120.888671875 537 276 537 c 3
270 604 m 3
 79.9892578125 604 24 348 24 276 c 0
 24 74 51 0 236 0 c 3
 388 0 493 139.986207553 493 285 c 3
 493 396.364257812 513.032919581 604 270 604 c 3
EndSplineSet
Validated: 37
EndChar

StartChar: oe
Encoding: 257 339 184
Width: 693
VWidth: 0
Flags: HW
LayerCount: 2
Fore
SplineSet
386 129 m 1
 372 216 468.96875 286 532 286 c 3
 571.05078125 286 609 274.131835938 609 240 c 3
 609 208.91015625 570.224609375 173.485351562 518 151 c 0
 446 120 406 129 386 129 c 1
523 342 m 3
 431.994140625 342 323 260.00390625 323 135 c 3
 323 39.9951171875 396 0 526 0 c 3
 644 0 721 92.982421875 721 121 c 3
 721 129.0625 729.110351562 135 711 135 c 3
 698.958007812 135 642.004882812 55 543 55 c 3
 458 55 423 61 400 82 c 1
 454 71 519.130859375 87.7744140625 552 107 c 0
 605 138 670 182.276367188 670 232 c 3
 670 314.005859375 613.022460938 342 523 342 c 3
288 97 m 1
 258 72 223.036351623 58 168 58 c 3
 117.990234375 58 59 77.5859375 59 137 c 3
 59 188.039200621 109 232 126 243 c 1
 126 243 146.233754713 194.654085767 178 160 c 0
 211 124 260 104 288 97 c 1
242 196 m 0
 213.411132812 216.583984375 197 243 186 268 c 1
 204 279 216.776367188 283 237 283 c 3
 313.10546875 283 343 227 320 152 c 1
 292 160 267 178 242 196 c 0
220 336 m 3
 130.94921875 336 1 237.017578125 1 121 c 3
 1 42.9931640625 71 0 175 0 c 3
 241 0 314 15 359 79 c 1
 408 71 401 95 401 107 c 3
 401 118.705078125 423.055664062 121 414 121 c 3
 404.512695312 121 420 125 376 134 c 1
 391 190 424.039211918 336 220 336 c 3
EndSplineSet
EndChar
